<svg width="157" height="130" viewBox="0 0 157 130" fill="none" xmlns="http://www.w3.org/2000/svg">
<path d="M1.85327 62.8629L7.39969 64.1434" stroke="#86909C"/>
<path d="M19.0874 128.353L23.448 124.694" stroke="#86909C"/>
<path d="M3.24634 97.263L8.76956 95.8859" stroke="#86909C"/>
<path d="M17.3838 30.7509L21.8694 34.2554" stroke="#86909C"/>
<path d="M44.501 8.79175L46.9963 13.908" stroke="#86909C"/>
<path d="M78.5 0.942383V6.63469" stroke="#86909C"/>
<path d="M112.499 8.79175L110.004 13.908" stroke="#86909C"/>
<path d="M139.616 30.7509L135.13 34.2554" stroke="#86909C"/>
<path d="M154.363 62.3749L148.795 63.5584" stroke="#86909C"/>
<path d="M153.754 97.263L148.231 95.8859" stroke="#86909C"/>
<path d="M137.913 128.353L133.552 124.694" stroke="#86909C"/>
<path d="M14.8137 122.763L17.7351 120.733" stroke="#C9CDD4"/>
<path d="M11.0637 116.809L14.1571 115.052" stroke="#C9CDD4"/>
<path d="M7.86914 110.539L11.1091 109.07" stroke="#C9CDD4"/>
<path d="M5.2561 104.006L8.6159 102.836" stroke="#C9CDD4"/>
<path d="M1.85547 90.3652L5.37128 89.8209" stroke="#C9CDD4"/>
<path d="M1.09546 83.3699L4.64613 83.1465" stroke="#C9CDD4"/>
<path d="M0.972656 76.3345L4.52896 76.4338" stroke="#C9CDD4"/>
<path d="M1.48755 69.3168L5.02021 69.738" stroke="#C9CDD4"/>
<path d="M4.41064 55.5656L7.80923 56.6176" stroke="#C9CDD4"/>
<path d="M6.79443 48.9451L10.0837 50.3008" stroke="#C9CDD4"/>
<path d="M9.76831 42.5677L12.9212 44.216" stroke="#C9CDD4"/>
<path d="M13.3079 36.4863L16.2983 38.4136" stroke="#C9CDD4"/>
<path d="M21.9631 25.4081L24.5566 27.8435" stroke="#C9CDD4"/>
<path d="M27.0073 20.5024L29.3694 23.1629" stroke="#C9CDD4"/>
<path d="M32.4758 16.0742L34.587 18.9378" stroke="#C9CDD4"/>
<path d="M38.3232 12.1599L40.1662 15.203" stroke="#C9CDD4"/>
<path d="M50.9587 5.99707L52.2221 9.32289" stroke="#C9CDD4"/>
<path d="M57.6433 3.79932L58.6 7.22595" stroke="#C9CDD4"/>
<path d="M64.499 2.21643L65.1413 5.71568" stroke="#C9CDD4"/>
<path d="M71.4707 1.26147L71.7931 4.80452" stroke="#C9CDD4"/>
<path d="M85.529 1.26147L85.2065 4.80452" stroke="#C9CDD4"/>
<path d="M92.5004 2.21643L91.8582 5.71568" stroke="#C9CDD4"/>
<path d="M99.3569 3.79932L98.4001 7.22595" stroke="#C9CDD4"/>
<path d="M106.041 5.99707L104.778 9.32289" stroke="#C9CDD4"/>
<path d="M118.677 12.1599L116.834 15.203" stroke="#C9CDD4"/>
<path d="M124.524 16.0742L122.413 18.9378" stroke="#C9CDD4"/>
<path d="M129.993 20.5024L127.631 23.1629" stroke="#C9CDD4"/>
<path d="M135.037 25.4081L132.444 27.8435" stroke="#C9CDD4"/>
<path d="M143.692 36.4863L140.702 38.4136" stroke="#C9CDD4"/>
<path d="M147.232 42.5677L144.079 44.216" stroke="#C9CDD4"/>
<path d="M150.206 48.9451L146.917 50.3008" stroke="#C9CDD4"/>
<path d="M152.59 55.5656L149.191 56.6176" stroke="#C9CDD4"/>
<path d="M155.512 69.3168L151.979 69.738" stroke="#C9CDD4"/>
<path d="M156.027 76.3345L152.471 76.4338" stroke="#C9CDD4"/>
<path d="M155.905 83.3699L152.354 83.1465" stroke="#C9CDD4"/>
<path d="M155.144 90.3652L151.629 89.8209" stroke="#C9CDD4"/>
<path d="M151.744 104.006L148.384 102.836" stroke="#C9CDD4"/>
<path d="M149.13 110.539L145.89 109.07" stroke="#C9CDD4"/>
<path d="M145.936 116.809L142.842 115.052" stroke="#C9CDD4"/>
<path d="M142.186 122.763L139.265 120.733" stroke="#C9CDD4"/>
<path d="M28.7702 123.779C28.3502 123.779 27.9752 123.686 27.6452 123.499C27.3152 123.309 27.0335 123.048 26.8002 122.714C26.5668 122.381 26.3885 121.996 26.2652 121.559C26.1452 121.119 26.0852 120.649 26.0852 120.149C26.0852 119.649 26.1452 119.179 26.2652 118.739C26.3885 118.299 26.5668 117.914 26.8002 117.584C27.0335 117.251 27.3152 116.991 27.6452 116.804C27.9752 116.614 28.3502 116.519 28.7702 116.519C29.1868 116.519 29.5602 116.614 29.8902 116.804C30.2202 116.991 30.5002 117.251 30.7302 117.584C30.9602 117.914 31.1352 118.299 31.2552 118.739C31.3785 119.179 31.4402 119.649 31.4402 120.149C31.4402 120.649 31.3785 121.119 31.2552 121.559C31.1352 121.996 30.9602 122.381 30.7302 122.714C30.5002 123.048 30.2202 123.309 29.8902 123.499C29.5602 123.686 29.1868 123.779 28.7702 123.779ZM28.7702 123.079C29.2102 123.079 29.5785 122.944 29.8752 122.674C30.1752 122.404 30.4002 122.048 30.5502 121.604C30.7002 121.158 30.7752 120.673 30.7752 120.149C30.7752 119.596 30.6968 119.099 30.5402 118.659C30.3868 118.216 30.1602 117.866 29.8602 117.609C29.5635 117.349 29.2002 117.219 28.7702 117.219C28.4302 117.219 28.1335 117.298 27.8802 117.454C27.6268 117.611 27.4168 117.826 27.2502 118.099C27.0835 118.373 26.9585 118.686 26.8752 119.039C26.7918 119.389 26.7502 119.759 26.7502 120.149C26.7502 120.676 26.8268 121.163 26.9802 121.609C27.1335 122.053 27.3602 122.409 27.6602 122.679C27.9602 122.946 28.3302 123.079 28.7702 123.079Z" fill="#86909C"/>
<path d="M12.0406 97.6932V91.3932H11.2906L11.4906 90.6932H12.7406V97.6932H12.0406ZM16.5221 97.8232C16.1021 97.8232 15.7271 97.7299 15.3971 97.5432C15.0671 97.3532 14.7854 97.0916 14.5521 96.7582C14.3188 96.4249 14.1404 96.0399 14.0171 95.6032C13.8971 95.1632 13.8371 94.6932 13.8371 94.1932C13.8371 93.6932 13.8971 93.2232 14.0171 92.7832C14.1404 92.3432 14.3188 91.9582 14.5521 91.6282C14.7854 91.2949 15.0671 91.0349 15.3971 90.8482C15.7271 90.6582 16.1021 90.5632 16.5221 90.5632C16.9388 90.5632 17.3121 90.6582 17.6421 90.8482C17.9721 91.0349 18.2521 91.2949 18.4821 91.6282C18.7121 91.9582 18.8871 92.3432 19.0071 92.7832C19.1304 93.2232 19.1921 93.6932 19.1921 94.1932C19.1921 94.6932 19.1304 95.1632 19.0071 95.6032C18.8871 96.0399 18.7121 96.4249 18.4821 96.7582C18.2521 97.0916 17.9721 97.3532 17.6421 97.5432C17.3121 97.7299 16.9388 97.8232 16.5221 97.8232ZM16.5221 97.1232C16.9621 97.1232 17.3304 96.9882 17.6271 96.7182C17.9271 96.4482 18.1521 96.0916 18.3021 95.6482C18.4521 95.2016 18.5271 94.7166 18.5271 94.1932C18.5271 93.6399 18.4488 93.1432 18.2921 92.7032C18.1388 92.2599 17.9121 91.9099 17.6121 91.6532C17.3154 91.3932 16.9521 91.2632 16.5221 91.2632C16.1821 91.2632 15.8854 91.3416 15.6321 91.4982C15.3788 91.6549 15.1688 91.8699 15.0021 92.1432C14.8354 92.4166 14.7104 92.7299 14.6271 93.0832C14.5438 93.4332 14.5021 93.8032 14.5021 94.1932C14.5021 94.7199 14.5788 95.2066 14.7321 95.6532C14.8854 96.0966 15.1121 96.4532 15.4121 96.7232C15.7121 96.9899 16.0821 97.1232 16.5221 97.1232Z" fill="#86909C"/>
<path d="M8.65195 68.5665V67.9465C8.92529 67.6932 9.22529 67.4165 9.55195 67.1165C9.87862 66.8132 10.202 66.5015 10.522 66.1815C10.8453 65.8582 11.1403 65.5399 11.407 65.2265C11.6736 64.9099 11.887 64.6115 12.047 64.3315C12.2103 64.0482 12.292 63.7982 12.292 63.5815C12.292 63.3182 12.227 63.0782 12.097 62.8615C11.9703 62.6415 11.7986 62.4665 11.582 62.3365C11.3686 62.2032 11.1303 62.1365 10.867 62.1365C10.6036 62.1365 10.362 62.2032 10.142 62.3365C9.92529 62.4665 9.75195 62.6415 9.62195 62.8615C9.49195 63.0782 9.42695 63.3182 9.42695 63.5815H8.72695C8.72695 63.1815 8.82362 62.8199 9.01695 62.4965C9.21362 62.1732 9.47362 61.9165 9.79695 61.7265C10.1203 61.5332 10.477 61.4365 10.867 61.4365C11.257 61.4365 11.612 61.5332 11.932 61.7265C12.2553 61.9199 12.512 62.1782 12.702 62.5015C12.8953 62.8249 12.992 63.1849 12.992 63.5815C12.992 63.8182 12.9286 64.0782 12.802 64.3615C12.6786 64.6415 12.5103 64.9332 12.297 65.2365C12.0836 65.5365 11.8436 65.8399 11.577 66.1465C11.3103 66.4532 11.032 66.7532 10.742 67.0465C10.452 67.3365 10.1703 67.6099 9.89695 67.8665H13.097V68.5665H8.65195ZM16.4323 68.6965C16.0123 68.6965 15.6373 68.6032 15.3073 68.4165C14.9773 68.2265 14.6956 67.9649 14.4623 67.6315C14.2289 67.2982 14.0506 66.9132 13.9273 66.4765C13.8073 66.0365 13.7473 65.5665 13.7473 65.0665C13.7473 64.5665 13.8073 64.0965 13.9273 63.6565C14.0506 63.2165 14.2289 62.8315 14.4623 62.5015C14.6956 62.1682 14.9773 61.9082 15.3073 61.7215C15.6373 61.5315 16.0123 61.4365 16.4323 61.4365C16.8489 61.4365 17.2223 61.5315 17.5523 61.7215C17.8823 61.9082 18.1623 62.1682 18.3923 62.5015C18.6223 62.8315 18.7973 63.2165 18.9173 63.6565C19.0406 64.0965 19.1023 64.5665 19.1023 65.0665C19.1023 65.5665 19.0406 66.0365 18.9173 66.4765C18.7973 66.9132 18.6223 67.2982 18.3923 67.6315C18.1623 67.9649 17.8823 68.2265 17.5523 68.4165C17.2223 68.6032 16.8489 68.6965 16.4323 68.6965ZM16.4323 67.9965C16.8723 67.9965 17.2406 67.8615 17.5373 67.5915C17.8373 67.3215 18.0623 66.9649 18.2123 66.5215C18.3623 66.0749 18.4373 65.5899 18.4373 65.0665C18.4373 64.5132 18.3589 64.0165 18.2023 63.5765C18.0489 63.1332 17.8223 62.7832 17.5223 62.5265C17.2256 62.2665 16.8623 62.1365 16.4323 62.1365C16.0923 62.1365 15.7956 62.2149 15.5423 62.3715C15.2889 62.5282 15.0789 62.7432 14.9123 63.0165C14.7456 63.2899 14.6206 63.6032 14.5373 63.9565C14.4539 64.3065 14.4123 64.6765 14.4123 65.0665C14.4123 65.5932 14.4889 66.0799 14.6423 66.5265C14.7956 66.9699 15.0223 67.3265 15.3223 67.5965C15.6223 67.8632 15.9923 67.9965 16.4323 67.9965Z" fill="#86909C"/>
<path d="M24.016 42.2947C23.5894 42.2947 23.2144 42.2013 22.891 42.0147C22.5677 41.8247 22.3144 41.5713 22.131 41.2547C21.951 40.938 21.861 40.588 21.861 40.2047H22.561C22.561 40.458 22.6194 40.6913 22.736 40.9047C22.856 41.1147 23.0244 41.283 23.241 41.4097C23.4577 41.533 23.716 41.5947 24.016 41.5947C24.2694 41.5947 24.506 41.533 24.726 41.4097C24.9494 41.283 25.1294 41.1147 25.266 40.9047C25.406 40.6913 25.476 40.458 25.476 40.2047C25.476 39.888 25.396 39.6247 25.236 39.4147C25.076 39.2013 24.856 39.043 24.576 38.9397C24.296 38.833 23.976 38.7797 23.616 38.7797V38.1997C24.1127 38.1997 24.511 38.0947 24.811 37.8847C25.1144 37.6713 25.266 37.3597 25.266 36.9497C25.266 36.7263 25.2044 36.523 25.081 36.3397C24.961 36.1563 24.8027 36.0097 24.606 35.8997C24.4127 35.7863 24.2044 35.7297 23.981 35.7297C23.7577 35.7297 23.5427 35.7863 23.336 35.8997C23.1327 36.0097 22.966 36.1563 22.836 36.3397C22.7094 36.523 22.646 36.7263 22.646 36.9497H21.946C21.946 36.6863 22.001 36.4397 22.111 36.2097C22.221 35.9763 22.371 35.7713 22.561 35.5947C22.751 35.418 22.9677 35.2797 23.211 35.1797C23.4544 35.0797 23.7094 35.0297 23.976 35.0297C24.326 35.0297 24.651 35.1163 24.951 35.2897C25.2544 35.463 25.4994 35.6947 25.686 35.9847C25.8727 36.2747 25.966 36.5963 25.966 36.9497C25.966 37.293 25.8777 37.603 25.701 37.8797C25.5244 38.1563 25.286 38.3513 24.986 38.4647C25.246 38.5513 25.4644 38.683 25.641 38.8597C25.8177 39.033 25.951 39.2347 26.041 39.4647C26.131 39.6947 26.176 39.9413 26.176 40.2047C26.176 40.588 26.076 40.938 25.876 41.2547C25.676 41.5713 25.411 41.8247 25.081 42.0147C24.7544 42.2013 24.3994 42.2947 24.016 42.2947ZM29.4581 42.2947C29.0381 42.2947 28.6631 42.2013 28.3331 42.0147C28.0031 41.8247 27.7215 41.563 27.4881 41.2297C27.2548 40.8963 27.0765 40.5113 26.9531 40.0747C26.8331 39.6347 26.7731 39.1647 26.7731 38.6647C26.7731 38.1647 26.8331 37.6947 26.9531 37.2547C27.0765 36.8147 27.2548 36.4297 27.4881 36.0997C27.7215 35.7663 28.0031 35.5063 28.3331 35.3197C28.6631 35.1297 29.0381 35.0347 29.4581 35.0347C29.8748 35.0347 30.2481 35.1297 30.5781 35.3197C30.9081 35.5063 31.1881 35.7663 31.4181 36.0997C31.6481 36.4297 31.8231 36.8147 31.9431 37.2547C32.0665 37.6947 32.1281 38.1647 32.1281 38.6647C32.1281 39.1647 32.0665 39.6347 31.9431 40.0747C31.8231 40.5113 31.6481 40.8963 31.4181 41.2297C31.1881 41.563 30.9081 41.8247 30.5781 42.0147C30.2481 42.2013 29.8748 42.2947 29.4581 42.2947ZM29.4581 41.5947C29.8981 41.5947 30.2665 41.4597 30.5631 41.1897C30.8631 40.9197 31.0881 40.563 31.2381 40.1197C31.3881 39.673 31.4631 39.188 31.4631 38.6647C31.4631 38.1113 31.3848 37.6147 31.2281 37.1747C31.0748 36.7313 30.8481 36.3813 30.5481 36.1247C30.2515 35.8647 29.8881 35.7347 29.4581 35.7347C29.1181 35.7347 28.8215 35.813 28.5681 35.9697C28.3148 36.1263 28.1048 36.3413 27.9381 36.6147C27.7715 36.888 27.6465 37.2013 27.5631 37.5547C27.4798 37.9047 27.4381 38.2747 27.4381 38.6647C27.4381 39.1913 27.5148 39.678 27.6681 40.1247C27.8215 40.568 28.0481 40.9247 28.3481 41.1947C28.6481 41.4613 29.0181 41.5947 29.4581 41.5947Z" fill="#86909C"/>
<path d="M46.9981 23.8319V21.8669H43.9781V21.1569L46.8181 16.8319H47.6981V21.1669H48.4331V21.8669H47.6981V23.8319H46.9981ZM44.8081 21.1569L46.9981 21.1669L46.9831 17.8319L44.8081 21.1569ZM51.7194 23.9619C51.2994 23.9619 50.9244 23.8686 50.5944 23.6819C50.2644 23.4919 49.9827 23.2302 49.7494 22.8969C49.516 22.5636 49.3377 22.1786 49.2144 21.7419C49.0944 21.3019 49.0344 20.8319 49.0344 20.3319C49.0344 19.8319 49.0944 19.3619 49.2144 18.9219C49.3377 18.4819 49.516 18.0969 49.7494 17.7669C49.9827 17.4336 50.2644 17.1736 50.5944 16.9869C50.9244 16.7969 51.2994 16.7019 51.7194 16.7019C52.136 16.7019 52.5094 16.7969 52.8394 16.9869C53.1694 17.1736 53.4494 17.4336 53.6794 17.7669C53.9094 18.0969 54.0844 18.4819 54.2044 18.9219C54.3277 19.3619 54.3894 19.8319 54.3894 20.3319C54.3894 20.8319 54.3277 21.3019 54.2044 21.7419C54.0844 22.1786 53.9094 22.5636 53.6794 22.8969C53.4494 23.2302 53.1694 23.4919 52.8394 23.6819C52.5094 23.8686 52.136 23.9619 51.7194 23.9619ZM51.7194 23.2619C52.1594 23.2619 52.5277 23.1269 52.8244 22.8569C53.1244 22.5869 53.3494 22.2302 53.4994 21.7869C53.6494 21.3402 53.7244 20.8552 53.7244 20.3319C53.7244 19.7786 53.646 19.2819 53.4894 18.8419C53.336 18.3986 53.1094 18.0486 52.8094 17.7919C52.5127 17.5319 52.1494 17.4019 51.7194 17.4019C51.3794 17.4019 51.0827 17.4802 50.8294 17.6369C50.576 17.7936 50.366 18.0086 50.1994 18.2819C50.0327 18.5552 49.9077 18.8686 49.8244 19.2219C49.741 19.5719 49.6994 19.9419 49.6994 20.3319C49.6994 20.8586 49.776 21.3452 49.9294 21.7919C50.0827 22.2352 50.3094 22.5919 50.6094 22.8619C50.9094 23.1286 51.2794 23.2619 51.7194 23.2619Z" fill="#86909C"/>
<path d="M74.2124 17.4088C73.7857 17.4088 73.3974 17.3055 73.0474 17.0988C72.7007 16.8921 72.4257 16.6155 72.2224 16.2688C72.019 15.9188 71.9174 15.5355 71.9174 15.1188H72.6174C72.6174 15.4088 72.689 15.6755 72.8324 15.9188C72.9757 16.1588 73.1674 16.3505 73.4074 16.4938C73.6507 16.6371 73.919 16.7088 74.2124 16.7088C74.5024 16.7088 74.7674 16.6371 75.0074 16.4938C75.2474 16.3505 75.439 16.1588 75.5824 15.9188C75.729 15.6755 75.8024 15.4088 75.8024 15.1188C75.8024 14.8255 75.7324 14.5588 75.5924 14.3188C75.4557 14.0755 75.2607 13.8821 75.0074 13.7388C74.7574 13.5921 74.459 13.5188 74.1124 13.5188H72.4124L73.0724 10.2788H76.3474V10.9788H73.6374L73.2724 12.8188L74.0874 12.8238C74.564 12.8305 74.9824 12.9321 75.3424 13.1288C75.7057 13.3255 75.989 13.5955 76.1924 13.9388C76.399 14.2788 76.5024 14.6721 76.5024 15.1188C76.5024 15.4321 76.4424 15.7271 76.3224 16.0038C76.2057 16.2805 76.0407 16.5255 75.8274 16.7388C75.6174 16.9488 75.374 17.1138 75.0974 17.2338C74.824 17.3505 74.529 17.4088 74.2124 17.4088ZM79.7868 17.4088C79.3668 17.4088 78.9918 17.3155 78.6618 17.1288C78.3318 16.9388 78.0501 16.6771 77.8168 16.3438C77.5834 16.0105 77.4051 15.6255 77.2818 15.1888C77.1618 14.7488 77.1018 14.2788 77.1018 13.7788C77.1018 13.2788 77.1618 12.8088 77.2818 12.3688C77.4051 11.9288 77.5834 11.5438 77.8168 11.2138C78.0501 10.8805 78.3318 10.6205 78.6618 10.4338C78.9918 10.2438 79.3668 10.1488 79.7868 10.1488C80.2034 10.1488 80.5768 10.2438 80.9068 10.4338C81.2368 10.6205 81.5168 10.8805 81.7468 11.2138C81.9768 11.5438 82.1518 11.9288 82.2718 12.3688C82.3951 12.8088 82.4568 13.2788 82.4568 13.7788C82.4568 14.2788 82.3951 14.7488 82.2718 15.1888C82.1518 15.6255 81.9768 16.0105 81.7468 16.3438C81.5168 16.6771 81.2368 16.9388 80.9068 17.1288C80.5768 17.3155 80.2034 17.4088 79.7868 17.4088ZM79.7868 16.7088C80.2268 16.7088 80.5951 16.5738 80.8918 16.3038C81.1918 16.0338 81.4168 15.6771 81.5668 15.2338C81.7168 14.7871 81.7918 14.3021 81.7918 13.7788C81.7918 13.2255 81.7134 12.7288 81.5568 12.2888C81.4034 11.8455 81.1768 11.4955 80.8768 11.2388C80.5801 10.9788 80.2168 10.8488 79.7868 10.8488C79.4468 10.8488 79.1501 10.9271 78.8968 11.0838C78.6434 11.2405 78.4334 11.4555 78.2668 11.7288C78.1001 12.0021 77.9751 12.3155 77.8918 12.6688C77.8084 13.0188 77.7668 13.3888 77.7668 13.7788C77.7668 14.3055 77.8434 14.7921 77.9968 15.2388C78.1501 15.6821 78.3768 16.0388 78.6768 16.3088C78.9768 16.5755 79.3468 16.7088 79.7868 16.7088Z" fill="#86909C"/>
<path d="M102.539 23.9619C102.099 23.9619 101.696 23.8536 101.329 23.6369C100.966 23.4169 100.674 23.1236 100.454 22.7569C100.237 22.3902 100.129 21.9852 100.129 21.5419C100.129 21.2852 100.159 21.0669 100.219 20.8869C100.279 20.7036 100.367 20.5002 100.484 20.2769L102.469 16.8319H103.284L101.829 19.3519C102.122 19.2386 102.417 19.1886 102.714 19.2019C103.011 19.2119 103.294 19.2769 103.564 19.3969C103.834 19.5169 104.074 19.6819 104.284 19.8919C104.494 20.0986 104.659 20.3419 104.779 20.6219C104.902 20.9019 104.964 21.2086 104.964 21.5419C104.964 21.8752 104.901 22.1886 104.774 22.4819C104.647 22.7719 104.472 23.0286 104.249 23.2519C104.029 23.4719 103.772 23.6452 103.479 23.7719C103.186 23.8986 102.872 23.9619 102.539 23.9619ZM102.539 23.2619C102.872 23.2619 103.169 23.1819 103.429 23.0219C103.689 22.8586 103.892 22.6452 104.039 22.3819C104.189 22.1186 104.264 21.8369 104.264 21.5369C104.264 21.2236 104.187 20.9386 104.034 20.6819C103.881 20.4219 103.674 20.2152 103.414 20.0619C103.154 19.9052 102.866 19.8269 102.549 19.8269C102.222 19.8269 101.929 19.9069 101.669 20.0669C101.409 20.2269 101.204 20.4369 101.054 20.6969C100.904 20.9536 100.829 21.2336 100.829 21.5369C100.829 21.8636 100.907 22.1569 101.064 22.4169C101.224 22.6769 101.434 22.8836 101.694 23.0369C101.954 23.1869 102.236 23.2619 102.539 23.2619ZM108.245 23.9619C107.825 23.9619 107.45 23.8686 107.12 23.6819C106.79 23.4919 106.508 23.2302 106.275 22.8969C106.042 22.5636 105.863 22.1786 105.74 21.7419C105.62 21.3019 105.56 20.8319 105.56 20.3319C105.56 19.8319 105.62 19.3619 105.74 18.9219C105.863 18.4819 106.042 18.0969 106.275 17.7669C106.508 17.4336 106.79 17.1736 107.12 16.9869C107.45 16.7969 107.825 16.7019 108.245 16.7019C108.662 16.7019 109.035 16.7969 109.365 16.9869C109.695 17.1736 109.975 17.4336 110.205 17.7669C110.435 18.0969 110.61 18.4819 110.73 18.9219C110.853 19.3619 110.915 19.8319 110.915 20.3319C110.915 20.8319 110.853 21.3019 110.73 21.7419C110.61 22.1786 110.435 22.5636 110.205 22.8969C109.975 23.2302 109.695 23.4919 109.365 23.6819C109.035 23.8686 108.662 23.9619 108.245 23.9619ZM108.245 23.2619C108.685 23.2619 109.053 23.1269 109.35 22.8569C109.65 22.5869 109.875 22.2302 110.025 21.7869C110.175 21.3402 110.25 20.8552 110.25 20.3319C110.25 19.7786 110.172 19.2819 110.015 18.8419C109.862 18.3986 109.635 18.0486 109.335 17.7919C109.038 17.5319 108.675 17.4019 108.245 17.4019C107.905 17.4019 107.608 17.4802 107.355 17.6369C107.102 17.7936 106.892 18.0086 106.725 18.2819C106.558 18.5552 106.433 18.8686 106.35 19.2219C106.267 19.5719 106.225 19.9419 106.225 20.3319C106.225 20.8586 106.302 21.3452 106.455 21.7919C106.608 22.2352 106.835 22.5919 107.135 22.8619C107.435 23.1286 107.805 23.2619 108.245 23.2619Z" fill="#86909C"/>
<path d="M123.242 42.1647L126.872 35.8647H122.737V35.1647H127.682V35.8647L124.042 42.1647H123.242ZM130.864 42.2947C130.444 42.2947 130.069 42.2013 129.739 42.0147C129.409 41.8247 129.127 41.563 128.894 41.2297C128.661 40.8963 128.482 40.5113 128.359 40.0747C128.239 39.6347 128.179 39.1647 128.179 38.6647C128.179 38.1647 128.239 37.6947 128.359 37.2547C128.482 36.8147 128.661 36.4297 128.894 36.0997C129.127 35.7663 129.409 35.5063 129.739 35.3197C130.069 35.1297 130.444 35.0347 130.864 35.0347C131.281 35.0347 131.654 35.1297 131.984 35.3197C132.314 35.5063 132.594 35.7663 132.824 36.0997C133.054 36.4297 133.229 36.8147 133.349 37.2547C133.472 37.6947 133.534 38.1647 133.534 38.6647C133.534 39.1647 133.472 39.6347 133.349 40.0747C133.229 40.5113 133.054 40.8963 132.824 41.2297C132.594 41.563 132.314 41.8247 131.984 42.0147C131.654 42.2013 131.281 42.2947 130.864 42.2947ZM130.864 41.5947C131.304 41.5947 131.672 41.4597 131.969 41.1897C132.269 40.9197 132.494 40.563 132.644 40.1197C132.794 39.673 132.869 39.188 132.869 38.6647C132.869 38.1113 132.791 37.6147 132.634 37.1747C132.481 36.7313 132.254 36.3813 131.954 36.1247C131.657 35.8647 131.294 35.7347 130.864 35.7347C130.524 35.7347 130.227 35.813 129.974 35.9697C129.721 36.1263 129.511 36.3413 129.344 36.6147C129.177 36.888 129.052 37.2013 128.969 37.5547C128.886 37.9047 128.844 38.2747 128.844 38.6647C128.844 39.1913 128.921 39.678 129.074 40.1247C129.227 40.568 129.454 40.9247 129.754 41.1947C130.054 41.4613 130.424 41.5947 130.864 41.5947Z" fill="#86909C"/>
<path d="M137.518 68.6965C137.108 68.6965 136.733 68.6032 136.393 68.4165C136.057 68.2299 135.788 67.9799 135.588 67.6665C135.388 67.3532 135.288 67.0049 135.288 66.6215C135.288 66.2482 135.392 65.9082 135.598 65.6015C135.805 65.2915 136.073 65.0515 136.403 64.8815C136.13 64.7249 135.905 64.5115 135.728 64.2415C135.552 63.9682 135.463 63.6682 135.463 63.3415C135.463 62.9915 135.555 62.6732 135.738 62.3865C135.925 62.0965 136.173 61.8665 136.483 61.6965C136.797 61.5232 137.142 61.4365 137.518 61.4365C137.895 61.4365 138.238 61.5232 138.548 61.6965C138.862 61.8665 139.11 62.0965 139.293 62.3865C139.48 62.6732 139.573 62.9915 139.573 63.3415C139.573 63.6682 139.485 63.9682 139.308 64.2415C139.135 64.5115 138.91 64.7249 138.633 64.8815C138.97 65.0515 139.24 65.2915 139.443 65.6015C139.65 65.9082 139.753 66.2482 139.753 66.6215C139.753 67.0015 139.652 67.3499 139.448 67.6665C139.248 67.9799 138.98 68.2299 138.643 68.4165C138.307 68.6032 137.932 68.6965 137.518 68.6965ZM137.518 67.9965C137.795 67.9965 138.045 67.9349 138.268 67.8115C138.492 67.6882 138.67 67.5232 138.803 67.3165C138.937 67.1065 139.003 66.8749 139.003 66.6215C139.003 66.3682 138.937 66.1382 138.803 65.9315C138.67 65.7249 138.492 65.5599 138.268 65.4365C138.045 65.3132 137.795 65.2515 137.518 65.2515C137.248 65.2515 137 65.3132 136.773 65.4365C136.55 65.5599 136.37 65.7249 136.233 65.9315C136.1 66.1382 136.033 66.3682 136.033 66.6215C136.033 66.8749 136.1 67.1065 136.233 67.3165C136.37 67.5232 136.55 67.6882 136.773 67.8115C137 67.9349 137.248 67.9965 137.518 67.9965ZM137.518 64.5515C137.762 64.5515 137.982 64.4982 138.178 64.3915C138.375 64.2815 138.532 64.1349 138.648 63.9515C138.768 63.7682 138.828 63.5649 138.828 63.3415C138.828 63.1182 138.768 62.9165 138.648 62.7365C138.532 62.5532 138.375 62.4082 138.178 62.3015C137.982 62.1915 137.762 62.1365 137.518 62.1365C137.278 62.1365 137.058 62.1915 136.858 62.3015C136.662 62.4082 136.503 62.5532 136.383 62.7365C136.267 62.9165 136.208 63.1182 136.208 63.3415C136.208 63.5649 136.267 63.7682 136.383 63.9515C136.503 64.1349 136.662 64.2815 136.858 64.3915C137.058 64.4982 137.278 64.5515 137.518 64.5515ZM143.137 68.6965C142.717 68.6965 142.342 68.6032 142.012 68.4165C141.682 68.2265 141.4 67.9649 141.167 67.6315C140.934 67.2982 140.755 66.9132 140.632 66.4765C140.512 66.0365 140.452 65.5665 140.452 65.0665C140.452 64.5665 140.512 64.0965 140.632 63.6565C140.755 63.2165 140.934 62.8315 141.167 62.5015C141.4 62.1682 141.682 61.9082 142.012 61.7215C142.342 61.5315 142.717 61.4365 143.137 61.4365C143.554 61.4365 143.927 61.5315 144.257 61.7215C144.587 61.9082 144.867 62.1682 145.097 62.5015C145.327 62.8315 145.502 63.2165 145.622 63.6565C145.745 64.0965 145.807 64.5665 145.807 65.0665C145.807 65.5665 145.745 66.0365 145.622 66.4765C145.502 66.9132 145.327 67.2982 145.097 67.6315C144.867 67.9649 144.587 68.2265 144.257 68.4165C143.927 68.6032 143.554 68.6965 143.137 68.6965ZM143.137 67.9965C143.577 67.9965 143.945 67.8615 144.242 67.5915C144.542 67.3215 144.767 66.9649 144.917 66.5215C145.067 66.0749 145.142 65.5899 145.142 65.0665C145.142 64.5132 145.064 64.0165 144.907 63.5765C144.754 63.1332 144.527 62.7832 144.227 62.5265C143.93 62.2665 143.567 62.1365 143.137 62.1365C142.797 62.1365 142.5 62.2149 142.247 62.3715C141.994 62.5282 141.784 62.7432 141.617 63.0165C141.45 63.2899 141.325 63.6032 141.242 63.9565C141.159 64.3065 141.117 64.6765 141.117 65.0665C141.117 65.5932 141.194 66.0799 141.347 66.5265C141.5 66.9699 141.727 67.3265 142.027 67.5965C142.327 67.8632 142.697 67.9965 143.137 67.9965Z" fill="#86909C"/>
<path d="M136.14 97.6932L137.685 95.0182C137.331 95.1516 136.978 95.1932 136.625 95.1432C136.271 95.0899 135.948 94.9632 135.655 94.7632C135.361 94.5599 135.125 94.2999 134.945 93.9832C134.768 93.6632 134.68 93.3032 134.68 92.9032C134.68 92.5832 134.74 92.2816 134.86 91.9982C134.983 91.7149 135.151 91.4666 135.365 91.2532C135.578 91.0366 135.825 90.8682 136.105 90.7482C136.388 90.6249 136.691 90.5632 137.015 90.5632C137.441 90.5632 137.83 90.6699 138.18 90.8832C138.533 91.0932 138.815 91.3749 139.025 91.7282C139.238 92.0816 139.345 92.4732 139.345 92.9032C139.345 93.1466 139.315 93.3566 139.255 93.5332C139.198 93.7066 139.111 93.9016 138.995 94.1182L136.945 97.6932H136.14ZM137.005 94.5432C137.321 94.5432 137.603 94.4682 137.85 94.3182C138.1 94.1649 138.296 93.9632 138.44 93.7132C138.583 93.4632 138.655 93.1949 138.655 92.9082C138.655 92.5949 138.578 92.3149 138.425 92.0682C138.275 91.8182 138.075 91.6216 137.825 91.4782C137.575 91.3316 137.305 91.2582 137.015 91.2582C136.695 91.2582 136.41 91.3349 136.16 91.4882C135.913 91.6416 135.718 91.8449 135.575 92.0982C135.435 92.3482 135.365 92.6182 135.365 92.9082C135.365 93.2082 135.438 93.4832 135.585 93.7332C135.731 93.9799 135.928 94.1766 136.175 94.3232C136.425 94.4699 136.701 94.5432 137.005 94.5432ZM142.628 97.8232C142.208 97.8232 141.833 97.7299 141.503 97.5432C141.173 97.3532 140.892 97.0916 140.658 96.7582C140.425 96.4249 140.247 96.0399 140.123 95.6032C140.003 95.1632 139.943 94.6932 139.943 94.1932C139.943 93.6932 140.003 93.2232 140.123 92.7832C140.247 92.3432 140.425 91.9582 140.658 91.6282C140.892 91.2949 141.173 91.0349 141.503 90.8482C141.833 90.6582 142.208 90.5632 142.628 90.5632C143.045 90.5632 143.418 90.6582 143.748 90.8482C144.078 91.0349 144.358 91.2949 144.588 91.6282C144.818 91.9582 144.993 92.3432 145.113 92.7832C145.237 93.2232 145.298 93.6932 145.298 94.1932C145.298 94.6932 145.237 95.1632 145.113 95.6032C144.993 96.0399 144.818 96.4249 144.588 96.7582C144.358 97.0916 144.078 97.3532 143.748 97.5432C143.418 97.7299 143.045 97.8232 142.628 97.8232ZM142.628 97.1232C143.068 97.1232 143.437 96.9882 143.733 96.7182C144.033 96.4482 144.258 96.0916 144.408 95.6482C144.558 95.2016 144.633 94.7166 144.633 94.1932C144.633 93.6399 144.555 93.1432 144.398 92.7032C144.245 92.2599 144.018 91.9099 143.718 91.6532C143.422 91.3932 143.058 91.2632 142.628 91.2632C142.288 91.2632 141.992 91.3416 141.738 91.4982C141.485 91.6549 141.275 91.8699 141.108 92.1432C140.942 92.4166 140.817 92.7299 140.733 93.0832C140.65 93.4332 140.608 93.8032 140.608 94.1932C140.608 94.7199 140.685 95.2066 140.838 95.6532C140.992 96.0966 141.218 96.4532 141.518 96.7232C141.818 96.9899 142.188 97.1232 142.628 97.1232Z" fill="#86909C"/>
<path d="M122.049 123.649V117.349H121.299L121.499 116.649H122.749V123.649H122.049ZM126.53 123.779C126.11 123.779 125.735 123.686 125.405 123.499C125.075 123.309 124.794 123.048 124.56 122.714C124.327 122.381 124.149 121.996 124.025 121.559C123.905 121.119 123.845 120.649 123.845 120.149C123.845 119.649 123.905 119.179 124.025 118.739C124.149 118.299 124.327 117.914 124.56 117.584C124.794 117.251 125.075 116.991 125.405 116.804C125.735 116.614 126.11 116.519 126.53 116.519C126.947 116.519 127.32 116.614 127.65 116.804C127.98 116.991 128.26 117.251 128.49 117.584C128.72 117.914 128.895 118.299 129.015 118.739C129.139 119.179 129.2 119.649 129.2 120.149C129.2 120.649 129.139 121.119 129.015 121.559C128.895 121.996 128.72 122.381 128.49 122.714C128.26 123.048 127.98 123.309 127.65 123.499C127.32 123.686 126.947 123.779 126.53 123.779ZM126.53 123.079C126.97 123.079 127.339 122.944 127.635 122.674C127.935 122.404 128.16 122.048 128.31 121.604C128.46 121.158 128.535 120.673 128.535 120.149C128.535 119.596 128.457 119.099 128.3 118.659C128.147 118.216 127.92 117.866 127.62 117.609C127.324 117.349 126.96 117.219 126.53 117.219C126.19 117.219 125.894 117.298 125.64 117.454C125.387 117.611 125.177 117.826 125.01 118.099C124.844 118.373 124.719 118.686 124.635 119.039C124.552 119.389 124.51 119.759 124.51 120.149C124.51 120.676 124.587 121.163 124.74 121.609C124.894 122.053 125.12 122.409 125.42 122.679C125.72 122.946 126.09 123.079 126.53 123.079ZM132.39 123.779C131.97 123.779 131.595 123.686 131.265 123.499C130.935 123.309 130.653 123.048 130.42 122.714C130.186 122.381 130.008 121.996 129.885 121.559C129.765 121.119 129.705 120.649 129.705 120.149C129.705 119.649 129.765 119.179 129.885 118.739C130.008 118.299 130.186 117.914 130.42 117.584C130.653 117.251 130.935 116.991 131.265 116.804C131.595 116.614 131.97 116.519 132.39 116.519C132.806 116.519 133.18 116.614 133.51 116.804C133.84 116.991 134.12 117.251 134.35 117.584C134.58 117.914 134.755 118.299 134.875 118.739C134.998 119.179 135.06 119.649 135.06 120.149C135.06 120.649 134.998 121.119 134.875 121.559C134.755 121.996 134.58 122.381 134.35 122.714C134.12 123.048 133.84 123.309 133.51 123.499C133.18 123.686 132.806 123.779 132.39 123.779ZM132.39 123.079C132.83 123.079 133.198 122.944 133.495 122.674C133.795 122.404 134.02 122.048 134.17 121.604C134.32 121.158 134.395 120.673 134.395 120.149C134.395 119.596 134.316 119.099 134.16 118.659C134.006 118.216 133.78 117.866 133.48 117.609C133.183 117.349 132.82 117.219 132.39 117.219C132.05 117.219 131.753 117.298 131.5 117.454C131.246 117.611 131.036 117.826 130.87 118.099C130.703 118.373 130.578 118.686 130.495 119.039C130.411 119.389 130.37 119.759 130.37 120.149C130.37 120.676 130.446 121.163 130.6 121.609C130.753 122.053 130.98 122.409 131.28 122.679C131.58 122.946 131.95 123.079 132.39 123.079Z" fill="#86909C"/>
</svg>
