<svg width="20" height="20" viewBox="0 0 20 20" fill="none" xmlns="http://www.w3.org/2000/svg">
<path d="M0.833252 18.3333H19.1666" stroke="#808D9E" stroke-width="1.5" stroke-miterlimit="10" stroke-linecap="round" stroke-linejoin="round"/>
<path d="M16.4834 18.3417V14.625" stroke="#808D9E" stroke-width="1.5" stroke-miterlimit="10" stroke-linecap="round" stroke-linejoin="round"/>
<path d="M16.5001 9.07501C15.4834 9.07501 14.6667 9.89169 14.6667 10.9084V12.8C14.6667 13.8167 15.4834 14.6333 16.5001 14.6333C17.5168 14.6333 18.3334 13.8167 18.3334 12.8V10.9084C18.3334 9.89169 17.5168 9.07501 16.5001 9.07501Z" stroke="#808D9E" stroke-width="1.5" stroke-miterlimit="10" stroke-linecap="round" stroke-linejoin="round"/>
<path d="M1.75 18.3333V5.02503C1.75 3.35003 2.58338 2.50835 4.24171 2.50835H9.43336C11.0917 2.50835 11.9167 3.35003 11.9167 5.02503V18.3333" stroke="#808D9E" stroke-width="1.5" stroke-miterlimit="10" stroke-linecap="round" stroke-linejoin="round"/>
<path d="M4.83325 6.875H8.95826" stroke="#808D9E" stroke-width="1.5" stroke-miterlimit="10" stroke-linecap="round" stroke-linejoin="round"/>
<path d="M4.83325 10H8.95826" stroke="#808D9E" stroke-width="1.5" stroke-miterlimit="10" stroke-linecap="round" stroke-linejoin="round"/>
<path d="M6.875 18.3333V15.2083" stroke="#808D9E" stroke-width="1.5" stroke-miterlimit="10" stroke-linecap="round" stroke-linejoin="round"/>
</svg>
