<svg width="20" height="20" viewBox="0 0 20 20" fill="none" xmlns="http://www.w3.org/2000/svg">
<path d="M10.8334 18.3333H4.16675C2.50008 18.3333 1.66675 17.5 1.66675 15.8333V9.16667C1.66675 7.50001 2.50008 6.66667 4.16675 6.66667H8.33342V15.8333C8.33342 17.5 9.16675 18.3333 10.8334 18.3333Z" stroke="#7E8CA0" stroke-width="1.5" stroke-miterlimit="10" stroke-linecap="round" stroke-linejoin="round"/>
<path d="M8.42507 3.33333C8.3584 3.58333 8.33341 3.85833 8.33341 4.16666V6.66666H4.16675V4.99999C4.16675 4.08333 4.91675 3.33333 5.83341 3.33333H8.42507Z" stroke="#7E8CA0" stroke-width="1.5" stroke-miterlimit="10" stroke-linecap="round" stroke-linejoin="round"/>
<path d="M11.6667 6.66667V10.8333" stroke="#7E8CA0" stroke-width="1.5" stroke-miterlimit="10" stroke-linecap="round" stroke-linejoin="round"/>
<path d="M15 6.66667V10.8333" stroke="#7E8CA0" stroke-width="1.5" stroke-miterlimit="10" stroke-linecap="round" stroke-linejoin="round"/>
<path d="M14.1667 14.1667H12.5001C12.0417 14.1667 11.6667 14.5417 11.6667 15V18.3333H15.0001V15C15.0001 14.5417 14.6251 14.1667 14.1667 14.1667Z" stroke="#7E8CA0" stroke-width="1.5" stroke-miterlimit="10" stroke-linecap="round" stroke-linejoin="round"/>
<path d="M5 10.8333V14.1667" stroke="#7E8CA0" stroke-width="1.5" stroke-miterlimit="10" stroke-linecap="round" stroke-linejoin="round"/>
<path d="M8.33325 15.8333V4.16667C8.33325 2.50001 9.16659 1.66667 10.8333 1.66667H15.8333C17.4999 1.66667 18.3333 2.50001 18.3333 4.16667V15.8333C18.3333 17.5 17.4999 18.3333 15.8333 18.3333H10.8333C9.16659 18.3333 8.33325 17.5 8.33325 15.8333Z" stroke="#7E8CA0" stroke-width="1.5" stroke-miterlimit="10" stroke-linecap="round" stroke-linejoin="round"/>
</svg>
