<svg width="25" height="17" viewBox="0 0 25 17" fill="none" xmlns="http://www.w3.org/2000/svg">
<g clip-path="url(#clip0_2001_178)">
<path d="M0.843018 0H24.1569V17H0.843018V0Z" fill="#181A93"/>
<path d="M0 0H25V5.66667H0V0Z" fill="#F2B200"/>
<path d="M0 11.3333H25V16.9999H0V11.3333Z" fill="#83BF4F"/>
<path d="M0 5.66675H25V11.3334H0V5.66675Z" fill="white"/>
<path d="M12.3621 10.7615C13.5888 10.7615 14.5833 9.74897 14.5833 8.49999C14.5833 7.25102 13.5888 6.23853 12.3621 6.23853C11.1353 6.23853 10.1409 7.25102 10.1409 8.49999C10.1409 9.74897 11.1353 10.7615 12.3621 10.7615Z" fill="#428BC1"/>
<path d="M12.362 10.4808C13.4364 10.4808 14.3074 9.59395 14.3074 8.50002C14.3074 7.40609 13.4364 6.51929 12.362 6.51929C11.2875 6.51929 10.4165 7.40609 10.4165 8.50002C10.4165 9.59395 11.2875 10.4808 12.362 10.4808Z" fill="white"/>
<path d="M11.64 6.80392C11.7167 6.80392 11.7789 6.74064 11.7789 6.66258C11.7789 6.58452 11.7167 6.52124 11.64 6.52124C11.5634 6.52124 11.5012 6.58452 11.5012 6.66258C11.5012 6.74064 11.5634 6.80392 11.64 6.80392Z" fill="#428BC1"/>
<path d="M11.196 7.05832C11.2726 7.05832 11.3348 6.99504 11.3348 6.91698C11.3348 6.83892 11.2726 6.77563 11.196 6.77563C11.1193 6.77563 11.0571 6.83892 11.0571 6.91698C11.0571 6.99504 11.1193 7.05832 11.196 7.05832Z" fill="#428BC1"/>
<path d="M10.8349 7.42575C10.9115 7.42575 10.9737 7.36247 10.9737 7.28441C10.9737 7.20635 10.9115 7.14307 10.8349 7.14307C10.7582 7.14307 10.696 7.20635 10.696 7.28441C10.696 7.36247 10.7582 7.42575 10.8349 7.42575Z" fill="#428BC1"/>
<path d="M10.5851 7.87814C10.6618 7.87814 10.7239 7.81486 10.7239 7.7368C10.7239 7.65874 10.6618 7.59546 10.5851 7.59546C10.5084 7.59546 10.4463 7.65874 10.4463 7.7368C10.4463 7.81486 10.5084 7.87814 10.5851 7.87814Z" fill="#428BC1"/>
<path d="M10.4462 8.38693C10.5229 8.38693 10.585 8.32365 10.585 8.24559C10.585 8.16753 10.5229 8.10425 10.4462 8.10425C10.3695 8.10425 10.3074 8.16753 10.3074 8.24559C10.3074 8.32365 10.3695 8.38693 10.4462 8.38693Z" fill="#428BC1"/>
<path d="M10.4462 8.89572C10.5229 8.89572 10.585 8.83244 10.585 8.75438C10.585 8.67632 10.5229 8.61304 10.4462 8.61304C10.3695 8.61304 10.3074 8.67632 10.3074 8.75438C10.3074 8.83244 10.3695 8.89572 10.4462 8.89572Z" fill="#428BC1"/>
<path d="M10.5851 9.40475C10.6618 9.40475 10.7239 9.34147 10.7239 9.26341C10.7239 9.18535 10.6618 9.12207 10.5851 9.12207C10.5084 9.12207 10.4463 9.18535 10.4463 9.26341C10.4463 9.34147 10.5084 9.40475 10.5851 9.40475Z" fill="#428BC1"/>
<path d="M10.8349 9.8569C10.9115 9.8569 10.9737 9.79362 10.9737 9.71556C10.9737 9.6375 10.9115 9.57422 10.8349 9.57422C10.7582 9.57422 10.696 9.6375 10.696 9.71556C10.696 9.79362 10.7582 9.8569 10.8349 9.8569Z" fill="#428BC1"/>
<path d="M11.196 10.2243C11.2726 10.2243 11.3348 10.1611 11.3348 10.083C11.3348 10.0049 11.2726 9.94165 11.196 9.94165C11.1193 9.94165 11.0571 10.0049 11.0571 10.083C11.0571 10.1611 11.1193 10.2243 11.196 10.2243Z" fill="#428BC1"/>
<path d="M11.64 10.4787C11.7167 10.4787 11.7789 10.4154 11.7789 10.3374C11.7789 10.2593 11.7167 10.196 11.64 10.196C11.5634 10.196 11.5012 10.2593 11.5012 10.3374C11.5012 10.4154 11.5634 10.4787 11.64 10.4787Z" fill="#428BC1"/>
<path d="M12.1122 10.592C12.1889 10.592 12.251 10.5287 12.251 10.4507C12.251 10.3726 12.1889 10.3093 12.1122 10.3093C12.0355 10.3093 11.9734 10.3726 11.9734 10.4507C11.9734 10.5287 12.0355 10.592 12.1122 10.592Z" fill="#428BC1"/>
<path d="M12.5007 10.4789C12.5007 10.3941 12.5563 10.3376 12.6118 10.3093C12.6951 10.3093 12.7506 10.3659 12.7784 10.4224C12.7784 10.5072 12.7229 10.5637 12.6673 10.592C12.5563 10.6203 12.5007 10.5637 12.5007 10.4789Z" fill="#428BC1"/>
<path d="M13.1117 10.4787C13.1884 10.4787 13.2506 10.4154 13.2506 10.3374C13.2506 10.2593 13.1884 10.196 13.1117 10.196C13.0351 10.196 12.9729 10.2593 12.9729 10.3374C12.9729 10.4154 13.0351 10.4787 13.1117 10.4787Z" fill="#428BC1"/>
<path d="M13.5558 10.2243C13.6325 10.2243 13.6946 10.1611 13.6946 10.083C13.6946 10.0049 13.6325 9.94165 13.5558 9.94165C13.4791 9.94165 13.417 10.0049 13.417 10.083C13.417 10.1611 13.4791 10.2243 13.5558 10.2243Z" fill="#428BC1"/>
<path d="M13.9169 9.8569C13.9936 9.8569 14.0557 9.79362 14.0557 9.71556C14.0557 9.6375 13.9936 9.57422 13.9169 9.57422C13.8402 9.57422 13.7781 9.6375 13.7781 9.71556C13.7781 9.79362 13.8402 9.8569 13.9169 9.8569Z" fill="#428BC1"/>
<path d="M14.1667 9.40475C14.2433 9.40475 14.3055 9.34147 14.3055 9.26341C14.3055 9.18535 14.2433 9.12207 14.1667 9.12207C14.09 9.12207 14.0278 9.18535 14.0278 9.26341C14.0278 9.34147 14.09 9.40475 14.1667 9.40475Z" fill="#428BC1"/>
<path d="M14.3056 8.89572C14.3822 8.89572 14.4444 8.83244 14.4444 8.75438C14.4444 8.67632 14.3822 8.61304 14.3056 8.61304C14.2289 8.61304 14.1667 8.67632 14.1667 8.75438C14.1667 8.83244 14.2289 8.89572 14.3056 8.89572Z" fill="#428BC1"/>
<path d="M14.3055 8.38693C14.2222 8.38693 14.1667 8.33039 14.1389 8.27386C14.1389 8.18905 14.1944 8.13252 14.25 8.10425C14.3333 8.10425 14.3888 8.16078 14.4166 8.21732C14.4443 8.30213 14.3888 8.35866 14.3055 8.38693Z" fill="#428BC1"/>
<path d="M14.1667 7.87814C14.2433 7.87814 14.3055 7.81486 14.3055 7.7368C14.3055 7.65874 14.2433 7.59546 14.1667 7.59546C14.09 7.59546 14.0278 7.65874 14.0278 7.7368C14.0278 7.81486 14.09 7.87814 14.1667 7.87814Z" fill="#428BC1"/>
<path d="M13.9169 7.42575C13.9936 7.42575 14.0557 7.36247 14.0557 7.28441C14.0557 7.20635 13.9936 7.14307 13.9169 7.14307C13.8402 7.14307 13.7781 7.20635 13.7781 7.28441C13.7781 7.36247 13.8402 7.42575 13.9169 7.42575Z" fill="#428BC1"/>
<path d="M13.5558 7.05832C13.6325 7.05832 13.6946 6.99504 13.6946 6.91698C13.6946 6.83892 13.6325 6.77563 13.5558 6.77563C13.4791 6.77563 13.417 6.83892 13.417 6.91698C13.417 6.99504 13.4791 7.05832 13.5558 7.05832Z" fill="#428BC1"/>
<path d="M13.2505 6.71922C13.2227 6.80403 13.1394 6.8323 13.0561 6.80403C12.9728 6.77576 12.945 6.69095 12.9728 6.60615C13.0006 6.52134 13.0839 6.49307 13.1672 6.52134C13.2505 6.57788 13.2782 6.66269 13.2505 6.71922Z" fill="#428BC1"/>
<path d="M12.7507 6.54952C12.7507 6.63433 12.6674 6.69086 12.5841 6.6626C12.5008 6.6626 12.4453 6.57779 12.473 6.49299C12.473 6.40818 12.5563 6.35164 12.6396 6.37991C12.7229 6.40818 12.7785 6.49299 12.7507 6.54952Z" fill="#428BC1"/>
<path d="M12.251 6.52131C12.251 6.60611 12.1955 6.66265 12.14 6.69092C12.0567 6.69092 12.0012 6.63438 11.9734 6.57784C11.9734 6.49304 12.0289 6.4365 12.0844 6.40823C12.1677 6.37996 12.251 6.4365 12.251 6.52131Z" fill="#428BC1"/>
<path d="M12.362 8.92398C12.592 8.92398 12.7785 8.73414 12.7785 8.49995C12.7785 8.26577 12.592 8.07593 12.362 8.07593C12.132 8.07593 11.9456 8.26577 11.9456 8.49995C11.9456 8.73414 12.132 8.92398 12.362 8.92398Z" fill="#428BC1"/>
<path d="M12.3619 6.52124L12.3064 7.73678L12.3619 8.50003L12.4452 7.73678L12.3619 6.52124Z" fill="#428BC1"/>
<path d="M11.8623 6.57788L12.1122 7.79342L12.3621 8.50013L12.251 7.73688L11.8623 6.57788Z" fill="#428BC1"/>
<path d="M11.3901 6.77563L11.9454 7.8781L12.3619 8.5L12.0565 7.7933L11.3901 6.77563Z" fill="#428BC1"/>
<path d="M11.0015 7.08667L11.8067 8.01953L12.362 8.50009L11.8899 7.90645L11.0015 7.08667Z" fill="#428BC1"/>
<path d="M10.696 7.51074L11.6956 8.18918L12.3619 8.50013L11.7511 8.04784L10.696 7.51074Z" fill="#428BC1"/>
<path d="M10.5017 7.99121L11.6401 8.3587L12.362 8.50004L11.6678 8.24563L10.5017 7.99121Z" fill="#428BC1"/>
<path d="M10.4185 8.50014L11.6401 8.55668L12.362 8.50014L11.6401 8.4436L10.4185 8.50014Z" fill="#428BC1"/>
<path d="M10.5017 9.00883L11.6678 8.75442L12.362 8.5L11.6401 8.64134L10.5017 9.00883Z" fill="#428BC1"/>
<path d="M10.696 9.48939L11.7511 8.95229L12.3619 8.5L11.6956 8.81095L10.696 9.48939Z" fill="#428BC1"/>
<path d="M11.0015 9.88515L11.8899 9.09364L12.362 8.5L11.8067 8.98056L11.0015 9.88515Z" fill="#428BC1"/>
<path d="M11.3901 10.2244L12.0565 9.17844L12.3619 8.5L11.9454 9.1219L11.3901 10.2244Z" fill="#428BC1"/>
<path d="M11.8623 10.4222L12.251 9.26325L12.3621 8.5L12.1122 9.20671L11.8623 10.4222Z" fill="#428BC1"/>
<path d="M12.3619 10.4788L12.4452 9.26325L12.3619 8.5L12.3064 9.26325L12.3619 10.4788Z" fill="#428BC1"/>
<path d="M12.8618 10.4222L12.6397 9.20671L12.3621 8.5L12.5009 9.26325L12.8618 10.4222Z" fill="#428BC1"/>
<path d="M13.3338 10.2244L12.8063 9.1219L12.3621 8.5L12.6952 9.20671L13.3338 10.2244Z" fill="#428BC1"/>
<path d="M13.7503 9.88515L12.9451 8.98056L12.3621 8.5L12.8618 9.09364L13.7503 9.88515Z" fill="#428BC1"/>
<path d="M14.0557 9.48939L13.0562 8.81095L12.3621 8.5L12.9729 8.95229L14.0557 9.48939Z" fill="#428BC1"/>
<path d="M14.2501 9.00883L13.1117 8.64134L12.3621 8.5L13.084 8.75442L14.2501 9.00883Z" fill="#428BC1"/>
<path d="M14.3056 8.50009L13.1117 8.41528L12.3621 8.50009L13.1117 8.55663L14.3056 8.50009Z" fill="#428BC1"/>
<path d="M14.2501 7.99121L13.084 8.24563L12.3621 8.50004L13.1117 8.3587L14.2501 7.99121Z" fill="#428BC1"/>
<path d="M14.0557 7.51074L12.9729 8.04784L12.3621 8.50013L13.0562 8.18918L14.0557 7.51074Z" fill="#428BC1"/>
<path d="M13.7503 7.11499L12.8618 7.9065L12.3621 8.50014L12.9451 8.01958L13.7503 7.11499Z" fill="#428BC1"/>
<path d="M13.3338 6.77563L12.6952 7.82156L12.3621 8.5L12.8063 7.8781L13.3338 6.77563Z" fill="#428BC1"/>
<path d="M12.8896 6.57788L12.5009 7.73688L12.3621 8.50013L12.6397 7.79342L12.8896 6.57788Z" fill="#428BC1"/>
<path d="M11.64 6.80392C11.7167 6.80392 11.7789 6.74064 11.7789 6.66258C11.7789 6.58452 11.7167 6.52124 11.64 6.52124C11.5634 6.52124 11.5012 6.58452 11.5012 6.66258C11.5012 6.74064 11.5634 6.80392 11.64 6.80392Z" fill="#428BC1"/>
<path d="M11.196 7.05832C11.2726 7.05832 11.3348 6.99504 11.3348 6.91698C11.3348 6.83892 11.2726 6.77563 11.196 6.77563C11.1193 6.77563 11.0571 6.83892 11.0571 6.91698C11.0571 6.99504 11.1193 7.05832 11.196 7.05832Z" fill="#428BC1"/>
<path d="M10.8349 7.42575C10.9115 7.42575 10.9737 7.36247 10.9737 7.28441C10.9737 7.20635 10.9115 7.14307 10.8349 7.14307C10.7582 7.14307 10.696 7.20635 10.696 7.28441C10.696 7.36247 10.7582 7.42575 10.8349 7.42575Z" fill="#428BC1"/>
<path d="M10.5851 7.87814C10.6618 7.87814 10.7239 7.81486 10.7239 7.7368C10.7239 7.65874 10.6618 7.59546 10.5851 7.59546C10.5084 7.59546 10.4463 7.65874 10.4463 7.7368C10.4463 7.81486 10.5084 7.87814 10.5851 7.87814Z" fill="#428BC1"/>
<path d="M10.4462 8.38693C10.5229 8.38693 10.585 8.32365 10.585 8.24559C10.585 8.16753 10.5229 8.10425 10.4462 8.10425C10.3695 8.10425 10.3074 8.16753 10.3074 8.24559C10.3074 8.32365 10.3695 8.38693 10.4462 8.38693Z" fill="#428BC1"/>
<path d="M10.4462 8.89572C10.5229 8.89572 10.585 8.83244 10.585 8.75438C10.585 8.67632 10.5229 8.61304 10.4462 8.61304C10.3695 8.61304 10.3074 8.67632 10.3074 8.75438C10.3074 8.83244 10.3695 8.89572 10.4462 8.89572Z" fill="#428BC1"/>
<path d="M10.5851 9.40475C10.6618 9.40475 10.7239 9.34147 10.7239 9.26341C10.7239 9.18535 10.6618 9.12207 10.5851 9.12207C10.5084 9.12207 10.4463 9.18535 10.4463 9.26341C10.4463 9.34147 10.5084 9.40475 10.5851 9.40475Z" fill="#428BC1"/>
<path d="M10.8349 9.8569C10.9115 9.8569 10.9737 9.79362 10.9737 9.71556C10.9737 9.6375 10.9115 9.57422 10.8349 9.57422C10.7582 9.57422 10.696 9.6375 10.696 9.71556C10.696 9.79362 10.7582 9.8569 10.8349 9.8569Z" fill="#428BC1"/>
<path d="M11.196 10.2243C11.2726 10.2243 11.3348 10.1611 11.3348 10.083C11.3348 10.0049 11.2726 9.94165 11.196 9.94165C11.1193 9.94165 11.0571 10.0049 11.0571 10.083C11.0571 10.1611 11.1193 10.2243 11.196 10.2243Z" fill="#428BC1"/>
<path d="M11.64 10.4787C11.7167 10.4787 11.7789 10.4154 11.7789 10.3374C11.7789 10.2593 11.7167 10.196 11.64 10.196C11.5634 10.196 11.5012 10.2593 11.5012 10.3374C11.5012 10.4154 11.5634 10.4787 11.64 10.4787Z" fill="#428BC1"/>
<path d="M12.1122 10.592C12.1889 10.592 12.251 10.5287 12.251 10.4507C12.251 10.3726 12.1889 10.3093 12.1122 10.3093C12.0355 10.3093 11.9734 10.3726 11.9734 10.4507C11.9734 10.5287 12.0355 10.592 12.1122 10.592Z" fill="#428BC1"/>
<path d="M12.5007 10.4789C12.5007 10.3941 12.5563 10.3376 12.6118 10.3093C12.6951 10.3093 12.7506 10.3659 12.7784 10.4224C12.7784 10.5072 12.7229 10.5637 12.6673 10.592C12.5563 10.6203 12.5007 10.5637 12.5007 10.4789Z" fill="#428BC1"/>
<path d="M13.1117 10.4787C13.1884 10.4787 13.2506 10.4154 13.2506 10.3374C13.2506 10.2593 13.1884 10.196 13.1117 10.196C13.0351 10.196 12.9729 10.2593 12.9729 10.3374C12.9729 10.4154 13.0351 10.4787 13.1117 10.4787Z" fill="#428BC1"/>
<path d="M13.5558 10.2243C13.6325 10.2243 13.6946 10.1611 13.6946 10.083C13.6946 10.0049 13.6325 9.94165 13.5558 9.94165C13.4791 9.94165 13.417 10.0049 13.417 10.083C13.417 10.1611 13.4791 10.2243 13.5558 10.2243Z" fill="#428BC1"/>
<path d="M13.9169 9.8569C13.9936 9.8569 14.0557 9.79362 14.0557 9.71556C14.0557 9.6375 13.9936 9.57422 13.9169 9.57422C13.8402 9.57422 13.7781 9.6375 13.7781 9.71556C13.7781 9.79362 13.8402 9.8569 13.9169 9.8569Z" fill="#428BC1"/>
<path d="M14.1667 9.40475C14.2433 9.40475 14.3055 9.34147 14.3055 9.26341C14.3055 9.18535 14.2433 9.12207 14.1667 9.12207C14.09 9.12207 14.0278 9.18535 14.0278 9.26341C14.0278 9.34147 14.09 9.40475 14.1667 9.40475Z" fill="#428BC1"/>
<path d="M14.3056 8.89572C14.3822 8.89572 14.4444 8.83244 14.4444 8.75438C14.4444 8.67632 14.3822 8.61304 14.3056 8.61304C14.2289 8.61304 14.1667 8.67632 14.1667 8.75438C14.1667 8.83244 14.2289 8.89572 14.3056 8.89572Z" fill="#428BC1"/>
<path d="M14.3055 8.38693C14.2222 8.38693 14.1667 8.33039 14.1389 8.27386C14.1389 8.18905 14.1944 8.13252 14.25 8.10425C14.3333 8.10425 14.3888 8.16078 14.4166 8.21732C14.4443 8.30213 14.3888 8.35866 14.3055 8.38693Z" fill="#428BC1"/>
<path d="M14.1667 7.87814C14.2433 7.87814 14.3055 7.81486 14.3055 7.7368C14.3055 7.65874 14.2433 7.59546 14.1667 7.59546C14.09 7.59546 14.0278 7.65874 14.0278 7.7368C14.0278 7.81486 14.09 7.87814 14.1667 7.87814Z" fill="#428BC1"/>
<path d="M13.9169 7.42575C13.9936 7.42575 14.0557 7.36247 14.0557 7.28441C14.0557 7.20635 13.9936 7.14307 13.9169 7.14307C13.8402 7.14307 13.7781 7.20635 13.7781 7.28441C13.7781 7.36247 13.8402 7.42575 13.9169 7.42575Z" fill="#428BC1"/>
<path d="M13.5558 7.05832C13.6325 7.05832 13.6946 6.99504 13.6946 6.91698C13.6946 6.83892 13.6325 6.77563 13.5558 6.77563C13.4791 6.77563 13.417 6.83892 13.417 6.91698C13.417 6.99504 13.4791 7.05832 13.5558 7.05832Z" fill="#428BC1"/>
<path d="M13.2505 6.71922C13.2227 6.80403 13.1394 6.8323 13.0561 6.80403C12.9728 6.77576 12.945 6.69095 12.9728 6.60615C13.0006 6.52134 13.0839 6.49307 13.1672 6.52134C13.2505 6.57788 13.2782 6.66269 13.2505 6.71922Z" fill="#428BC1"/>
<path d="M12.7507 6.54952C12.7507 6.63433 12.6674 6.69086 12.5841 6.6626C12.5008 6.6626 12.4453 6.57779 12.473 6.49299C12.473 6.40818 12.5563 6.35164 12.6396 6.37991C12.7229 6.40818 12.7785 6.49299 12.7507 6.54952Z" fill="#428BC1"/>
<path d="M12.251 6.52131C12.251 6.60611 12.1955 6.66265 12.14 6.69092C12.0567 6.69092 12.0012 6.63438 11.9734 6.57784C11.9734 6.49304 12.0289 6.4365 12.0844 6.40823C12.1677 6.37996 12.251 6.4365 12.251 6.52131Z" fill="#428BC1"/>
<path d="M12.362 8.92398C12.592 8.92398 12.7785 8.73414 12.7785 8.49995C12.7785 8.26577 12.592 8.07593 12.362 8.07593C12.132 8.07593 11.9456 8.26577 11.9456 8.49995C11.9456 8.73414 12.132 8.92398 12.362 8.92398Z" fill="#428BC1"/>
<path d="M12.3619 6.52124L12.3064 7.73678L12.3619 8.50003L12.4452 7.73678L12.3619 6.52124Z" fill="#428BC1"/>
<path d="M11.8623 6.57788L12.1122 7.79342L12.3621 8.50013L12.251 7.73688L11.8623 6.57788Z" fill="#428BC1"/>
<path d="M11.3901 6.77563L11.9454 7.8781L12.3619 8.5L12.0565 7.7933L11.3901 6.77563Z" fill="#428BC1"/>
<path d="M11.0015 7.08667L11.8067 8.01953L12.362 8.50009L11.8899 7.90645L11.0015 7.08667Z" fill="#428BC1"/>
<path d="M10.696 7.51074L11.6956 8.18918L12.3619 8.50013L11.7511 8.04784L10.696 7.51074Z" fill="#428BC1"/>
<path d="M10.5017 7.99121L11.6401 8.3587L12.362 8.50004L11.6678 8.24563L10.5017 7.99121Z" fill="#428BC1"/>
<path d="M10.4185 8.50014L11.6401 8.55668L12.362 8.50014L11.6401 8.4436L10.4185 8.50014Z" fill="#428BC1"/>
<path d="M10.5017 9.00883L11.6678 8.75442L12.362 8.5L11.6401 8.64134L10.5017 9.00883Z" fill="#428BC1"/>
<path d="M10.696 9.48939L11.7511 8.95229L12.3619 8.5L11.6956 8.81095L10.696 9.48939Z" fill="#428BC1"/>
<path d="M11.0015 9.88515L11.8899 9.09364L12.362 8.5L11.8067 8.98056L11.0015 9.88515Z" fill="#428BC1"/>
<path d="M11.3901 10.2244L12.0565 9.17844L12.3619 8.5L11.9454 9.1219L11.3901 10.2244Z" fill="#428BC1"/>
<path d="M11.8623 10.4222L12.251 9.26325L12.3621 8.5L12.1122 9.20671L11.8623 10.4222Z" fill="#428BC1"/>
<path d="M12.3619 10.4788L12.4452 9.26325L12.3619 8.5L12.3064 9.26325L12.3619 10.4788Z" fill="#428BC1"/>
<path d="M12.8618 10.4222L12.6397 9.20671L12.3621 8.5L12.5009 9.26325L12.8618 10.4222Z" fill="#428BC1"/>
<path d="M13.3338 10.2244L12.8063 9.1219L12.3621 8.5L12.6952 9.20671L13.3338 10.2244Z" fill="#428BC1"/>
<path d="M13.7503 9.88515L12.9451 8.98056L12.3621 8.5L12.8618 9.09364L13.7503 9.88515Z" fill="#428BC1"/>
<path d="M14.0557 9.48939L13.0562 8.81095L12.3621 8.5L12.9729 8.95229L14.0557 9.48939Z" fill="#428BC1"/>
<path d="M14.2501 9.00883L13.1117 8.64134L12.3621 8.5L13.084 8.75442L14.2501 9.00883Z" fill="#428BC1"/>
<path d="M14.3056 8.50009L13.1117 8.41528L12.3621 8.50009L13.1117 8.55663L14.3056 8.50009Z" fill="#428BC1"/>
<path d="M14.2501 7.99121L13.084 8.24563L12.3621 8.50004L13.1117 8.3587L14.2501 7.99121Z" fill="#428BC1"/>
<path d="M14.0557 7.51074L12.9729 8.04784L12.3621 8.50013L13.0562 8.18918L14.0557 7.51074Z" fill="#428BC1"/>
<path d="M13.7503 7.11499L12.8618 7.9065L12.3621 8.50014L12.9451 8.01958L13.7503 7.11499Z" fill="#428BC1"/>
<path d="M13.3338 6.77563L12.6952 7.82156L12.3621 8.5L12.8063 7.8781L13.3338 6.77563Z" fill="#428BC1"/>
<path d="M12.8896 6.57788L12.5009 7.73688L12.3621 8.50013L12.6397 7.79342L12.8896 6.57788Z" fill="#428BC1"/>
</g>
<defs>
<clipPath id="clip0_2001_178">
<rect width="25" height="17" rx="3" fill="white"/>
</clipPath>
</defs>
</svg>
