<svg width="16" height="20" viewBox="0 0 16 20" fill="none" xmlns="http://www.w3.org/2000/svg">
<path d="M15 5.375V14.125C15 17.625 14.125 18.5 10.625 18.5H5.375C1.875 18.5 1 17.625 1 14.125V5.375C1 1.875 1.875 1 5.375 1H10.625C14.125 1 15 1.875 15 5.375Z" stroke="#7E8CA0" stroke-width="1.5" stroke-linecap="round" stroke-linejoin="round"/>
<path d="M9.75 4.0625H6.25" stroke="#7E8CA0" stroke-width="1.5" stroke-linecap="round" stroke-linejoin="round"/>
<path d="M8.00005 15.9625C8.74909 15.9625 9.3563 15.3553 9.3563 14.6062C9.3563 13.8572 8.74909 13.25 8.00005 13.25C7.25101 13.25 6.6438 13.8572 6.6438 14.6062C6.6438 15.3553 7.25101 15.9625 8.00005 15.9625Z" stroke="#7E8CA0" stroke-width="1.5" stroke-linecap="round" stroke-linejoin="round"/>
</svg>
