<svg width="17" height="20" viewBox="0 0 17 20" fill="none" xmlns="http://www.w3.org/2000/svg">
<path d="M8.64062 4.71542V7.64714" stroke="#292D32" stroke-width="1.30814" stroke-miterlimit="10" stroke-linecap="round"/>
<path d="M8.65756 0.806488C5.49755 0.806488 2.93863 3.43007 2.93863 6.66992V8.51876C2.93863 9.11743 2.6982 10.0154 2.39765 10.5261L1.30711 12.3925C0.637323 13.5458 1.10102 14.8312 2.33754 15.2538C6.44212 16.6536 10.8816 16.6536 14.9862 15.2538C16.1454 14.8576 16.6435 13.4666 16.0166 12.3925L14.9261 10.5261C14.6255 10.0154 14.3851 9.10862 14.3851 8.51876V6.66992C14.3765 3.44768 11.8004 0.806488 8.65756 0.806488Z" fill="#EFF4FF" stroke="#292D32" stroke-width="1.30814" stroke-miterlimit="10" stroke-linecap="round"/>
<path d="M11.4999 15.6148C11.4999 17.2259 10.2119 18.5465 8.64047 18.5465C7.85906 18.5465 7.13775 18.2119 6.62253 17.6837C6.10731 17.1555 5.78101 16.4159 5.78101 15.6148" fill="#EFF4FF"/>
<path d="M11.4999 15.6148C11.4999 17.2259 10.2119 18.5465 8.64047 18.5465C7.85905 18.5465 7.13775 18.2119 6.62253 17.6837C6.10731 17.1555 5.78101 16.4159 5.78101 15.6148" stroke="#292D32" stroke-width="1.30814" stroke-miterlimit="10"/>
</svg>
