<svg width="250" height="320" viewBox="0 0 250 320" fill="none" xmlns="http://www.w3.org/2000/svg">
<g clip-path="url(#clip0_320_13780)">
<path opacity="0.4" d="M120.596 320C167.986 320 206.404 314.889 206.404 308.584C206.404 302.279 167.986 297.167 120.596 297.167C73.2049 297.167 34.787 302.279 34.787 308.584C34.787 314.889 73.2049 320 120.596 320Z" fill="#1061FF"/>
<path d="M117.342 114.106C114.902 103.913 103.109 106.36 98.2285 114.514C95.5526 118.991 94.9751 121.038 89.2817 120.222C84.4015 118.999 83.1815 115.329 77.4881 118.184C67.3212 123.484 73.828 134.085 78.7081 141.016C83.1815 147.132 97.8219 151.209 91.7217 158.548C88.4683 163.033 82.7748 165.888 79.1148 169.557C75.4547 173.227 71.7946 176.896 68.5412 180.566C62.0344 187.905 55.9342 194.836 51.8675 203.398C44.1406 218.892 39.6672 227.454 37.6338 249.879C33.8761 291.312 37.9673 313.86 159.23 307.776C191.764 306.145 219.532 279.7 207.624 240.909C194.611 198.506 146.623 154.063 147.436 146.317C148.25 136.531 162.89 131.639 164.517 121.853C166.55 110.029 157.197 108.806 149.47 114.922C146.216 103.098 138.489 113.699 133.203 116.145C131.576 107.583 121.816 104.729 117.342 114.106Z" fill="white"/>
<path d="M117.83 113.968C117.22 111.538 115.96 109.23 113.739 107.941C111.779 106.808 109.42 106.661 107.249 107.142C104.727 107.697 102.393 109.075 100.522 110.853C98.44 112.826 97.3501 115.362 95.7153 117.67C95.0727 118.575 94.3082 119.342 93.2264 119.668C91.8356 120.092 90.0706 119.969 88.7123 119.537C86.1828 118.73 84.0355 116.634 81.2783 116.618C78.3095 116.602 75.0968 118.575 73.3318 120.899C71.7783 122.946 71.3798 125.49 71.7458 127.985C72.1687 130.848 73.4457 133.547 74.8691 136.042C76.1867 138.342 77.6182 140.829 79.497 142.721C81.3759 144.612 83.5475 145.991 85.6785 147.45C87.8095 148.91 89.9567 150.263 91.5021 152.229C92.9499 154.072 92.9661 156.053 91.559 157.937C89.2817 160.979 86.2804 163.188 83.271 165.447C80.0826 167.836 77.3335 170.593 74.5437 173.439C71.4367 176.611 68.4436 179.881 65.5155 183.224C60.123 189.389 55.0477 195.766 51.4201 203.154C48.7442 208.601 45.9463 213.999 43.6933 219.642C39.2849 230.692 37.6501 242.418 36.7472 254.217C36.3243 259.697 36.064 265.226 36.5114 270.722C36.9018 275.509 37.8697 280.279 39.9437 284.634C42.0178 288.988 45.2305 292.699 49.0939 295.593C54.096 299.336 60.0254 301.726 65.9791 303.463C74.7064 306.015 83.7915 307.263 92.8279 308.078C105.744 309.236 118.749 309.415 131.714 309.228C139.994 309.114 148.274 308.828 156.546 308.437C162.841 308.135 168.99 307.393 175.025 305.477C185.843 302.036 195.725 295.463 202.362 286.151C209.454 276.21 212.016 263.856 210.495 251.812C208.787 238.259 202.598 225.407 195.814 213.722C189.031 202.037 180.963 190.906 172.61 180.174C166.078 171.791 159.14 163.71 152.813 155.164C151.153 152.922 149.266 150.549 148.25 147.915C147.794 146.733 147.908 145.779 148.274 144.506C149.022 141.864 150.787 139.663 152.65 137.714C156.456 133.742 161.434 130.407 163.899 125.335C165.834 121.356 166.428 114.326 161.979 111.725C157.815 109.287 152.455 111.954 149.096 114.579L149.941 114.808C149.388 112.867 148.575 110.526 146.712 109.458C145.362 108.675 143.793 108.912 142.418 109.491C138.896 110.975 136.358 114.09 132.926 115.721L133.674 116.023C132.918 112.263 130.332 108.61 126.362 107.901C122.06 107.134 118.668 110.225 116.887 113.862C116.602 114.449 117.472 114.963 117.765 114.375C119.359 111.122 122.377 108.129 126.281 108.92C129.827 109.638 132.015 112.924 132.69 116.292C132.763 116.642 133.162 116.724 133.439 116.593C136.472 115.15 138.815 112.581 141.735 110.951C142.906 110.298 144.394 109.629 145.745 110.111C147.68 110.804 148.461 113.291 148.965 115.06C149.079 115.46 149.519 115.517 149.811 115.289C153.073 112.745 159.677 109.581 162.923 113.894C164.598 116.12 164.46 119.358 163.972 121.951C163.484 124.544 161.971 126.893 160.206 128.89C156.57 133.025 151.731 136.164 148.795 140.894C147.77 142.541 146.81 144.694 146.908 146.684C146.948 147.548 147.322 148.396 147.697 149.163C149.039 151.935 150.991 154.439 152.845 156.877C155.667 160.603 158.612 164.232 161.54 167.869C169.364 177.589 177.14 187.358 184.281 197.609C192.008 208.707 199.19 220.401 204.249 232.983C209.129 245.101 211.756 258.319 208.299 271.187C205.323 282.269 198.076 291.687 188.543 297.942C183.777 301.073 178.523 303.422 173.049 304.988C166.64 306.822 160.165 307.246 153.536 307.54C138.831 308.184 124.101 308.51 109.388 308.029C98.7979 307.678 88.1674 306.945 77.7158 305.094C70.542 303.821 63.3276 302.052 56.715 298.921C52.0301 296.702 47.6462 293.726 44.3358 289.681C41.4647 286.175 39.6102 281.975 38.5773 277.58C37.4386 272.728 37.2271 267.705 37.3247 262.739C37.4874 254.511 38.2438 246.161 39.6346 238.063C40.6757 232.013 42.2536 226.076 44.4985 220.368C46.7433 214.66 49.4274 209.425 52.1033 204.059C53.9008 200.455 55.8935 197.022 58.2604 193.76C60.6273 190.498 63.3113 187.301 66.0035 184.219C68.834 180.982 71.7132 177.801 74.7227 174.727C77.7321 171.653 80.3917 168.888 83.6695 166.426C86.5081 164.297 89.4931 162.226 91.7136 159.413C93.0068 157.774 94.1536 155.955 93.5029 153.786C92.9092 151.797 91.2012 150.28 89.6314 149.04C87.5736 147.418 85.345 146.039 83.2303 144.498C81.1156 142.957 79.4157 141.204 77.9191 138.978C76.2924 136.556 74.7389 134.028 73.6978 131.288C72.7543 128.809 72.1606 125.987 73.0959 123.411C74.1696 120.459 77.4474 118.135 80.4974 117.694C83.2954 117.295 85.5565 119.488 88.0454 120.385C90.2089 121.16 93.202 121.307 95.1134 119.823C97.0248 118.339 97.9764 115.631 99.416 113.65C101.026 111.423 103.312 109.589 105.89 108.626C107.964 107.844 110.331 107.591 112.43 108.439C114.886 109.442 116.236 111.774 116.854 114.253C117.017 114.889 117.993 114.62 117.838 113.984L117.83 113.968Z" fill="#1F1E21"/>
<path d="M88.8994 148.372C90.0625 147.181 91.7542 146.92 93.2915 146.504C95.1052 146.015 96.9028 145.526 98.7491 145.175C102.824 144.4 106.826 144.213 110.957 144.311C115.089 144.409 119.034 144.4 123.068 144.718C127.103 145.036 131.104 145.501 135.147 145.371C137.204 145.306 139.254 145.102 141.279 144.784C143.483 144.441 145.639 143.862 147.843 143.544C148.486 143.454 148.217 142.468 147.575 142.557C145.614 142.843 143.703 143.348 141.751 143.675C139.693 144.017 137.611 144.245 135.521 144.335C131.421 144.506 127.338 144.05 123.263 143.715C119.189 143.381 115.065 143.389 110.957 143.291C106.85 143.194 102.881 143.373 98.8467 144.123C96.732 144.515 94.6904 145.094 92.6001 145.632C90.9978 146.039 89.3549 146.431 88.1674 147.654C87.7119 148.127 88.4276 148.845 88.8831 148.372H88.8994Z" fill="#1F1E21"/>
<path d="M92.0633 151.764C95.6421 150.924 99.1964 149.897 102.857 149.432C106.517 148.967 110.177 149.154 113.829 149.432C121.222 149.994 128.648 150.068 136.058 149.742C140.043 149.562 144.028 149.505 147.851 148.225C148.469 148.021 148.201 147.034 147.583 147.238C144.085 148.412 140.482 148.502 136.83 148.673C133.178 148.845 129.421 148.894 125.712 148.885C122.003 148.877 118.318 148.747 114.618 148.461C110.917 148.176 107.289 147.931 103.629 148.306C99.6112 148.722 95.7153 149.848 91.7949 150.769C91.1605 150.916 91.4289 151.903 92.0633 151.756V151.764Z" fill="#1F1E21"/>
<path d="M93.4867 156.265C97.1549 156.714 100.782 156.118 104.394 155.466C108.216 154.781 112.007 154.292 115.895 154.414C123.434 154.642 130.86 156.061 138.424 155.515C140.45 155.368 142.475 155.099 144.459 154.675C146.216 154.3 148.388 153.958 149.86 152.865C150.381 152.482 149.876 151.593 149.348 151.984C147.998 152.987 145.989 153.297 144.378 153.648C142.54 154.055 140.677 154.316 138.807 154.463C135.163 154.757 131.495 154.626 127.851 154.357C124.207 154.088 120.392 153.574 116.651 153.411C112.91 153.248 109.534 153.533 106.004 154.137C101.856 154.846 97.7161 155.743 93.4867 155.23C92.836 155.148 92.8441 156.167 93.4867 156.249V156.265Z" fill="#1F1E21"/>
<path d="M91.5346 146.773C92.3236 148.078 93.2833 149.277 93.9747 150.647C94.0967 150.891 94.4464 150.965 94.6742 150.826C94.9263 150.679 94.9832 150.378 94.8531 150.125C94.1618 148.755 93.202 147.556 92.4131 146.251C92.0714 145.689 91.193 146.203 91.5346 146.765V146.773Z" fill="#1F1E21"/>
<path d="M97.7893 145.126C98.2529 146.439 99.2859 147.662 99.351 149.065C99.3672 149.342 99.5787 149.57 99.8552 149.57C100.124 149.57 100.376 149.334 100.36 149.065C100.327 148.257 100.042 147.515 99.7007 146.798C99.3835 146.154 99.0012 145.518 98.7653 144.849C98.6759 144.588 98.4156 144.417 98.1391 144.49C97.8869 144.555 97.6917 144.857 97.7812 145.118L97.7893 145.126Z" fill="#1F1E21"/>
<path d="M103.792 144.457C103.995 145.762 104.573 147.01 104.54 148.347C104.524 149 105.541 149 105.557 148.347C105.597 146.912 104.996 145.583 104.776 144.188C104.735 143.919 104.394 143.764 104.15 143.83C103.857 143.911 103.751 144.18 103.792 144.457Z" fill="#1F1E21"/>
<path d="M93.08 149.962C93.1451 149.945 93.2183 149.929 93.2915 149.921L93.1532 149.937C93.3484 149.913 93.5436 149.897 93.7388 149.856C93.8039 149.839 93.8608 149.807 93.9096 149.766C93.9665 149.733 94.0072 149.685 94.0397 149.619C94.0804 149.562 94.0967 149.497 94.0967 149.432C94.1129 149.366 94.1048 149.293 94.0885 149.228C94.0479 149.106 93.9747 148.983 93.8527 148.926L93.7307 148.877C93.6412 148.853 93.5517 148.853 93.4623 148.877C93.3972 148.894 93.3321 148.902 93.2671 148.91L93.4053 148.894C93.202 148.918 92.9987 148.934 92.8034 148.983C92.7384 149 92.6814 149.032 92.6326 149.073C92.5757 149.106 92.535 149.154 92.5025 149.22C92.4618 149.277 92.4456 149.342 92.4456 149.407C92.4293 149.473 92.4374 149.546 92.4537 149.611C92.4944 149.733 92.5676 149.856 92.6896 149.913C92.8116 149.97 92.9417 149.994 93.08 149.962Z" fill="#1F1E21"/>
<path d="M91.9088 148.641C92.1528 148.592 92.3805 148.486 92.6164 148.437C92.6815 148.421 92.7384 148.388 92.7872 148.347C92.8441 148.315 92.8848 148.266 92.9173 148.2C92.958 148.143 92.9743 148.078 92.9743 148.013C92.9905 147.948 92.9824 147.874 92.9661 147.809C92.9255 147.687 92.8523 147.564 92.7303 147.507L92.6083 147.458C92.5188 147.434 92.4293 147.434 92.3399 147.458C92.0959 147.507 91.8681 147.613 91.6322 147.662C91.5672 147.679 91.5102 147.711 91.4614 147.752C91.4045 147.785 91.3638 147.833 91.3313 147.899C91.2906 147.956 91.2744 148.021 91.2744 148.086C91.2581 148.151 91.2662 148.225 91.2825 148.29C91.3232 148.412 91.3964 148.535 91.5184 148.592L91.6404 148.641C91.7298 148.665 91.8193 148.665 91.9088 148.641Z" fill="#1F1E21"/>
<path d="M98.0252 148.404C98.4156 148.453 98.806 148.453 99.1964 148.453C99.3265 148.453 99.4648 148.396 99.5543 148.306C99.6437 148.217 99.7088 148.07 99.7007 147.948C99.6844 147.67 99.4811 147.442 99.1964 147.442C98.806 147.442 98.4156 147.442 98.0252 147.393C97.9032 147.377 97.7486 147.458 97.6673 147.54C97.5778 147.63 97.5128 147.776 97.5209 147.899C97.529 148.021 97.5697 148.168 97.6673 148.257L97.773 148.339C97.8544 148.388 97.9357 148.404 98.0333 148.412L98.0252 148.404Z" fill="#1F1E21"/>
<path d="M97.6673 146.871C98.0577 146.822 98.4481 146.822 98.8385 146.822C98.9687 146.822 99.107 146.765 99.1964 146.676C99.2859 146.586 99.351 146.439 99.3428 146.317C99.3266 146.039 99.1232 145.803 98.8385 145.811C98.4481 145.811 98.0577 145.811 97.6673 145.86C97.5941 145.86 97.529 145.868 97.4721 145.901C97.407 145.925 97.3582 145.958 97.3094 146.007C97.22 146.097 97.1549 146.243 97.163 146.366C97.1712 146.488 97.2118 146.635 97.3094 146.724C97.3989 146.806 97.5372 146.888 97.6673 146.871Z" fill="#1F1E21"/>
<path d="M103.515 147.483C103.824 147.483 104.125 147.434 104.426 147.434C104.556 147.434 104.695 147.377 104.784 147.287C104.874 147.197 104.939 147.051 104.931 146.928C104.922 146.806 104.882 146.659 104.784 146.57C104.687 146.48 104.565 146.423 104.426 146.423C104.117 146.423 103.816 146.472 103.515 146.472C103.385 146.472 103.247 146.529 103.157 146.618C103.068 146.708 103.003 146.855 103.011 146.977C103.019 147.1 103.06 147.246 103.157 147.336C103.255 147.426 103.377 147.483 103.515 147.483Z" fill="#1F1E21"/>
<path d="M103.109 146.056C103.515 146.105 103.922 146.105 104.329 146.105C104.459 146.105 104.597 146.048 104.687 145.958C104.776 145.868 104.841 145.721 104.833 145.599C104.817 145.322 104.613 145.094 104.329 145.094C103.922 145.094 103.515 145.094 103.109 145.045C102.987 145.028 102.832 145.11 102.751 145.191C102.661 145.281 102.596 145.428 102.604 145.55C102.612 145.673 102.653 145.819 102.751 145.909L102.856 145.991C102.938 146.039 103.019 146.056 103.117 146.064L103.109 146.056Z" fill="#1F1E21"/>
<path d="M110.502 144.156C110.803 145.493 110.689 146.888 110.689 148.249C110.689 148.902 111.706 148.91 111.706 148.249C111.706 146.79 111.803 145.314 111.486 143.887C111.429 143.618 111.12 143.463 110.86 143.528C110.583 143.601 110.445 143.887 110.502 144.156Z" fill="#1F1E21"/>
<path d="M109.884 147.108C110.209 147.173 110.551 147.23 110.884 147.23C111.014 147.23 111.153 147.173 111.242 147.083C111.332 146.994 111.397 146.847 111.389 146.724C111.38 146.602 111.34 146.455 111.242 146.366C111.145 146.276 111.023 146.219 110.884 146.219C110.73 146.219 110.575 146.203 110.421 146.186L110.559 146.203C110.429 146.186 110.291 146.162 110.16 146.137C110.03 146.113 109.892 146.121 109.77 146.186C109.664 146.251 109.567 146.366 109.534 146.488C109.502 146.618 109.51 146.765 109.583 146.879C109.648 146.985 109.754 147.091 109.884 147.116V147.108Z" fill="#1F1E21"/>
<path d="M109.99 145.787C110.242 145.836 110.494 145.885 110.754 145.942C110.892 145.966 111.023 145.958 111.145 145.893C111.25 145.827 111.348 145.713 111.38 145.591C111.413 145.46 111.405 145.314 111.332 145.2C111.267 145.094 111.161 144.988 111.031 144.963C110.779 144.914 110.526 144.865 110.266 144.808C110.128 144.784 109.998 144.792 109.876 144.857C109.77 144.922 109.672 145.036 109.64 145.159C109.607 145.289 109.615 145.436 109.689 145.55C109.754 145.656 109.859 145.762 109.99 145.787Z" fill="#1F1E21"/>
<path d="M116.326 144.376C116.391 145.102 116.488 145.827 116.537 146.553C116.561 146.936 116.578 147.32 116.561 147.703C116.561 147.793 116.553 147.882 116.545 147.972C116.545 148.005 116.545 148.037 116.537 148.07C116.553 147.964 116.529 148.119 116.529 148.127C116.521 148.192 116.505 148.257 116.488 148.323C116.48 148.355 116.407 148.567 116.456 148.445C116.35 148.698 116.383 148.991 116.635 149.146C116.846 149.269 117.22 149.22 117.334 148.967C117.635 148.249 117.619 147.442 117.57 146.684C117.521 145.925 117.424 145.151 117.35 144.376C117.326 144.099 117.131 143.87 116.846 143.87C116.594 143.87 116.309 144.107 116.342 144.376H116.326Z" fill="#1F1E21"/>
<path d="M115.781 147.719C116.065 147.768 116.358 147.825 116.643 147.874C116.708 147.899 116.781 147.899 116.846 147.882C116.911 147.882 116.976 147.858 117.033 147.825C117.139 147.76 117.237 147.646 117.269 147.524C117.302 147.393 117.293 147.246 117.22 147.132C117.155 147.026 117.041 146.92 116.919 146.896C116.635 146.847 116.342 146.79 116.057 146.741C115.992 146.716 115.919 146.716 115.854 146.733C115.789 146.733 115.724 146.757 115.667 146.79C115.561 146.855 115.463 146.969 115.431 147.091C115.398 147.222 115.407 147.369 115.48 147.483C115.545 147.589 115.659 147.695 115.781 147.719Z" fill="#1F1E21"/>
<path d="M115.732 146.088C116.065 146.145 116.399 146.211 116.732 146.211C116.862 146.211 117.001 146.154 117.09 146.064C117.18 145.974 117.245 145.827 117.237 145.705C117.228 145.583 117.188 145.436 117.09 145.346C116.993 145.257 116.871 145.2 116.732 145.2C116.594 145.2 116.456 145.191 116.317 145.167L116.456 145.183C116.309 145.167 116.155 145.134 116.008 145.11C115.943 145.085 115.87 145.085 115.805 145.102C115.74 145.102 115.675 145.126 115.618 145.159C115.512 145.224 115.415 145.338 115.382 145.46C115.35 145.591 115.358 145.738 115.431 145.852C115.496 145.958 115.61 146.064 115.732 146.088Z" fill="#1F1E21"/>
<path d="M121.783 144.767C122.06 146.145 121.921 147.564 121.686 148.934C121.637 149.203 121.759 149.481 122.043 149.562C122.287 149.627 122.621 149.481 122.67 149.203C122.946 147.646 123.085 146.064 122.767 144.498C122.71 144.229 122.393 144.074 122.141 144.139C121.865 144.213 121.734 144.498 121.783 144.767Z" fill="#1F1E21"/>
<path d="M121.612 148.2H122.222C122.353 148.2 122.491 148.143 122.58 148.054C122.629 148.005 122.662 147.956 122.686 147.891C122.719 147.833 122.735 147.768 122.727 147.695C122.727 147.564 122.678 147.426 122.58 147.336C122.483 147.246 122.361 147.189 122.222 147.189H121.612C121.482 147.189 121.344 147.246 121.255 147.336C121.206 147.385 121.173 147.434 121.149 147.499C121.116 147.556 121.1 147.621 121.108 147.695C121.108 147.825 121.157 147.964 121.255 148.054C121.352 148.143 121.474 148.2 121.612 148.2Z" fill="#1F1E21"/>
<path d="M121.271 146.7C121.604 146.765 121.938 146.765 122.271 146.765C122.401 146.765 122.54 146.708 122.629 146.618C122.719 146.529 122.784 146.382 122.775 146.26C122.767 146.137 122.727 145.991 122.629 145.901C122.531 145.811 122.409 145.754 122.271 145.754C122.019 145.754 121.767 145.754 121.523 145.721L121.661 145.738C121.661 145.738 121.58 145.73 121.547 145.721C121.409 145.697 121.279 145.697 121.157 145.77C121.051 145.836 120.954 145.95 120.921 146.072C120.889 146.203 120.897 146.349 120.97 146.463C121.035 146.569 121.149 146.675 121.271 146.7Z" fill="#1F1E21"/>
<path d="M127.355 145.036C127.355 146.39 127.208 147.736 127.013 149.081C126.972 149.35 127.078 149.627 127.371 149.709C127.607 149.774 127.957 149.627 127.997 149.35C128.201 147.915 128.371 146.48 128.371 145.036C128.371 144.384 127.355 144.376 127.355 145.036Z" fill="#1F1E21"/>
<path d="M126.818 148.078C127.111 148.151 127.403 148.151 127.696 148.078C127.761 148.062 127.818 148.029 127.867 147.988C127.924 147.956 127.965 147.907 127.997 147.842C128.038 147.785 128.054 147.719 128.054 147.654C128.07 147.589 128.062 147.515 128.046 147.45C128.005 147.328 127.932 147.206 127.81 147.148C127.688 147.091 127.558 147.067 127.42 147.1C127.371 147.108 127.33 147.124 127.281 147.124L127.42 147.108C127.314 147.124 127.2 147.124 127.094 147.108L127.233 147.124C127.184 147.124 127.135 147.108 127.094 147.1C126.964 147.067 126.818 147.083 126.704 147.148C126.647 147.181 126.598 147.222 126.558 147.279C126.509 147.328 126.484 147.385 126.468 147.45C126.436 147.581 126.444 147.727 126.517 147.842C126.59 147.956 126.688 148.045 126.818 148.078Z" fill="#1F1E21"/>
<path d="M126.761 146.855C127.013 146.904 127.265 146.953 127.525 147.01C127.664 147.034 127.794 147.026 127.916 146.961C128.022 146.896 128.119 146.782 128.152 146.659C128.184 146.529 128.176 146.382 128.103 146.268C128.038 146.162 127.932 146.056 127.802 146.031C127.55 145.982 127.298 145.933 127.037 145.876C126.899 145.852 126.769 145.86 126.647 145.925C126.541 145.991 126.444 146.105 126.411 146.227C126.379 146.357 126.387 146.504 126.46 146.618C126.525 146.724 126.631 146.83 126.761 146.855Z" fill="#1F1E21"/>
<path d="M133.073 145.224C133.3 146.455 133.26 147.744 133.073 148.983C133.032 149.252 133.138 149.53 133.43 149.611C133.674 149.676 134.016 149.53 134.057 149.252C134.276 147.817 134.325 146.382 134.057 144.955C134.008 144.686 133.683 144.531 133.43 144.596C133.146 144.678 133.024 144.955 133.073 145.224Z" fill="#1F1E21"/>
<path d="M132.186 148.2C132.625 148.249 133.064 148.249 133.504 148.249C133.772 148.249 134.024 148.013 134.008 147.744C133.992 147.475 133.788 147.238 133.504 147.238C133.064 147.238 132.625 147.238 132.186 147.189C132.064 147.173 131.909 147.254 131.828 147.336C131.739 147.426 131.674 147.572 131.682 147.695C131.69 147.817 131.73 147.964 131.828 148.054L131.934 148.135C132.015 148.184 132.096 148.2 132.194 148.209L132.186 148.2Z" fill="#1F1E21"/>
<path d="M132.389 146.928H133.406C133.536 146.928 133.674 146.871 133.764 146.782C133.853 146.692 133.918 146.545 133.91 146.423C133.902 146.3 133.861 146.154 133.764 146.064C133.666 145.974 133.544 145.917 133.406 145.917H132.389C132.259 145.917 132.121 145.974 132.031 146.064C131.942 146.154 131.877 146.3 131.885 146.423C131.893 146.545 131.934 146.692 132.031 146.782C132.129 146.871 132.251 146.928 132.389 146.928Z" fill="#1F1E21"/>
<path d="M138.457 145.175C138.864 146.431 138.79 147.711 138.506 148.983C138.449 149.252 138.587 149.538 138.864 149.611C139.116 149.685 139.433 149.521 139.49 149.252C139.807 147.809 139.905 146.333 139.441 144.906C139.36 144.645 139.091 144.474 138.815 144.547C138.563 144.621 138.376 144.914 138.457 145.175Z" fill="#1F1E21"/>
<path d="M138.132 147.891C138.457 147.891 138.774 147.842 139.099 147.842C139.23 147.842 139.368 147.785 139.457 147.695C139.547 147.605 139.612 147.458 139.604 147.336C139.596 147.214 139.555 147.067 139.457 146.977C139.36 146.888 139.238 146.83 139.099 146.83C138.774 146.83 138.457 146.879 138.132 146.879C138.001 146.879 137.863 146.936 137.774 147.026C137.684 147.116 137.619 147.263 137.627 147.385C137.635 147.507 137.676 147.654 137.774 147.744C137.871 147.833 137.993 147.891 138.132 147.891Z" fill="#1F1E21"/>
<path d="M138.115 146.651C138.115 146.651 138.14 146.651 138.156 146.651L138.018 146.667C138.327 146.627 138.644 146.627 138.953 146.667L138.815 146.651C138.815 146.651 138.839 146.651 138.855 146.651C138.921 146.675 138.994 146.676 139.059 146.659C139.124 146.659 139.189 146.635 139.246 146.602C139.352 146.537 139.449 146.423 139.482 146.3C139.514 146.17 139.506 146.023 139.433 145.909C139.368 145.803 139.254 145.689 139.132 145.672C138.921 145.64 138.701 145.615 138.489 145.615C138.278 145.615 138.058 145.64 137.847 145.672C137.733 145.689 137.603 145.811 137.546 145.909C137.481 146.015 137.457 146.178 137.497 146.3C137.538 146.423 137.611 146.545 137.733 146.602L137.855 146.651C137.945 146.675 138.034 146.675 138.123 146.651H138.115Z" fill="#1F1E21"/>
<path d="M143.386 144.327C143.939 145.55 143.915 146.871 143.687 148.168C143.638 148.437 143.76 148.714 144.045 148.796C144.289 148.861 144.622 148.714 144.671 148.437C144.801 147.679 144.899 146.904 144.85 146.129C144.801 145.314 144.598 144.555 144.264 143.813C144.15 143.56 143.793 143.503 143.565 143.634C143.304 143.781 143.272 144.082 143.386 144.335V144.327Z" fill="#1F1E21"/>
<path d="M143.475 147.434C143.711 147.434 143.947 147.385 144.191 147.385C144.321 147.385 144.459 147.328 144.549 147.238C144.598 147.189 144.63 147.14 144.655 147.075C144.687 147.018 144.703 146.953 144.695 146.879C144.695 146.749 144.647 146.61 144.549 146.521C144.451 146.431 144.329 146.374 144.191 146.374C143.955 146.374 143.719 146.423 143.475 146.423C143.345 146.423 143.207 146.48 143.117 146.57C143.069 146.618 143.036 146.667 143.012 146.733C142.979 146.79 142.963 146.855 142.971 146.928C142.971 147.059 143.02 147.197 143.117 147.287C143.215 147.377 143.337 147.434 143.475 147.434Z" fill="#1F1E21"/>
<path d="M143.248 145.787C143.524 145.73 143.801 145.689 144.061 145.583C144.126 145.566 144.183 145.534 144.232 145.493C144.289 145.46 144.329 145.412 144.362 145.346C144.427 145.24 144.451 145.077 144.411 144.955C144.37 144.833 144.297 144.71 144.175 144.653C144.053 144.596 143.906 144.555 143.784 144.604C143.524 144.71 143.248 144.751 142.971 144.808C142.849 144.833 142.727 144.939 142.67 145.045C142.605 145.151 142.581 145.314 142.621 145.436C142.662 145.558 142.735 145.681 142.857 145.738L142.979 145.787C143.069 145.811 143.158 145.811 143.248 145.787Z" fill="#1F1E21"/>
<path d="M96.1138 150.851C97.0492 152.261 97.0573 154.055 97.0573 155.686C97.0573 156.339 98.074 156.347 98.074 155.686C98.074 153.876 98.0252 151.894 96.9841 150.329C96.6262 149.782 95.7397 150.296 96.1057 150.842L96.1138 150.851Z" fill="#1F1E21"/>
<path d="M95.943 153.55C96.3985 153.501 96.8539 153.501 97.3176 153.501C97.586 153.501 97.8381 153.264 97.8218 152.995C97.8056 152.726 97.6022 152.482 97.3176 152.49C96.8621 152.49 96.3985 152.49 95.943 152.539C95.8047 152.555 95.6827 152.588 95.5851 152.685C95.4956 152.775 95.4306 152.922 95.4387 153.044C95.4468 153.167 95.4875 153.313 95.5851 153.403C95.6746 153.493 95.8128 153.566 95.943 153.55Z" fill="#1F1E21"/>
<path d="M95.8698 152.31C96.1138 152.278 96.3578 152.237 96.6018 152.204L96.4635 152.221C96.5937 152.204 96.7238 152.188 96.8458 152.172C96.919 152.172 96.9841 152.163 97.041 152.131C97.1061 152.106 97.1549 152.074 97.2037 152.025C97.2932 151.935 97.3582 151.788 97.3501 151.666C97.342 151.544 97.3013 151.397 97.2037 151.307C97.1142 151.226 96.976 151.144 96.8458 151.16C96.431 151.209 96.0081 151.275 95.5933 151.332C95.4794 151.348 95.3493 151.47 95.2923 151.568C95.2273 151.674 95.2028 151.837 95.2435 151.96C95.2842 152.082 95.3574 152.204 95.4794 152.261L95.6014 152.31C95.6909 152.335 95.7803 152.335 95.8698 152.31Z" fill="#1F1E21"/>
<path d="M101.401 149.611C102.108 151.389 102.092 153.256 101.994 155.132C101.962 155.784 102.978 155.784 103.011 155.132C103.117 153.167 103.117 151.193 102.385 149.342C102.287 149.089 102.043 148.91 101.758 148.983C101.514 149.048 101.303 149.35 101.401 149.611Z" fill="#1F1E21"/>
<path d="M100.823 153.958C101.376 154.015 101.954 153.957 102.482 153.786C102.604 153.745 102.718 153.672 102.783 153.55C102.848 153.444 102.873 153.281 102.832 153.158C102.751 152.906 102.474 152.71 102.206 152.8C102.011 152.865 101.807 152.906 101.596 152.938L101.734 152.922C101.433 152.963 101.124 152.971 100.815 152.938C100.693 152.93 100.538 153.003 100.457 153.085C100.368 153.175 100.303 153.321 100.311 153.444C100.319 153.566 100.359 153.713 100.457 153.803C100.555 153.892 100.677 153.941 100.815 153.949L100.823 153.958Z" fill="#1F1E21"/>
<path d="M101.181 152.172C101.604 152.172 102.027 152.074 102.45 152.074C102.718 152.074 102.97 151.837 102.954 151.568C102.938 151.299 102.734 151.054 102.45 151.063C102.027 151.063 101.604 151.16 101.181 151.16C100.913 151.16 100.66 151.397 100.677 151.666C100.693 151.935 100.896 152.18 101.181 152.172Z" fill="#1F1E21"/>
<path d="M107.249 148.942C107.574 149.758 107.688 150.582 107.672 151.454C107.655 152.327 107.541 153.183 107.541 154.055C107.541 154.708 108.558 154.716 108.558 154.055C108.558 153.158 108.68 152.27 108.696 151.364C108.713 150.459 108.591 149.521 108.241 148.665C108.135 148.412 107.899 148.233 107.615 148.306C107.371 148.372 107.159 148.673 107.257 148.934L107.249 148.942Z" fill="#1F1E21"/>
<path d="M106.614 153.044C107.037 153.044 107.452 153.036 107.867 152.979C107.981 152.963 108.111 152.84 108.168 152.742C108.233 152.636 108.257 152.473 108.216 152.351C108.176 152.229 108.103 152.106 107.981 152.049L107.859 152C107.769 151.976 107.68 151.976 107.59 152H107.574C107.623 152 107.663 151.992 107.712 151.984C107.346 152.033 106.98 152.033 106.614 152.033C106.484 152.033 106.346 152.09 106.256 152.18C106.167 152.27 106.102 152.416 106.11 152.539C106.118 152.661 106.159 152.808 106.256 152.897C106.354 152.987 106.476 153.044 106.614 153.044Z" fill="#1F1E21"/>
<path d="M106.972 151.356H107.785C107.916 151.356 108.054 151.299 108.143 151.209C108.233 151.12 108.298 150.973 108.29 150.851C108.282 150.728 108.241 150.582 108.143 150.492C108.046 150.402 107.924 150.345 107.785 150.345H106.972C106.842 150.345 106.704 150.402 106.614 150.492C106.525 150.582 106.46 150.728 106.468 150.851C106.476 150.973 106.517 151.12 106.614 151.209C106.712 151.299 106.834 151.356 106.972 151.356Z" fill="#1F1E21"/>
<path d="M113.804 149.554C113.991 150.883 113.991 152.27 113.601 153.566C113.414 154.194 114.39 154.463 114.585 153.835C115.032 152.359 115 150.794 114.788 149.285C114.748 149.016 114.406 148.861 114.162 148.926C113.869 149.008 113.772 149.277 113.804 149.554Z" fill="#1F1E21"/>
<path d="M112.975 152.734L114.195 152.889C114.317 152.906 114.471 152.824 114.552 152.742C114.642 152.653 114.707 152.506 114.699 152.384C114.691 152.261 114.65 152.115 114.552 152.025L114.447 151.943C114.365 151.894 114.284 151.878 114.186 151.87L112.966 151.715C112.844 151.699 112.69 151.78 112.609 151.862C112.519 151.951 112.454 152.098 112.462 152.221C112.47 152.343 112.511 152.49 112.609 152.579L112.714 152.661C112.796 152.71 112.877 152.726 112.975 152.734Z" fill="#1F1E21"/>
<path d="M113.414 151.593C113.414 151.593 113.438 151.593 113.454 151.593L113.316 151.609C113.625 151.568 113.942 151.568 114.252 151.609L114.113 151.593C114.113 151.593 114.138 151.593 114.154 151.593C114.219 151.617 114.292 151.617 114.357 151.601C114.422 151.601 114.487 151.576 114.544 151.544C114.65 151.479 114.748 151.364 114.78 151.242C114.813 151.112 114.805 150.965 114.731 150.851C114.666 150.745 114.552 150.63 114.43 150.614C114.219 150.582 113.999 150.557 113.788 150.557C113.576 150.557 113.357 150.582 113.145 150.614C113.032 150.63 112.901 150.753 112.844 150.851C112.779 150.957 112.755 151.12 112.796 151.242C112.836 151.364 112.91 151.487 113.032 151.544L113.154 151.593C113.243 151.617 113.332 151.617 113.422 151.593H113.414Z" fill="#1F1E21"/>
<path d="M119.246 149.913C119.49 151.193 119.49 152.588 119.042 153.819C118.945 154.08 119.148 154.373 119.4 154.447C119.685 154.528 119.929 154.349 120.026 154.088C120.539 152.685 120.498 151.087 120.23 149.636C120.181 149.367 119.856 149.212 119.603 149.277C119.319 149.358 119.197 149.636 119.246 149.905V149.913Z" fill="#1F1E21"/>
<path d="M118.579 152.767C118.896 152.832 119.213 152.832 119.53 152.832C119.66 152.832 119.799 152.775 119.888 152.685C119.978 152.596 120.043 152.449 120.034 152.327C120.026 152.204 119.986 152.057 119.888 151.968C119.79 151.878 119.668 151.821 119.53 151.821C119.302 151.821 119.067 151.821 118.839 151.788L118.977 151.805C118.936 151.805 118.896 151.788 118.855 151.788C118.79 151.764 118.717 151.764 118.652 151.78C118.587 151.78 118.522 151.805 118.465 151.837C118.359 151.903 118.261 152.017 118.229 152.139C118.196 152.27 118.204 152.416 118.278 152.53C118.343 152.636 118.457 152.742 118.579 152.767Z" fill="#1F1E21"/>
<path d="M118.562 151.511H119.376C119.506 151.511 119.644 151.454 119.734 151.364C119.823 151.275 119.888 151.128 119.88 151.006C119.872 150.883 119.831 150.736 119.734 150.647C119.636 150.557 119.514 150.5 119.376 150.5H118.562C118.432 150.5 118.294 150.557 118.204 150.647C118.115 150.736 118.05 150.883 118.058 151.006C118.066 151.128 118.107 151.275 118.204 151.364C118.302 151.454 118.424 151.511 118.562 151.511Z" fill="#1F1E21"/>
<path d="M125.321 149.782C125.411 151.209 125.297 152.694 124.679 154.006C124.565 154.251 124.614 154.553 124.858 154.708C125.077 154.838 125.435 154.773 125.557 154.528C126.257 153.052 126.444 151.405 126.338 149.782C126.322 149.505 126.118 149.277 125.834 149.277C125.573 149.277 125.305 149.513 125.329 149.782H125.321Z" fill="#1F1E21"/>
<path d="M124.475 153.175C124.614 153.207 124.76 153.224 124.906 153.24C124.996 153.24 125.085 153.24 125.175 153.24C125.248 153.24 125.313 153.232 125.37 153.199C125.435 153.175 125.484 153.142 125.533 153.093C125.582 153.044 125.614 152.995 125.638 152.93C125.671 152.873 125.687 152.808 125.679 152.734L125.663 152.596C125.638 152.506 125.598 152.433 125.533 152.367C125.435 152.278 125.313 152.221 125.175 152.221C125.045 152.221 124.915 152.221 124.784 152.204L124.923 152.221C124.866 152.221 124.809 152.204 124.752 152.188C124.622 152.155 124.475 152.172 124.362 152.237C124.305 152.27 124.256 152.31 124.215 152.367C124.166 152.416 124.142 152.473 124.126 152.539L124.109 152.677C124.109 152.767 124.134 152.857 124.183 152.938C124.256 153.044 124.353 153.142 124.484 153.175H124.475Z" fill="#1F1E21"/>
<path d="M124.711 151.919H125.37C125.5 151.919 125.638 151.862 125.728 151.772C125.777 151.723 125.809 151.674 125.834 151.609C125.866 151.552 125.882 151.487 125.874 151.413C125.874 151.283 125.826 151.144 125.728 151.054C125.63 150.965 125.508 150.908 125.37 150.908H124.711C124.581 150.908 124.443 150.965 124.353 151.054C124.305 151.103 124.272 151.152 124.248 151.218C124.215 151.275 124.199 151.34 124.207 151.413C124.207 151.544 124.256 151.682 124.353 151.772C124.451 151.862 124.573 151.919 124.711 151.919Z" fill="#1F1E21"/>
<path d="M130.527 150.019C130.787 150.802 130.893 151.593 130.836 152.416C130.779 153.24 130.608 153.974 130.421 154.74C130.266 155.376 131.251 155.654 131.405 155.009C131.608 154.153 131.804 153.297 131.853 152.416C131.901 151.536 131.787 150.606 131.503 149.742C131.299 149.122 130.315 149.391 130.519 150.011L130.527 150.019Z" fill="#1F1E21"/>
<path d="M130.071 153.892C130.275 153.925 130.478 153.949 130.681 153.941C130.876 153.941 131.072 153.909 131.259 153.843C131.324 153.827 131.381 153.794 131.43 153.754C131.486 153.721 131.527 153.672 131.56 153.607C131.625 153.501 131.649 153.338 131.608 153.215C131.568 153.093 131.495 152.971 131.373 152.914C131.251 152.857 131.104 152.816 130.982 152.865C130.893 152.897 130.803 152.922 130.706 152.93L130.844 152.914C130.657 152.938 130.47 152.93 130.283 152.914L130.421 152.93C130.421 152.93 130.372 152.93 130.348 152.922C130.283 152.897 130.21 152.897 130.144 152.914C130.079 152.914 130.014 152.938 129.957 152.971C129.852 153.036 129.754 153.15 129.722 153.273C129.689 153.403 129.697 153.55 129.77 153.664C129.835 153.77 129.949 153.876 130.071 153.9V153.892Z" fill="#1F1E21"/>
<path d="M130.014 152.155C130.364 152.212 130.714 152.221 131.064 152.221C131.194 152.221 131.332 152.164 131.421 152.074C131.511 151.984 131.576 151.837 131.568 151.715C131.56 151.593 131.519 151.446 131.421 151.356C131.324 151.267 131.202 151.209 131.064 151.209C130.787 151.209 130.51 151.209 130.242 151.169L130.38 151.185C130.38 151.185 130.323 151.177 130.291 151.169C130.226 151.144 130.153 151.144 130.088 151.16C130.022 151.16 129.957 151.185 129.9 151.218C129.795 151.283 129.697 151.397 129.665 151.519C129.632 151.65 129.64 151.797 129.713 151.911C129.778 152.017 129.892 152.123 130.014 152.147V152.155Z" fill="#1F1E21"/>
<path d="M136.472 149.766C136.806 150.565 136.879 151.438 136.83 152.294C136.79 153.077 136.635 153.925 136.318 154.626C136.204 154.879 136.245 155.173 136.497 155.327C136.716 155.458 137.082 155.393 137.196 155.148C137.587 154.276 137.782 153.33 137.839 152.384C137.896 151.438 137.822 150.402 137.448 149.505C137.343 149.252 137.115 149.073 136.822 149.146C136.586 149.212 136.358 149.521 136.464 149.774L136.472 149.766Z" fill="#1F1E21"/>
<path d="M136.114 153.835C136.342 153.876 136.562 153.884 136.781 153.835C136.887 153.811 136.993 153.762 137.09 153.713C137.188 153.664 137.286 153.591 137.367 153.509C137.456 153.419 137.513 153.281 137.513 153.15C137.513 153.02 137.456 152.873 137.367 152.791C137.278 152.71 137.139 152.636 137.009 152.645C136.879 152.653 136.749 152.694 136.651 152.791C136.627 152.816 136.602 152.832 136.578 152.857L136.684 152.775C136.635 152.816 136.586 152.84 136.529 152.865L136.651 152.816C136.578 152.848 136.513 152.865 136.432 152.873L136.57 152.857C136.489 152.865 136.399 152.865 136.318 152.857L136.456 152.873C136.456 152.873 136.415 152.873 136.391 152.865C136.326 152.84 136.253 152.84 136.188 152.857C136.123 152.857 136.058 152.881 136.001 152.914C135.895 152.979 135.797 153.093 135.765 153.215C135.732 153.346 135.74 153.493 135.814 153.607C135.879 153.713 135.992 153.819 136.114 153.843V153.835Z" fill="#1F1E21"/>
<path d="M136.236 152.204C136.236 152.204 136.261 152.204 136.277 152.204L136.139 152.221C136.448 152.18 136.765 152.18 137.074 152.221L136.936 152.204C136.936 152.204 136.96 152.204 136.977 152.204C137.042 152.229 137.115 152.229 137.18 152.212C137.245 152.212 137.31 152.188 137.367 152.155C137.473 152.09 137.57 151.976 137.603 151.854C137.635 151.723 137.627 151.576 137.554 151.462C137.489 151.356 137.375 151.242 137.253 151.226C137.042 151.193 136.822 151.169 136.611 151.169C136.399 151.169 136.18 151.193 135.968 151.226C135.854 151.242 135.724 151.364 135.667 151.462C135.602 151.568 135.578 151.731 135.618 151.854C135.659 151.976 135.732 152.098 135.854 152.155L135.976 152.204C136.066 152.229 136.155 152.229 136.245 152.204H136.236Z" fill="#1F1E21"/>
<path d="M141.71 149.676C142.158 150.321 142.385 151.071 142.54 151.845C142.613 152.229 142.646 152.62 142.638 153.028C142.638 153.24 142.621 153.338 142.581 153.525C142.532 153.729 142.507 153.819 142.426 153.957C142.109 154.536 142.987 155.05 143.304 154.471C143.76 153.639 143.703 152.612 143.548 151.707C143.394 150.802 143.109 149.897 142.597 149.163C142.442 148.934 142.15 148.836 141.897 148.983C141.678 149.114 141.556 149.456 141.718 149.685L141.71 149.676Z" fill="#1F1E21"/>
<path d="M141.727 151.495C141.906 151.47 142.084 151.413 142.263 151.389L142.125 151.405C142.19 151.397 142.263 151.397 142.328 151.405L142.19 151.389C142.19 151.389 142.263 151.405 142.304 151.421L142.182 151.373C142.182 151.373 142.223 151.389 142.239 151.405C142.353 151.47 142.499 151.495 142.629 151.454C142.743 151.421 142.873 151.332 142.93 151.218C142.995 151.095 143.028 150.957 142.979 150.826C142.93 150.696 142.865 150.59 142.743 150.524C142.605 150.443 142.467 150.41 142.304 150.394C142.19 150.378 142.068 150.394 141.954 150.418C141.784 150.443 141.613 150.5 141.434 150.524C141.32 150.541 141.19 150.663 141.133 150.761C141.068 150.867 141.043 151.03 141.084 151.152C141.125 151.275 141.198 151.397 141.32 151.454L141.442 151.503C141.531 151.527 141.621 151.527 141.71 151.503L141.727 151.495Z" fill="#1F1E21"/>
<path d="M142.182 152.873C142.605 152.767 143.02 152.636 143.418 152.465C143.524 152.416 143.622 152.27 143.654 152.164C143.687 152.041 143.67 151.878 143.605 151.772C143.54 151.666 143.435 151.568 143.304 151.536L143.166 151.519C143.077 151.519 142.987 151.544 142.906 151.593H142.89C142.89 151.593 142.971 151.568 143.012 151.552C142.654 151.699 142.288 151.805 141.914 151.903C141.792 151.935 141.67 152.025 141.613 152.139C141.556 152.253 141.523 152.408 141.564 152.53C141.653 152.8 141.914 152.954 142.19 152.889L142.182 152.873Z" fill="#1F1E21"/>
<path d="M146.704 150.321C147.144 150.223 147.542 150.011 147.973 149.913C148.233 149.856 148.412 149.538 148.331 149.285C148.242 149.016 147.981 148.869 147.705 148.926C147.266 149.024 146.867 149.236 146.436 149.334C146.176 149.391 145.997 149.709 146.078 149.962C146.168 150.231 146.428 150.378 146.704 150.321Z" fill="#1F1E21"/>
<path d="M147.623 151.593C148.103 151.43 148.567 151.193 149.047 151.03C149.169 150.989 149.283 150.916 149.348 150.794C149.413 150.688 149.437 150.524 149.397 150.402C149.315 150.149 149.039 149.954 148.77 150.043C148.29 150.206 147.827 150.443 147.347 150.606C147.225 150.647 147.111 150.72 147.046 150.842C146.981 150.948 146.956 151.112 146.997 151.234C147.078 151.487 147.355 151.682 147.623 151.593Z" fill="#1F1E21"/>
<path d="M147.843 147.687C150.08 142.639 155.57 139.377 160.653 137.999C163.655 137.184 166.705 136.874 169.503 138.562C171.178 139.475 171.991 141.057 171.788 142.998C171.333 147.026 166.501 149.57 163.093 150.647C160.149 151.568 157.091 151.87 153.992 151.87C152.723 151.87 151.251 151.715 150.08 152.025M149.47 150.337C150.08 150.133 150.787 150.027 151.454 149.88C154.301 149.22 157.099 148.2 159.946 147.483C161.418 147.075 168.437 145.395 166.705 142.794C165.891 141.62 163.606 141.93 162.483 142.133C160.954 142.443 159.539 142.998 158.164 143.715C155.163 145.191 151.251 146.928 149.169 149.627" fill="white"/>
<path d="M148.282 147.948C149.738 144.767 152.365 142.378 155.383 140.69C158.4 139.002 162.174 137.624 165.672 137.885C167.534 138.024 169.877 138.806 170.853 140.543C171.658 141.97 171.341 143.764 170.527 145.118C168.99 147.67 165.924 149.195 163.191 150.092C160.971 150.818 158.644 151.177 156.326 151.307C154.236 151.421 152.015 151.079 149.958 151.544C149.323 151.691 149.592 152.669 150.226 152.53C151.308 152.286 152.414 152.367 153.52 152.392C154.773 152.416 156.033 152.376 157.278 152.27C159.523 152.082 161.776 151.691 163.907 150.932C166.802 149.905 169.991 148.217 171.536 145.428C172.309 144.025 172.601 142.313 172.065 140.78C171.471 139.084 169.95 138.072 168.339 137.453C164.622 136.034 160.263 137.322 156.782 138.872C152.861 140.625 149.234 143.463 147.412 147.45C147.144 148.045 148.014 148.559 148.29 147.964L148.282 147.948Z" fill="#1F1E21"/>
<path d="M149.608 150.834C151.495 150.255 153.455 149.913 155.35 149.342C157.034 148.836 158.718 148.339 160.417 147.891C162.304 147.385 164.33 146.855 165.973 145.762C166.615 145.338 167.274 144.767 167.445 143.976C167.64 143.079 167.071 142.215 166.298 141.815C165.216 141.253 163.842 141.4 162.679 141.587C160.995 141.856 159.425 142.525 157.904 143.275C154.683 144.873 151.105 146.374 148.803 149.269C148.396 149.774 149.112 150.5 149.519 149.986C151.308 147.736 153.927 146.366 156.456 145.11C158.986 143.854 161.597 142.386 164.484 142.451C165.241 142.468 166.753 142.769 166.42 143.854C166.217 144.539 165.314 144.988 164.736 145.289C163.256 146.064 161.613 146.512 160.003 146.936C158.295 147.393 156.603 147.899 154.911 148.404C153.073 148.959 151.17 149.285 149.331 149.848C148.705 150.035 148.974 151.022 149.6 150.834H149.608Z" fill="#1F1E21"/>
<path d="M150.047 144.637C150.462 145.477 150.779 146.357 151.218 147.189C151.34 147.426 151.69 147.515 151.918 147.369C152.154 147.214 152.235 146.92 152.097 146.667C151.658 145.844 151.34 144.955 150.926 144.115C150.804 143.878 150.454 143.789 150.226 143.936C149.982 144.091 149.917 144.376 150.047 144.637Z" fill="#1F1E21"/>
<path d="M155.895 140.127C156.082 140.723 156.229 141.334 156.416 141.938C156.603 142.541 156.798 143.161 157.164 143.666C157.327 143.887 157.603 144.001 157.864 143.846C158.083 143.715 158.205 143.373 158.042 143.145C157.969 143.047 157.904 142.941 157.847 142.827C157.815 142.761 157.782 142.696 157.75 142.631C157.733 142.598 157.668 142.435 157.701 142.525C157.579 142.223 157.473 141.921 157.384 141.612C157.205 141.024 157.058 140.437 156.879 139.85C156.798 139.589 156.521 139.418 156.253 139.491C155.985 139.565 155.814 139.858 155.895 140.119V140.127Z" fill="#1F1E21"/>
<path d="M165.2 137.665C164.98 138.896 164.338 140.005 164.216 141.269C164.191 141.546 164.468 141.775 164.72 141.775C165.013 141.775 165.2 141.538 165.224 141.269C165.232 141.147 165.249 141.049 165.281 140.902C165.314 140.755 165.346 140.609 165.395 140.462C165.476 140.184 165.566 139.915 165.664 139.646C165.859 139.084 166.07 138.529 166.176 137.942C166.225 137.673 166.103 137.396 165.818 137.314C165.574 137.249 165.241 137.396 165.192 137.673L165.2 137.665Z" fill="#1F1E21"/>
<path d="M167.282 144.001C168.518 144.213 169.771 144.27 171.024 144.327C171.3 144.335 171.528 144.082 171.528 143.821C171.528 143.536 171.292 143.324 171.024 143.316C169.86 143.267 168.689 143.226 167.55 143.03C167.282 142.981 167.006 143.104 166.924 143.389C166.859 143.634 167.006 143.968 167.282 144.017V144.001Z" fill="#1F1E21"/>
<path d="M164.997 146.268C165.509 147.034 165.916 147.858 166.371 148.665C166.501 148.902 166.835 148.991 167.071 148.845C167.307 148.698 167.396 148.396 167.25 148.143C166.802 147.344 166.387 146.512 165.875 145.746C165.729 145.526 165.42 145.412 165.176 145.566C164.956 145.705 164.834 146.023 164.997 146.268Z" fill="#1F1E21"/>
<path d="M158.839 148.233C158.921 148.714 159.051 149.187 159.181 149.66C159.246 149.888 159.303 150.117 159.36 150.345C159.393 150.467 159.417 150.59 159.441 150.712C159.45 150.761 159.458 150.818 159.466 150.867C159.474 150.932 159.474 150.94 159.466 150.891C159.466 150.924 159.474 150.965 159.482 150.997C159.515 151.258 159.694 151.519 159.986 151.503C160.238 151.495 160.523 151.275 160.491 150.997C160.377 149.954 159.978 148.983 159.816 147.956C159.775 147.695 159.433 147.524 159.189 147.597C158.905 147.687 158.791 147.939 158.831 148.225L158.839 148.233Z" fill="#1F1E21"/>
<path d="M157.506 142.794C157.725 142.794 157.953 142.769 158.164 142.729C158.376 142.688 158.579 142.615 158.774 142.517C158.88 142.46 158.978 142.329 159.01 142.215C159.043 142.093 159.027 141.93 158.962 141.824C158.896 141.718 158.791 141.62 158.661 141.587C158.522 141.554 158.4 141.579 158.27 141.636C158.238 141.652 158.205 141.669 158.173 141.677L158.295 141.628C158.132 141.693 157.953 141.742 157.774 141.766L157.912 141.75C157.782 141.766 157.644 141.775 157.514 141.775C157.384 141.775 157.245 141.832 157.156 141.921C157.066 142.011 157.001 142.158 157.009 142.28C157.018 142.403 157.058 142.549 157.156 142.639C157.253 142.729 157.375 142.786 157.514 142.786L157.506 142.794Z" fill="#1F1E21"/>
<path d="M157.603 141.147C157.603 141.147 157.628 141.139 157.636 141.13L157.514 141.179C157.75 141.082 157.994 140.992 158.254 140.959L158.116 140.975C158.213 140.959 158.311 140.959 158.417 140.959C158.547 140.959 158.685 140.902 158.774 140.812C158.864 140.723 158.929 140.576 158.921 140.454C158.905 140.176 158.701 139.94 158.417 139.948C158.189 139.948 157.953 139.981 157.725 140.038C157.497 140.095 157.294 140.185 157.091 140.274C156.985 140.323 156.887 140.47 156.855 140.576C156.822 140.698 156.839 140.861 156.904 140.967C156.969 141.073 157.075 141.171 157.205 141.204L157.343 141.22C157.432 141.22 157.522 141.196 157.603 141.147Z" fill="#1F1E21"/>
<path d="M152.113 146.194C152.504 145.999 152.902 145.803 153.284 145.583C153.398 145.518 153.488 145.403 153.52 145.281C153.553 145.159 153.536 144.996 153.471 144.89C153.317 144.653 153.024 144.563 152.772 144.71C152.39 144.93 151.999 145.126 151.601 145.322C151.495 145.379 151.397 145.509 151.365 145.624C151.332 145.746 151.349 145.909 151.414 146.015C151.479 146.121 151.584 146.219 151.715 146.251C151.853 146.284 151.983 146.268 152.105 146.203L152.113 146.194Z" fill="#1F1E21"/>
<path d="M165.55 140.641C165.737 140.666 165.916 140.706 166.103 140.747C166.339 140.796 166.566 140.837 166.81 140.861C166.932 140.878 167.087 140.796 167.168 140.715C167.258 140.625 167.323 140.478 167.315 140.356C167.307 140.233 167.266 140.087 167.168 139.997L167.062 139.915C166.981 139.866 166.9 139.85 166.802 139.842C166.786 139.842 166.778 139.842 166.762 139.842L166.9 139.858C166.542 139.809 166.184 139.712 165.826 139.663C165.761 139.638 165.688 139.638 165.623 139.654C165.558 139.654 165.493 139.679 165.436 139.712C165.33 139.777 165.232 139.891 165.2 140.013C165.167 140.144 165.176 140.291 165.249 140.405C165.314 140.511 165.428 140.617 165.55 140.641Z" fill="#1F1E21"/>
<path d="M166.111 139.263C166.387 139.32 166.648 139.41 166.924 139.467C167.062 139.491 167.193 139.483 167.315 139.418C167.42 139.353 167.518 139.239 167.551 139.116C167.583 138.986 167.575 138.839 167.502 138.725C167.437 138.619 167.331 138.513 167.201 138.488C166.924 138.431 166.664 138.342 166.387 138.285C166.249 138.26 166.119 138.268 165.997 138.333C165.891 138.399 165.794 138.513 165.761 138.635C165.729 138.766 165.737 138.912 165.81 139.027C165.875 139.133 165.981 139.239 166.111 139.263Z" fill="#1F1E21"/>
<path d="M168.299 144.017C168.177 144.229 168.047 144.425 167.9 144.621L167.982 144.515C167.868 144.661 167.746 144.8 167.616 144.93C167.526 145.02 167.469 145.159 167.469 145.289C167.469 145.42 167.526 145.566 167.616 145.648C167.705 145.73 167.843 145.803 167.973 145.795C168.104 145.787 168.234 145.746 168.331 145.648C168.657 145.314 168.941 144.93 169.177 144.523C169.242 144.409 169.267 144.262 169.226 144.131C169.193 144.017 169.104 143.887 168.99 143.83C168.868 143.764 168.73 143.732 168.6 143.781C168.47 143.83 168.364 143.895 168.299 144.017Z" fill="#1F1E21"/>
<path d="M164.98 147.67C165.143 147.572 165.314 147.491 165.485 147.418L165.363 147.466C165.452 147.434 165.533 147.393 165.623 147.36C165.688 147.344 165.745 147.312 165.794 147.271C165.851 147.238 165.891 147.189 165.924 147.124C165.964 147.067 165.981 147.002 165.981 146.936C165.997 146.871 165.989 146.798 165.973 146.733C165.932 146.61 165.859 146.488 165.737 146.431L165.615 146.382C165.525 146.357 165.436 146.357 165.346 146.382C165.045 146.504 164.744 146.627 164.46 146.79C164.346 146.855 164.256 146.969 164.224 147.091C164.2 147.157 164.2 147.23 164.216 147.295C164.216 147.36 164.24 147.426 164.273 147.483C164.346 147.589 164.444 147.687 164.574 147.719C164.704 147.752 164.842 147.736 164.964 147.67H164.98Z" fill="#1F1E21"/>
<path d="M157.603 150.337C158.042 150.288 158.482 150.288 158.921 150.288C159.189 150.288 159.441 150.051 159.425 149.782C159.409 149.513 159.206 149.269 158.921 149.277C158.482 149.277 158.042 149.277 157.603 149.326C157.465 149.342 157.343 149.375 157.245 149.473C157.156 149.562 157.091 149.709 157.099 149.831C157.107 149.954 157.148 150.1 157.245 150.19C157.335 150.28 157.473 150.353 157.603 150.337Z" fill="#1F1E21"/>
<path d="M150.535 152.327C150.739 153.142 151.243 153.599 151.853 154.112C152.463 154.626 152.764 155.181 153.227 155.841C154.399 157.317 155.871 158.597 157.14 160.024C159.677 162.83 162.475 165.219 165.428 167.616C170.967 172.052 178.287 173.373 185.2 172.558C186.315 172.46 188.25 172.558 188.958 171.49C189.365 170.878 189.519 168.791 188.803 168.481C188.494 168.326 187.274 168.636 186.925 168.636C186.16 168.733 185.452 168.685 184.688 168.685C182.907 168.636 181.182 168.685 179.45 168.326C176.603 167.82 173.805 167.306 171.064 166.442C167.656 165.374 164.712 163.278 161.963 160.987C160.84 160.016 159.978 158.695 158.807 157.823C157.79 157.056 156.928 156.502 156.115 155.531C155.253 154.512 154.537 153.191 153.724 152.221" fill="white"/>
<path d="M150.047 152.465C150.478 153.843 151.731 154.536 152.52 155.694C153.406 157.007 154.578 158.092 155.684 159.209C158.173 161.745 160.596 164.249 163.329 166.54C165.777 168.587 168.266 170.348 171.251 171.506C174.082 172.599 177.116 173.153 180.149 173.276C181.678 173.333 183.208 173.284 184.729 173.129C185.875 173.015 187.128 173.088 188.218 172.664C189.088 172.321 189.576 171.702 189.747 170.788C189.893 170.022 189.958 168.856 189.356 168.252C188.755 167.649 187.73 168.04 187.014 168.13C185.29 168.334 183.435 168.203 181.703 168.106C179.84 167.991 177.97 167.576 176.148 167.2C174.326 166.825 172.496 166.409 170.739 165.798C167.315 164.607 163.785 162.3 161.337 159.625C160.759 158.997 160.214 158.336 159.572 157.774C158.929 157.211 158.197 156.763 157.546 156.208C156.115 154.993 155.285 153.313 154.122 151.87C153.707 151.356 152.992 152.082 153.406 152.588C154.334 153.737 155.017 155.067 156.017 156.151C156.961 157.179 158.197 157.847 159.206 158.801C160.214 159.755 161.076 160.889 162.174 161.794C163.272 162.699 164.322 163.49 165.468 164.249C168.047 165.945 170.804 166.997 173.789 167.714C176.945 168.473 180.149 169.109 183.395 169.174C184.729 169.198 186.071 169.28 187.396 169.1C187.827 169.043 188.47 168.774 188.73 169.166C188.966 169.508 188.82 170.356 188.73 170.723C188.446 171.963 186.908 171.955 185.875 172.012C184.566 172.093 183.273 172.256 181.955 172.273C176.131 172.379 170.251 170.821 165.655 167.135C162.833 164.868 160.092 162.471 157.644 159.804C156.473 158.524 155.171 157.358 154.057 156.029C153.528 155.409 153.146 154.675 152.585 154.088C151.991 153.46 151.316 153.069 151.039 152.196C150.844 151.568 149.86 151.837 150.055 152.465H150.047Z" fill="#1F1E21"/>
<path d="M155.017 157.325C155.334 157.073 155.627 156.803 155.944 156.551L155.838 156.632C156.025 156.485 156.221 156.347 156.432 156.233C156.668 156.102 156.757 155.76 156.611 155.531C156.465 155.303 156.164 155.213 155.911 155.352C155.31 155.686 154.813 156.176 154.285 156.608C154.187 156.681 154.138 156.852 154.138 156.967C154.138 157.089 154.195 157.244 154.285 157.325C154.374 157.407 154.512 157.48 154.643 157.472C154.789 157.472 154.895 157.415 155 157.325H155.017Z" fill="#1F1E21"/>
<path d="M160.1 162.471C160.458 162.153 160.743 161.753 161.117 161.46L161.011 161.541C161.117 161.46 161.223 161.386 161.345 161.337L161.223 161.386H161.239C161.369 161.329 161.467 161.272 161.54 161.142C161.605 161.036 161.629 160.873 161.589 160.75C161.548 160.628 161.475 160.506 161.353 160.449C161.231 160.391 161.084 160.342 160.962 160.4C160.792 160.473 160.637 160.546 160.491 160.661C160.336 160.783 160.19 160.905 160.051 161.052C159.824 161.288 159.612 161.533 159.368 161.753C159.173 161.933 159.173 162.291 159.368 162.471C159.58 162.667 159.872 162.658 160.084 162.471H160.1Z" fill="#1F1E21"/>
<path d="M165.281 167.062C165.582 166.703 165.826 166.303 166.054 165.896C166.16 165.708 166.265 165.521 166.379 165.333C166.436 165.243 166.493 165.154 166.55 165.072C166.583 165.023 166.615 164.982 166.648 164.942C166.607 164.991 166.705 164.868 166.648 164.942C166.664 164.917 166.688 164.893 166.705 164.868C166.875 164.664 166.916 164.346 166.705 164.151C166.518 163.979 166.168 163.93 165.989 164.151C165.688 164.509 165.444 164.909 165.216 165.317C165.11 165.504 165.005 165.692 164.891 165.879C164.834 165.969 164.777 166.059 164.72 166.14C164.688 166.189 164.655 166.23 164.622 166.271C164.566 166.344 164.663 166.222 164.622 166.271C164.606 166.295 164.582 166.32 164.566 166.344C164.395 166.548 164.354 166.866 164.566 167.062C164.753 167.233 165.102 167.282 165.281 167.062Z" fill="#1F1E21"/>
<path d="M172.992 170.813C173.122 170.299 173.236 169.785 173.366 169.272C173.431 169.011 173.504 168.75 173.594 168.497C173.634 168.375 173.683 168.252 173.732 168.13C173.691 168.228 173.765 168.057 173.773 168.04C173.797 167.983 173.83 167.934 173.854 167.877C173.976 167.641 173.919 167.315 173.675 167.176C173.439 167.054 173.114 167.103 172.976 167.355C172.463 168.35 172.292 169.467 172.008 170.536C171.943 170.797 172.089 171.098 172.366 171.164C172.642 171.229 172.919 171.082 172.992 170.805V170.813Z" fill="#1F1E21"/>
<path d="M180.58 169.149C180.678 170.324 180.377 171.4 180.271 172.566C180.247 172.835 180.523 173.088 180.776 173.072C181.068 173.055 181.256 172.843 181.28 172.566C181.378 171.449 181.678 170.307 181.589 169.149C181.565 168.88 181.369 168.627 181.085 168.644C180.824 168.652 180.556 168.872 180.58 169.149Z" fill="#1F1E21"/>
<path d="M181.703 171.897C181.841 171.897 181.979 171.914 182.118 171.914C182.297 171.914 182.476 171.914 182.654 171.873C182.776 171.849 182.898 171.743 182.955 171.637C183.02 171.53 183.045 171.367 183.004 171.245C182.964 171.123 182.89 171 182.768 170.943L182.646 170.894C182.557 170.87 182.467 170.87 182.378 170.894C182.354 170.894 182.337 170.894 182.313 170.903L182.451 170.886C182.199 170.919 181.955 170.878 181.703 170.878C181.573 170.878 181.434 170.935 181.345 171.025C181.256 171.115 181.19 171.261 181.199 171.384C181.207 171.506 181.247 171.653 181.345 171.743C181.443 171.832 181.565 171.889 181.703 171.889V171.897Z" fill="#1F1E21"/>
<path d="M181.703 170.576C182.085 170.536 182.459 170.438 182.833 170.389L182.695 170.405C182.833 170.389 182.98 170.373 183.118 170.373C183.386 170.373 183.639 170.136 183.622 169.867C183.606 169.598 183.403 169.353 183.118 169.361C182.614 169.361 182.126 169.508 181.63 169.573L181.768 169.557C181.768 169.557 181.719 169.557 181.695 169.565C181.556 169.582 181.434 169.614 181.337 169.712C181.247 169.802 181.182 169.949 181.19 170.071C181.199 170.193 181.239 170.34 181.337 170.43C181.426 170.511 181.565 170.593 181.695 170.576H181.703Z" fill="#1F1E21"/>
<path d="M173.179 170.609C173.61 170.772 174.057 170.87 174.497 170.968C174.627 171 174.765 170.984 174.887 170.919C174.993 170.854 175.09 170.74 175.123 170.617C175.18 170.356 175.041 170.055 174.765 169.989C174.318 169.891 173.87 169.794 173.447 169.631C173.333 169.59 173.163 169.622 173.057 169.679C172.951 169.737 172.854 169.859 172.821 169.981C172.789 170.112 172.797 170.258 172.87 170.373C172.943 170.487 173.041 170.56 173.171 170.609H173.179Z" fill="#1F1E21"/>
<path d="M173.431 169.435C173.846 169.541 174.253 169.696 174.651 169.843C174.765 169.883 174.936 169.851 175.041 169.794C175.147 169.737 175.245 169.614 175.277 169.492C175.31 169.361 175.302 169.215 175.229 169.1C175.155 168.986 175.058 168.913 174.928 168.864C174.529 168.709 174.122 168.562 173.708 168.456C173.577 168.424 173.431 168.44 173.317 168.505C173.211 168.57 173.114 168.685 173.081 168.807C173.049 168.937 173.057 169.084 173.13 169.198C173.203 169.312 173.301 169.402 173.431 169.435Z" fill="#1F1E21"/>
<path d="M165.476 166.785C165.834 166.988 166.208 167.16 166.542 167.396C166.648 167.47 166.818 167.478 166.932 167.445C167.046 167.412 167.176 167.323 167.233 167.209C167.298 167.086 167.331 166.948 167.282 166.817L167.233 166.695C167.184 166.621 167.128 166.556 167.054 166.515C166.721 166.279 166.347 166.108 165.989 165.904C165.875 165.839 165.729 165.814 165.598 165.855C165.485 165.888 165.354 165.977 165.298 166.091C165.232 166.214 165.2 166.352 165.249 166.483C165.298 166.613 165.363 166.719 165.485 166.785H165.476Z" fill="#1F1E21"/>
<path d="M160.548 162.194C160.743 162.34 160.938 162.487 161.158 162.601C161.215 162.642 161.28 162.658 161.345 162.658C161.41 162.675 161.483 162.667 161.548 162.65C161.613 162.634 161.67 162.601 161.719 162.561C161.776 162.528 161.816 162.479 161.849 162.414C161.914 162.291 161.947 162.153 161.898 162.022C161.857 161.9 161.784 161.778 161.662 161.721C161.442 161.606 161.247 161.46 161.052 161.313C160.995 161.272 160.93 161.256 160.865 161.256C160.8 161.239 160.727 161.248 160.661 161.264C160.596 161.28 160.539 161.313 160.491 161.354C160.434 161.386 160.393 161.435 160.361 161.5C160.295 161.623 160.263 161.761 160.312 161.892L160.361 162.014C160.409 162.088 160.466 162.153 160.539 162.194H160.548Z" fill="#1F1E21"/>
<path d="M155.415 157.276C155.619 157.529 155.871 157.733 156.131 157.937C156.18 157.986 156.229 158.018 156.294 158.043C156.351 158.076 156.416 158.092 156.489 158.084C156.562 158.084 156.627 158.076 156.684 158.043C156.749 158.018 156.798 157.986 156.847 157.937C156.936 157.839 157.001 157.709 156.993 157.578L156.977 157.439C156.953 157.35 156.912 157.276 156.847 157.211C156.595 157.007 156.343 156.803 156.131 156.551C156.082 156.502 156.033 156.469 155.968 156.445C155.911 156.412 155.846 156.396 155.773 156.404C155.7 156.404 155.635 156.412 155.578 156.445C155.513 156.469 155.464 156.502 155.415 156.551C155.326 156.648 155.261 156.779 155.269 156.909L155.285 157.048C155.31 157.138 155.35 157.211 155.415 157.276Z" fill="#1F1E21"/>
<path d="M154.049 152.482C154.96 153.909 156.286 154.773 157.611 155.792C159.49 157.219 161.369 158.597 163.305 159.976C165.184 161.403 167.323 162.316 169.454 163.237C171.381 164.053 173.114 164.868 175.196 165.227C177.181 165.586 179.165 165.79 181.199 165.586C182.467 165.488 183.574 165.211 185.363 164.819C188.665 164.102 189.332 163.988 189.194 161.68C189.072 159.641 183.33 160.897 182.158 161.052C179.011 161.558 176.262 161.052 173.211 160.188C171.739 159.731 170.47 158.867 169.047 158.255C167.729 157.692 166.306 157.285 164.932 156.828C162.996 156.216 161.223 155.499 159.49 154.479C158.522 153.917 157.66 153.354 156.953 152.49C156.749 152.237 156.546 151.878 156.294 151.723" fill="white"/>
<path d="M153.61 152.734C155.204 155.083 157.929 156.689 160.182 158.336C161.524 159.323 162.857 160.359 164.265 161.248C165.672 162.136 167.176 162.797 168.689 163.458C171.495 164.673 174.179 165.692 177.246 166.034C180.312 166.377 182.833 165.888 185.664 165.268C187.03 164.966 189.153 164.787 189.609 163.164C190.015 161.729 189.584 160.448 188.063 160.13C186.428 159.788 184.647 160.13 183.029 160.391C180.345 160.832 177.807 160.783 175.147 160.155C173.325 159.723 171.772 158.997 170.104 158.173C168.6 157.431 166.997 156.95 165.403 156.428C163.671 155.866 161.963 155.246 160.352 154.365C159.62 153.966 158.872 153.55 158.221 153.02C157.611 152.53 157.229 151.829 156.635 151.34C156.131 150.932 155.407 151.65 155.92 152.057C156.351 152.408 156.627 152.922 157.026 153.305C157.424 153.688 157.904 154.055 158.384 154.373C159.531 155.132 160.767 155.751 162.028 156.282C164.614 157.366 167.396 157.921 169.901 159.201C172.406 160.481 174.749 161.264 177.465 161.598C179.564 161.859 181.565 161.623 183.63 161.305C184.964 161.093 186.949 160.628 188.25 161.231C188.836 161.5 188.787 162.259 188.641 162.813C188.429 163.588 187.592 163.751 186.908 163.922C184.558 164.526 182.11 165.113 179.678 165.129C176.538 165.154 173.586 164.428 170.714 163.205C169.259 162.585 167.786 161.982 166.371 161.256C164.956 160.53 163.606 159.56 162.272 158.597C160.938 157.635 159.523 156.6 158.173 155.572C156.822 154.545 155.432 153.607 154.48 152.204C154.114 151.666 153.236 152.172 153.602 152.718L153.61 152.734Z" fill="#1F1E21"/>
<path d="M159.84 157.17C160.238 156.648 160.572 156.086 160.938 155.539C161.084 155.319 160.987 154.969 160.759 154.838C160.507 154.7 160.222 154.781 160.06 155.018C159.726 155.523 159.425 156.045 159.059 156.526L159.14 156.42L159.124 156.436C159.035 156.551 158.978 156.648 158.978 156.795C158.978 156.918 159.035 157.073 159.124 157.154C159.214 157.236 159.352 157.309 159.482 157.301C159.604 157.301 159.759 157.252 159.84 157.154V157.17Z" fill="#1F1E21"/>
<path d="M167.494 161.908C168.095 160.75 168.673 159.568 169.071 158.32C169.153 158.059 168.974 157.766 168.714 157.692C168.437 157.619 168.169 157.782 168.087 158.051C167.713 159.217 167.185 160.302 166.615 161.394C166.485 161.639 166.55 161.949 166.794 162.096C167.022 162.226 167.363 162.161 167.494 161.916V161.908Z" fill="#1F1E21"/>
<path d="M175.749 161.5C175.79 162.658 175.245 163.759 175.058 164.933C175.017 165.203 175.131 165.48 175.416 165.561C175.66 165.627 175.993 165.48 176.042 165.203C176.245 163.955 176.815 162.789 176.774 161.5C176.766 161.223 176.546 160.995 176.27 160.995C175.993 160.995 175.749 161.231 175.765 161.5H175.749Z" fill="#1F1E21"/>
<path d="M176.359 164.306C176.782 164.355 177.205 164.355 177.628 164.355C177.896 164.355 178.148 164.118 178.132 163.849C178.116 163.58 177.913 163.343 177.628 163.343C177.205 163.343 176.782 163.343 176.359 163.294C176.237 163.278 176.083 163.36 176.001 163.441C175.912 163.531 175.847 163.678 175.855 163.8C175.863 163.922 175.904 164.069 176.001 164.159C176.107 164.257 176.221 164.289 176.359 164.306Z" fill="#1F1E21"/>
<path d="M176.969 162.879C177.124 162.862 177.27 162.87 177.425 162.887L177.286 162.87C177.53 162.903 177.782 162.96 178.035 162.927C178.108 162.927 178.173 162.919 178.23 162.887C178.295 162.862 178.344 162.83 178.392 162.781C178.482 162.691 178.547 162.544 178.539 162.422C178.531 162.3 178.49 162.153 178.392 162.063C178.303 161.982 178.165 161.9 178.035 161.916C177.904 161.933 177.766 161.924 177.636 161.908L177.774 161.924C177.506 161.892 177.238 161.835 176.969 161.867C176.896 161.867 176.831 161.876 176.774 161.908C176.709 161.933 176.66 161.965 176.611 162.014C176.522 162.104 176.457 162.251 176.465 162.373C176.473 162.495 176.514 162.642 176.611 162.732C176.701 162.813 176.839 162.895 176.969 162.879Z" fill="#1F1E21"/>
<path d="M167.892 161.435C168.234 161.533 168.567 161.647 168.909 161.745C169.031 161.778 169.185 161.761 169.299 161.696C169.405 161.631 169.503 161.517 169.535 161.394C169.568 161.264 169.56 161.117 169.486 161.003C169.413 160.889 169.315 160.807 169.185 160.767C168.844 160.669 168.51 160.555 168.169 160.457C168.047 160.424 167.892 160.44 167.778 160.506C167.673 160.571 167.575 160.685 167.542 160.807C167.51 160.938 167.518 161.085 167.591 161.199C167.664 161.313 167.762 161.394 167.892 161.435Z" fill="#1F1E21"/>
<path d="M168.429 160.106C168.868 160.326 169.307 160.546 169.771 160.718C169.885 160.758 170.056 160.726 170.161 160.669C170.267 160.612 170.365 160.489 170.397 160.367C170.43 160.236 170.422 160.09 170.348 159.976C170.275 159.861 170.178 159.788 170.048 159.739C169.958 159.706 169.869 159.674 169.787 159.633L169.909 159.682C169.584 159.543 169.267 159.388 168.95 159.225C168.827 159.16 168.697 159.136 168.559 159.176C168.445 159.209 168.315 159.299 168.258 159.413C168.193 159.535 168.161 159.674 168.209 159.804C168.25 159.927 168.323 160.049 168.445 160.106H168.429Z" fill="#1F1E21"/>
<path d="M160.092 156.999C160.523 157.268 161.011 157.382 161.483 157.562C161.597 157.603 161.768 157.57 161.873 157.513C161.979 157.456 162.077 157.333 162.109 157.211C162.142 157.081 162.134 156.934 162.06 156.82C161.987 156.706 161.89 156.632 161.759 156.583C161.467 156.477 161.166 156.388 160.873 156.273L160.995 156.322C160.865 156.265 160.735 156.2 160.613 156.127C160.385 155.988 160.043 156.07 159.913 156.306C159.783 156.542 159.856 156.852 160.092 157.007V156.999Z" fill="#1F1E21"/>
<path d="M181.752 161.753C181.849 162.838 181.752 163.93 181.752 165.015C181.752 165.284 181.988 165.537 182.256 165.521C182.524 165.504 182.76 165.3 182.76 165.015C182.76 163.93 182.858 162.838 182.76 161.753C182.736 161.492 182.541 161.231 182.256 161.248C182.004 161.256 181.719 161.476 181.752 161.753Z" fill="#1F1E21"/>
<path d="M116.651 114.033C118.026 119.203 118.139 124.675 117.57 129.975C117.285 132.617 116.627 135.178 116.269 137.803C116.114 138.961 116.082 140.119 115.976 141.277C115.895 142.125 115.667 143.153 116.163 143.911C116.521 144.457 117.399 143.944 117.041 143.397C116.578 142.696 117.001 141.318 117.041 140.527C117.115 139.075 117.277 137.64 117.554 136.213C118.034 133.783 118.465 131.378 118.684 128.907C119.132 123.859 118.936 118.673 117.627 113.756C117.456 113.12 116.48 113.389 116.643 114.025L116.651 114.033Z" fill="#1F1E21"/>
<path d="M132.641 115.737C133.178 118.917 131.747 122.163 130.763 125.131C129.852 127.887 129.152 130.619 129.502 133.547C129.575 134.191 130.6 134.199 130.519 133.547C130.136 130.366 131.055 127.48 132.04 124.495C133.024 121.511 134.138 118.583 133.617 115.468C133.512 114.824 132.528 115.093 132.633 115.737H132.641Z" fill="#1F1E21"/>
<path d="M149.096 114.441C149.055 117.482 148.03 120.361 146.517 122.978C145.769 124.267 144.85 125.433 144.069 126.697C143.288 127.961 142.686 129.257 141.954 130.505C140.515 132.968 138.807 135.284 137.66 137.918C136.781 139.94 136.114 142.476 136.985 144.612C137.229 145.216 138.213 144.947 137.969 144.343C137.017 142.003 138.058 139.222 139.181 137.127C140.588 134.493 142.304 132.054 143.711 129.421C145.118 126.787 146.883 124.658 148.152 122.09C149.331 119.692 150.08 117.123 150.12 114.441C150.129 113.788 149.112 113.78 149.104 114.441H149.096Z" fill="#1F1E21"/>
<path d="M95.3655 129.804C95.7559 132.462 96.0243 135.169 96.9271 137.714C97.342 138.888 97.9276 139.981 98.4237 141.122C98.7084 141.766 98.9443 142.411 99.1313 143.088C99.2696 143.593 99.4241 144.033 99.7658 144.441C100.189 144.947 100.904 144.221 100.482 143.724C100.107 143.283 100.075 142.59 99.8878 142.06C99.6925 141.489 99.4404 140.935 99.1964 140.38C98.684 139.247 98.1146 138.146 97.7324 136.955C96.9597 134.558 96.7075 132.03 96.3415 129.543C96.2439 128.899 95.2679 129.168 95.3574 129.812L95.3655 129.804Z" fill="#1F1E21"/>
<path d="M93.4053 172.917C96.2521 171.074 98.3099 168.203 99.7251 165.154C101.14 162.104 102.043 158.687 102.068 155.279C102.068 154.626 101.059 154.618 101.051 155.279C101.026 158.5 100.197 161.729 98.8467 164.64C97.4965 167.551 95.6014 170.283 92.8929 172.036C92.348 172.387 92.8523 173.276 93.4053 172.917Z" fill="#1F1E21"/>
<path d="M111.071 154.471C110.892 157.162 110.933 159.861 110.933 162.561C110.933 165.26 110.502 168.008 110.071 170.715C109.973 171.359 110.949 171.637 111.055 170.984C111.478 168.293 111.95 165.61 111.958 162.87C111.966 160.13 111.901 157.268 112.096 154.463C112.137 153.811 111.12 153.811 111.079 154.463L111.071 154.471Z" fill="#1F1E21"/>
<path d="M122.125 155.083C122.54 162.022 122.507 169.981 127.9 175.151C128.371 175.608 129.095 174.882 128.615 174.434C123.442 169.467 123.54 161.737 123.141 155.083C123.101 154.43 122.084 154.43 122.125 155.083Z" fill="#1F1E21"/>
<path d="M134.341 156.029C134.699 158.394 134.358 161.133 135.887 163.148C136.058 163.368 136.326 163.482 136.586 163.327C136.806 163.205 136.936 162.846 136.765 162.626C135.317 160.709 135.667 158.002 135.326 155.751C135.285 155.474 134.943 155.327 134.699 155.393C134.406 155.466 134.301 155.751 134.341 156.021V156.029Z" fill="#1F1E21"/>
<path d="M143.898 155.083C145.037 160.408 147.786 165.667 151.414 169.712C151.853 170.201 152.569 169.476 152.129 168.994C148.616 165.072 145.972 159.967 144.874 154.814C144.736 154.17 143.76 154.447 143.89 155.083H143.898Z" fill="#1F1E21"/>
<path d="M129.16 221.012C128.217 218.501 126.688 215.5 124.264 212.784C136.96 212.964 150.397 213.037 152.886 212.817C152.813 211.626 152.715 208.666 152.235 205.918C148.217 205.649 122.906 205.404 108.745 205.372C106.98 205.217 105.069 205.217 103.011 205.372C102.271 205.372 101.62 205.372 101.075 205.388C100.945 206.685 101.067 211.072 101.327 212.271C102.523 212.336 104.565 212.401 107.151 212.466C111.364 213.82 117.106 216.413 119.79 220.971C110.12 220.922 101.872 220.874 101.075 220.768C100.945 222.064 101.067 226.451 101.327 227.65C104.296 227.805 112.373 227.992 121.311 228.123C121.084 236.987 115.878 240.526 110.754 241.904C110.754 241.904 107.493 242.573 101.181 242.728L132.731 286.534L141.523 282.497L115.35 247.979C122.572 245.419 129.933 239.931 130.576 228.245C141.108 228.359 150.804 228.384 152.878 228.196C152.804 227.006 152.707 224.046 152.227 221.289C150.006 221.134 139.848 221.069 129.152 221.012H129.16Z" fill="#1F1E21"/>
<path d="M52.4449 264.011C52.2741 267.371 53.5186 270.119 56.4385 271.872C58.3661 273.022 60.2531 273.12 62.441 273.226C63.4903 273.275 64.4825 273.454 65.483 273.764C65.9628 273.911 66.2475 274.017 66.5241 274.416C67.2723 275.484 67.8742 276.528 68.8096 277.466C69.8669 278.526 71.03 279.48 72.2501 280.345C74.9179 282.228 78.0167 283.753 81.2783 284.177C84.9709 284.65 88.2894 283.305 90.5342 280.312C90.9246 279.79 90.0462 279.276 89.6558 279.798C85.3613 285.514 77.8947 283.019 72.9658 279.611C70.7372 278.069 68.8258 276.284 67.4269 273.951C66.9958 273.234 66.4346 272.989 65.6375 272.753C63.6367 272.149 61.6439 272.361 59.6106 272.035C57.8049 271.75 55.9098 270.608 54.763 269.165C53.6162 267.721 53.3559 265.846 53.4535 264.019C53.486 263.367 52.4693 263.367 52.4368 264.019L52.4449 264.011Z" fill="#1F1E21"/>
<path d="M64.4419 227.299C65.4993 228.971 66.9064 230.341 68.9153 230.643C70.8023 230.928 72.7381 230.545 74.6413 230.537C75.292 230.537 75.3001 229.517 74.6413 229.517C72.8845 229.517 71.1032 229.86 69.3464 229.672C67.5896 229.485 66.2638 228.278 65.3203 226.777C64.9706 226.223 64.0922 226.737 64.4419 227.291V227.299Z" fill="#1F1E21"/>
<path d="M156.115 288.964C158.97 290.13 162.101 290.913 165.192 290.415C167.868 289.983 169.812 288.303 171.764 286.558C172.626 285.784 173.529 285.033 174.635 284.65C175.822 284.234 177.189 284.226 178.433 284.242C180.564 284.267 182.557 284.324 184.436 283.142C187.193 281.396 189.454 278.306 190.633 275.297C190.869 274.685 189.893 274.424 189.649 275.028C188.568 277.784 186.437 280.671 183.915 282.261C182.077 283.419 180.125 283.215 178.051 283.223C175.977 283.231 173.903 283.549 172.154 284.895C170.405 286.24 168.949 287.961 166.875 288.882C163.565 290.358 159.563 289.29 156.383 287.985C155.781 287.741 155.513 288.719 156.115 288.972V288.964Z" fill="#1F1E21"/>
<path d="M165.598 251.73C168.25 252.693 171.324 253.035 174.033 252.13C176.741 251.225 178.718 248.868 179.23 245.941C179.344 245.296 178.36 245.027 178.246 245.671C177.774 248.362 176.131 250.442 173.48 251.233C170.991 251.975 168.266 251.624 165.859 250.752C165.241 250.532 164.98 251.51 165.59 251.738L165.598 251.73Z" fill="#1F1E21"/>
<path d="M132.942 192.422C134.707 193.572 136.749 194.38 138.864 193.752C140.523 193.254 141.84 192.08 143.321 191.248C145.135 190.229 146.883 190.245 148.884 190.563C150.438 190.808 152.154 191.224 153.699 190.734C155.863 190.049 156.497 187.758 156.749 185.736C156.831 185.083 155.814 185.091 155.733 185.736C155.57 187 155.277 188.557 154.179 189.373C153.463 189.903 152.552 189.96 151.698 189.919C149.665 189.821 147.656 189.087 145.606 189.364C143.557 189.642 141.987 190.955 140.254 191.99C139.409 192.496 138.498 192.92 137.497 192.969C136.017 193.034 134.667 192.333 133.455 191.55C132.902 191.191 132.397 192.072 132.942 192.431V192.422Z" fill="#1F1E21"/>
<path d="M97.6998 182.091C100.246 183.224 103.133 184.341 105.801 182.906C106.378 182.596 105.866 181.716 105.288 182.025C102.995 183.265 100.392 182.18 98.2122 181.21C97.6185 180.949 97.0979 181.822 97.6998 182.091Z" fill="#1F1E21"/>
<path d="M213.456 111.521C199.361 113.968 191.227 128.377 196.376 141.693C200.987 153.656 215.896 159.087 227.552 154.194C236.767 150.117 242.192 139.247 241.11 129.461C239.752 118.314 227.552 109.344 213.456 111.521Z" fill="white"/>
<path d="M213.318 111.032C203.932 112.72 196.286 120.059 194.651 129.551C193.017 139.043 197.588 148.567 205.981 153.248C214.188 157.831 225.071 157.749 232.529 151.715C239.971 145.697 244.119 134.101 240.476 124.936C236.832 115.77 226.917 110.567 217.376 110.681C216.018 110.698 214.668 110.828 213.326 111.024C212.683 111.122 212.952 112.1 213.594 112.011C222.997 110.616 233.408 114.326 238.337 122.832C243.062 130.994 240.411 141.938 234.302 148.649C231.106 152.155 226.982 154.398 222.305 155.173C217.962 155.89 213.424 155.344 209.341 153.721C200.776 150.329 195.082 142.125 195.343 132.821C195.636 122.391 203.476 113.829 213.594 112.011C214.237 111.896 213.969 110.91 213.326 111.024L213.318 111.032Z" fill="#1F1E21"/>
<path d="M219.792 128.67C219.507 127.92 219.06 127.031 218.336 126.224C222.118 126.281 226.12 126.297 226.86 126.232C226.836 125.881 226.811 125.001 226.665 124.177C225.469 124.096 217.93 124.022 213.716 124.014C213.196 123.965 212.618 123.965 212.008 124.014C211.789 124.014 211.594 124.014 211.431 124.014C211.39 124.397 211.431 125.702 211.504 126.061C211.862 126.077 212.464 126.102 213.237 126.118C214.489 126.518 216.197 127.292 217.002 128.646C214.123 128.63 211.667 128.613 211.431 128.589C211.39 128.972 211.431 130.277 211.504 130.636C212.391 130.684 214.79 130.733 217.45 130.774C217.385 133.416 215.831 134.468 214.31 134.876C214.31 134.876 213.342 135.072 211.463 135.121L220.858 148.16L223.477 146.961L215.685 136.686C217.832 135.92 220.028 134.289 220.215 130.807C223.347 130.839 226.242 130.848 226.852 130.79C226.828 130.44 226.803 129.559 226.657 128.736C225.998 128.687 222.972 128.67 219.784 128.654L219.792 128.67Z" fill="#1F1E21"/>
<path d="M214.156 115.044C206.421 116.447 200.117 122.505 198.808 130.35C197.498 138.195 201.321 146.031 208.291 149.839C215.262 153.648 223.973 153.403 230.057 148.404C236.141 143.406 239.459 133.938 236.458 126.428C232.968 117.694 222.997 113.739 214.156 115.044C213.513 115.142 213.781 116.12 214.424 116.031C222.053 114.905 230.504 117.898 234.522 124.789C238.54 131.679 236.23 140.462 231.195 145.925C226.161 151.389 217.856 152.718 210.918 149.962C203.981 147.206 199.344 140.527 199.556 132.968C199.792 124.471 206.185 117.523 214.416 116.031C215.058 115.917 214.79 114.93 214.147 115.044H214.156Z" fill="#1F1E21"/>
<path d="M119.124 42.1997C105.028 44.646 96.8946 59.0551 102.043 72.3714C106.655 84.3341 121.564 89.765 133.219 84.8723C142.434 80.7951 147.859 69.9251 146.777 60.1396C145.419 48.9924 133.219 40.0224 119.124 42.1997Z" fill="white"/>
<path d="M118.993 41.7104C109.607 43.3984 101.962 50.7375 100.327 60.2293C98.684 69.7375 103.263 79.2457 111.657 83.9264C120.051 88.6071 130.746 88.4277 138.205 82.4015C145.647 76.3835 149.795 64.7877 146.151 55.622C142.507 46.4563 132.593 41.2538 123.052 41.3679C121.694 41.3842 120.344 41.5147 119.002 41.7104C118.359 41.8083 118.627 42.7868 119.27 42.6971C128.672 41.3027 139.083 45.013 144.012 53.5182C148.941 62.0233 146.086 72.6242 139.978 79.3354C136.781 82.8418 132.658 85.0843 127.981 85.859C123.638 86.5766 119.099 86.0303 115.016 84.4075C106.452 81.0152 100.758 72.8118 101.018 63.5075C101.311 53.0778 109.152 44.5156 119.27 42.6971C119.912 42.5829 119.644 41.5962 119.002 41.7104H118.993Z" fill="#1F1E21"/>
<path d="M125.46 59.3486C125.175 58.5984 124.728 57.7096 124.004 56.9023C127.786 56.9594 131.787 56.9757 132.528 56.9104C132.503 56.5598 132.479 55.6791 132.332 54.8555C131.137 54.774 123.597 54.7006 119.384 54.6924C118.863 54.6435 118.286 54.6435 117.676 54.6924C117.456 54.6924 117.261 54.6924 117.098 54.6924C117.058 55.0757 117.098 56.3804 117.171 56.7392C117.529 56.7555 118.131 56.78 118.904 56.7963C120.157 57.1959 121.865 57.9705 122.67 59.3242C119.79 59.3079 117.334 59.2916 117.098 59.2671C117.058 59.6504 117.098 60.9551 117.171 61.3139C118.058 61.3628 120.457 61.4117 123.117 61.4525C123.052 64.0946 121.499 65.1465 119.978 65.5542C119.978 65.5542 119.01 65.75 117.131 65.7989L126.525 78.838L129.144 77.6393L121.352 67.3645C123.499 66.598 125.695 64.9671 125.883 61.4933C129.014 61.5259 131.909 61.5341 132.519 61.477C132.495 61.1263 132.471 60.2456 132.324 59.422C131.665 59.3731 128.64 59.3568 125.451 59.3405L125.46 59.3486Z" fill="#1F1E21"/>
<path d="M119.823 45.7306C112.088 47.1332 105.785 53.192 104.475 61.0366C103.166 68.8813 106.988 76.7178 113.959 80.526C120.929 84.3341 129.64 84.0895 135.724 79.0908C141.792 74.1083 145.126 64.6246 142.125 57.1143C138.636 48.3808 128.664 44.4259 119.823 45.7306C119.18 45.8284 119.449 46.807 120.091 46.7173C127.721 45.592 136.171 48.5847 140.189 55.4752C144.207 62.3658 141.897 71.1482 136.863 76.6118C131.698 82.2139 123.524 83.4045 116.586 80.6483C109.648 77.892 105.012 71.2135 105.223 63.6542C105.459 55.1572 111.852 48.2096 120.083 46.7173C120.726 46.6031 120.457 45.6164 119.815 45.7306H119.823Z" fill="#1F1E21"/>
<path d="M30.0778 112.043C15.9824 114.49 7.84886 128.899 12.9974 142.215C17.6091 154.178 32.5178 159.609 44.1732 154.716C53.3884 150.639 58.8135 139.769 57.7317 129.983C56.3734 118.836 44.1732 109.866 30.0778 112.043Z" fill="white"/>
<path d="M29.9395 111.546C20.5534 113.234 12.9079 120.573 11.2731 130.065C9.63823 139.557 14.2093 149.081 22.6031 153.762C30.9969 158.442 41.6924 158.263 49.1509 152.237C56.6093 146.211 60.7411 134.623 57.0973 125.457C53.4535 116.292 43.5387 111.089 33.9981 111.203C32.6398 111.22 31.2897 111.35 29.9476 111.546C29.3051 111.644 29.5735 112.622 30.216 112.532C39.6184 111.138 50.0293 114.848 54.9582 123.354C59.8871 131.859 57.0322 142.46 50.924 149.171C47.7275 152.677 43.6038 154.92 38.927 155.694C34.5837 156.412 30.0452 155.866 25.9622 154.243C17.3976 150.851 11.7041 142.647 11.9644 133.343C12.2572 122.913 20.0979 114.351 30.216 112.532C30.8586 112.418 30.5902 111.432 29.9476 111.546H29.9395Z" fill="#1F1E21"/>
<path d="M36.4138 129.192C36.1291 128.442 35.6818 127.553 34.9579 126.746C38.74 126.803 42.7417 126.819 43.4818 126.754C43.4574 126.403 43.433 125.523 43.2866 124.699C42.091 124.617 34.5512 124.544 30.338 124.536C29.8175 124.487 29.24 124.487 28.63 124.536C28.4104 124.536 28.2152 124.536 28.0525 124.536C28.0119 124.919 28.0525 126.224 28.1257 126.583C28.4836 126.599 29.0855 126.624 29.8582 126.64C31.1107 127.039 32.8188 127.814 33.624 129.168C30.7447 129.151 28.2884 129.135 28.0525 129.111C28.0119 129.494 28.0525 130.799 28.1257 131.157C29.0123 131.206 31.4117 131.255 34.0713 131.296C34.0063 133.938 32.4528 134.99 30.9318 135.398C30.9318 135.398 29.9639 135.593 28.0851 135.642L37.4793 148.682L40.0983 147.483L32.3064 137.208C34.4536 136.442 36.6497 134.811 36.8367 131.337C39.9681 131.369 42.8637 131.378 43.4737 131.321C43.4493 130.97 43.4249 130.089 43.2785 129.266C42.6197 129.217 39.594 129.2 36.4056 129.184L36.4138 129.192Z" fill="#1F1E21"/>
<path d="M30.7772 115.566C23.0423 116.969 16.7388 123.027 15.4293 130.872C14.1198 138.717 17.9425 146.553 24.913 150.361C31.8834 154.169 40.5944 153.925 46.6783 148.926C52.7621 143.927 56.0806 134.46 53.0793 126.95C49.5901 118.216 39.6184 114.261 30.7772 115.566C30.1347 115.664 30.4031 116.642 31.0456 116.553C38.6749 115.427 47.1256 118.42 51.1436 125.311C55.1615 132.201 52.8516 140.984 47.817 146.447C42.7823 151.911 34.478 153.24 27.5401 150.484C20.6022 147.727 15.9661 141.049 16.1776 133.49C16.4134 124.993 22.8064 118.045 31.0375 116.553C31.6801 116.438 31.4116 115.452 30.7691 115.566H30.7772Z" fill="#1F1E21"/>
<path d="M3.7821 76.7178V86.911C3.7821 87.5633 4.79879 87.5715 4.79879 86.911V76.7178C4.79879 76.0654 3.7821 76.0573 3.7821 76.7178Z" fill="#1061FF"/>
<path d="M0.488014 82.2547H7.94645C8.59713 82.2547 8.60527 81.2354 7.94645 81.2354H0.488014C-0.162667 81.2354 -0.170801 82.2547 0.488014 82.2547Z" fill="#1061FF"/>
<path d="M2.16352 80.3384C3.52182 81.7002 4.87198 83.0539 6.23028 84.4157C6.69389 84.8805 7.40964 84.1629 6.94603 83.6981C5.58773 82.3363 4.23757 80.9826 2.87927 79.6208C2.41566 79.156 1.69991 79.8736 2.16352 80.3384Z" fill="#1061FF"/>
<path d="M2.34247 84.1466C3.71704 82.6298 5.22987 81.2436 6.67764 79.8002C7.14125 79.3354 6.4255 78.6178 5.96189 79.0826C4.51412 80.5341 3.00129 81.9122 1.62672 83.429C1.43965 83.6328 1.42338 83.9509 1.62672 84.1466C1.81379 84.3341 2.16353 84.3504 2.34247 84.1466Z" fill="#1061FF"/>
<path d="M245.348 201.466V211.659C245.348 212.311 246.364 212.319 246.364 211.659V201.466C246.364 200.813 245.348 200.805 245.348 201.466Z" fill="#1061FF"/>
<path d="M242.054 207.003H249.512C250.163 207.003 250.171 205.983 249.512 205.983H242.054C241.403 205.983 241.395 207.003 242.054 207.003Z" fill="#1061FF"/>
<path d="M243.729 205.095C245.087 206.456 246.438 207.81 247.796 209.172C248.259 209.637 248.975 208.919 248.512 208.454C247.153 207.092 245.803 205.739 244.445 204.377C243.981 203.912 243.265 204.63 243.729 205.095Z" fill="#1061FF"/>
<path d="M243.908 208.895C245.283 207.378 246.795 205.992 248.243 204.548C248.707 204.083 247.991 203.366 247.527 203.831C246.08 205.282 244.567 206.66 243.192 208.177C243.005 208.381 242.989 208.699 243.192 208.895C243.379 209.082 243.729 209.098 243.908 208.895Z" fill="#1061FF"/>
<path d="M234.432 43.7083V64.7306C234.432 65.383 235.449 65.3912 235.449 64.7306V43.7083C235.449 43.0559 234.432 43.0478 234.432 43.7083Z" fill="#1061FF"/>
<path d="M227.112 54.5946H242.493C243.143 54.5946 243.152 53.5753 242.493 53.5753H227.112C226.462 53.5753 226.453 54.5946 227.112 54.5946Z" fill="#1061FF"/>
<path d="M230.951 50.8027C233.749 53.6079 236.547 56.4049 239.337 59.21C239.801 59.6748 240.516 58.9572 240.053 58.4924C237.255 55.6873 234.465 52.8821 231.667 50.0851C231.203 49.6203 230.488 50.3379 230.951 50.8027Z" fill="#1061FF"/>
<path d="M230.553 58.6474C233.399 55.5242 236.515 52.6619 239.5 49.6774C239.963 49.2126 239.247 48.495 238.784 48.9598C235.799 51.9443 232.684 54.8066 229.837 57.9298C229.398 58.4109 230.114 59.1366 230.553 58.6474Z" fill="#1061FF"/>
<path d="M84.7757 0.489267V21.5116C84.7757 22.164 85.7924 22.1722 85.7924 21.5116V0.489267C85.7924 -0.163095 84.7757 -0.171249 84.7757 0.489267Z" fill="#1061FF"/>
<path d="M77.4555 11.3756H92.836C93.4867 11.3756 93.4948 10.3562 92.836 10.3562H77.4555C76.8048 10.3562 76.7967 11.3756 77.4555 11.3756Z" fill="#1061FF"/>
<path d="M81.2945 7.5837C84.0925 10.3889 86.8904 13.1859 89.6802 15.991C90.1438 16.4558 90.8596 15.7382 90.3959 15.2734C87.598 12.4683 84.8082 9.6631 82.0103 6.8661C81.5467 6.40129 80.8309 7.11889 81.2945 7.5837Z" fill="#1061FF"/>
<path d="M80.896 15.4284C83.7427 12.3052 86.8579 9.44294 89.8429 6.45838C90.3065 5.99357 89.5907 5.27597 89.1271 5.74078C86.1421 8.72534 83.027 11.5876 80.1802 14.7108C79.741 15.1919 80.4568 15.9176 80.896 15.4284Z" fill="#1061FF"/>
<path d="M17.0723 205.103V226.125C17.0723 226.777 18.089 226.786 18.089 226.125V205.103C18.089 204.45 17.0723 204.442 17.0723 205.103Z" fill="#1061FF"/>
<path d="M9.75208 215.981H25.1326C25.7832 215.981 25.7914 214.962 25.1326 214.962H9.75208C9.1014 214.962 9.09327 215.981 9.75208 215.981Z" fill="#1061FF"/>
<path d="M13.583 212.189C16.3809 214.994 19.1788 217.791 21.9686 220.596C22.4323 221.061 23.148 220.344 22.6844 219.879C19.8865 217.074 17.0967 214.268 14.2987 211.471C13.8351 211.007 13.1194 211.724 13.583 212.189Z" fill="#1061FF"/>
<path d="M13.1844 220.042C16.0312 216.919 19.1463 214.065 22.1313 211.072C22.5949 210.607 21.8792 209.889 21.4156 210.354C18.4306 213.339 15.3154 216.193 12.4687 219.324C12.0295 219.805 12.7452 220.531 13.1844 220.042Z" fill="#1061FF"/>
<path d="M166.713 85.0599V96.7779C166.713 97.4303 167.729 97.4385 167.729 96.7779V85.0599C167.729 84.4075 166.713 84.3994 166.713 85.0599Z" fill="#1061FF"/>
<path d="M162.857 91.347H171.43C172.081 91.347 172.089 90.3277 171.43 90.3277H162.857C162.207 90.3277 162.199 91.347 162.857 91.347Z" fill="#1061FF"/>
<path d="M164.842 89.1698C166.404 90.7354 167.957 92.2929 169.519 93.8586C169.982 94.3234 170.698 93.6058 170.235 93.141C168.673 91.5753 167.119 90.0178 165.558 88.4522C165.094 87.9874 164.378 88.7049 164.842 89.1698Z" fill="#1061FF"/>
<path d="M164.932 93.5406C166.518 91.7955 168.258 90.2054 169.917 88.5419C170.381 88.0771 169.665 87.3595 169.202 87.8243C167.542 89.4878 165.802 91.0779 164.216 92.823C163.777 93.3041 164.492 94.0299 164.932 93.5406Z" fill="#1061FF"/>
</g>
<defs>
<clipPath id="clip0_320_13780">
<rect width="250" height="320" fill="white"/>
</clipPath>
</defs>
</svg>
