<svg width="292" height="197" viewBox="0 0 292 197" fill="none" xmlns="http://www.w3.org/2000/svg">
<g clip-path="url(#clip0_320_14677)">
<path d="M47.367 67.0226C47.8112 66.7478 48.3653 66.7615 48.8094 67.0318C48.9285 67.1051 49.0521 67.1738 49.1804 67.2425C49.3086 67.3112 49.4368 67.3753 49.565 67.4349C50.0367 67.6548 50.3526 68.1083 50.3709 68.6305L50.4259 70.4079L56.2094 70.2292L56.1544 68.4518C56.1407 67.9296 56.4246 67.4532 56.8825 67.2058C57.1344 67.0684 57.3771 66.9172 57.6152 66.7523C58.041 66.4546 58.5951 66.4134 59.053 66.6607L60.6145 67.499L63.3483 62.3959L61.7868 61.5576C61.3289 61.3103 61.0587 60.8293 61.0679 60.3116C61.0725 60.0231 61.0679 59.7345 61.0404 59.4504C60.9946 58.9328 61.2327 58.4289 61.6769 58.1541L63.188 57.215L60.1383 52.2951L58.6226 53.2342C58.183 53.5091 57.6289 53.4907 57.1847 53.2251C57.0657 53.1518 56.942 53.083 56.8138 53.0143C56.6902 52.9456 56.562 52.8815 56.4338 52.8219C55.9621 52.5975 55.6416 52.144 55.6278 51.6263L55.5729 49.849L49.7894 50.0276L49.8443 51.8004C49.8626 52.3226 49.5742 52.799 49.1208 53.051C48.869 53.1884 48.6217 53.3396 48.3836 53.5091C47.9577 53.8068 47.4036 53.848 46.9457 53.6007L45.3842 52.7624L42.6459 57.8655L44.2074 58.7038C44.6653 58.9511 44.9355 59.4321 44.9263 59.9543C44.9217 60.2429 44.9263 60.5315 44.9538 60.8201C44.9996 61.3378 44.7569 61.8417 44.3173 62.1165L42.8107 63.051L45.8605 67.9708L47.367 67.0363V67.0226ZM48.8186 57.8884C50.055 55.5796 52.9307 54.7138 55.2386 55.9507C57.5465 57.1875 58.412 60.0643 57.171 62.373C55.9346 64.6818 53.0635 65.5476 50.7556 64.3107C48.4477 63.0739 47.5776 60.1971 48.814 57.8929L48.8186 57.8884Z" fill="#DBDBDB"/>
<path d="M236.395 77.1463C236.711 77.3295 236.885 77.6777 236.867 78.0396C236.862 78.1404 236.858 78.2366 236.858 78.3373C236.858 78.4381 236.858 78.5389 236.867 78.6397C236.885 79.0016 236.711 79.3497 236.395 79.5329L235.319 80.1559L237.343 83.6695L238.419 83.0465C238.735 82.8632 239.124 82.8815 239.431 83.0831C239.601 83.193 239.775 83.2938 239.953 83.3854C240.278 83.5504 240.484 83.8802 240.484 84.2421V85.4835H244.541V84.2421C244.541 83.8802 244.748 83.5504 245.073 83.3854C245.251 83.2938 245.425 83.193 245.595 83.0831C245.902 82.8815 246.291 82.8632 246.607 83.0465L247.683 83.6695L249.707 80.1559L248.626 79.5284C248.31 79.3451 248.136 79.0016 248.159 78.6351C248.164 78.5343 248.168 78.4381 248.168 78.3373C248.168 78.2366 248.168 78.1358 248.159 78.0396C248.141 77.6731 248.315 77.325 248.631 77.1463L249.711 76.5233L247.687 73.0098L246.611 73.6328C246.295 73.816 245.906 73.7977 245.599 73.6007C245.43 73.4908 245.256 73.39 245.073 73.2984C244.748 73.1335 244.541 72.8037 244.541 72.4418V71.2003H240.484V72.4418C240.484 72.8037 240.274 73.1335 239.953 73.2984C239.775 73.39 239.596 73.4908 239.427 73.6007C239.12 73.8023 238.731 73.816 238.415 73.6328L237.338 73.0098L235.314 76.5233L236.391 77.1463H236.395ZM242.517 75.0162C244.349 75.0162 245.842 76.505 245.842 78.3419C245.842 80.1788 244.354 81.663 242.517 81.663C240.681 81.663 239.198 80.1788 239.198 78.3419C239.198 76.505 240.681 75.0162 242.517 75.0162Z" fill="#DBDBDB"/>
<path d="M256.667 111.791C256.667 120.513 263.737 127.586 272.456 127.586C281.175 127.586 288.245 120.513 288.245 111.791C288.245 103.069 281.179 95.9966 272.456 95.9966C263.733 95.9966 256.667 103.065 256.667 111.791ZM265.079 111.791C265.079 107.714 268.381 104.412 272.456 104.412C276.532 104.412 279.833 107.714 279.833 111.791C279.833 115.868 276.532 119.167 272.456 119.167C268.381 119.167 265.079 115.868 265.079 111.791Z" fill="#EBEBEB"/>
<path d="M269.42 96.6516H275.492L275.153 92.3548H269.754L269.42 96.6516Z" fill="#EBEBEB"/>
<path d="M280.978 98.6993L285.269 102.996L288.071 99.7162L284.252 95.8958L280.978 98.6993Z" fill="#EBEBEB"/>
<path d="M287.7 108.319V114.393L292 114.059V108.658L287.7 108.319Z" fill="#EBEBEB"/>
<path d="M285.658 119.881L281.363 124.178L284.637 126.982L288.456 123.161L285.658 119.881Z" fill="#EBEBEB"/>
<path d="M276.037 126.61H269.965L270.299 130.912H275.703L276.037 126.61Z" fill="#EBEBEB"/>
<path d="M264.479 124.563L260.189 120.271L257.386 123.546L261.205 127.366L264.479 124.563Z" fill="#EBEBEB"/>
<path d="M257.752 114.943V108.869L253.457 109.203V114.604L257.752 114.943Z" fill="#EBEBEB"/>
<path d="M259.799 103.381L264.095 99.0841L260.816 96.2806L256.997 100.101L259.799 103.381Z" fill="#EBEBEB"/>
<path d="M3.20996 35.6849C3.20996 44.4069 10.2802 51.4797 18.9989 51.4797C27.7177 51.4797 34.7879 44.4069 34.7879 35.6849C34.7879 26.963 27.7223 19.8901 18.9989 19.8901C10.2756 19.8901 3.20996 26.963 3.20996 35.6849ZM11.6219 35.6849C11.6219 31.608 14.9235 28.3052 18.9989 28.3052C23.0744 28.3052 26.376 31.608 26.376 35.6849C26.376 39.7619 23.0744 43.0601 18.9989 43.0601C14.9235 43.0601 11.6219 39.7619 11.6219 35.6849Z" fill="#EBEBEB"/>
<path d="M15.963 20.5452H22.035L21.7007 16.2483H16.2973L15.963 20.5452Z" fill="#EBEBEB"/>
<path d="M27.5209 22.5928L31.8116 26.8897L34.614 23.6098L30.795 19.7893L27.5209 22.5928Z" fill="#EBEBEB"/>
<path d="M34.243 32.2126V38.2869L38.5429 37.9525V32.5516L34.243 32.2126Z" fill="#EBEBEB"/>
<path d="M32.2008 43.7747L27.9055 48.0716L31.1842 50.8751L35.0032 47.0546L32.2008 43.7747Z" fill="#EBEBEB"/>
<path d="M22.5799 50.504H16.5079L16.8468 54.8054H22.2456L22.5799 50.504Z" fill="#EBEBEB"/>
<path d="M11.0221 48.4564L6.73141 44.1641L3.92896 47.4394L7.74798 51.2598L11.0221 48.4564Z" fill="#EBEBEB"/>
<path d="M4.29984 38.8366V32.7623L0 33.0967V38.4976L4.29984 38.8366Z" fill="#EBEBEB"/>
<path d="M6.34219 27.2745L10.6374 22.9776L7.35876 20.1741L3.54431 23.9946L6.34219 27.2745Z" fill="#EBEBEB"/>
<path d="M169.503 54.1504C166.741 54.1962 159.772 54.3107 157.102 54.3382L152.921 54.3565H152.711V54.1458L152.692 49.0198V48.7908H152.921L161.214 48.8228C163.279 48.8412 167.442 48.887 169.507 48.9145H169.617V49.0198L169.512 54.1458L169.503 54.1504ZM169.503 54.1504L169.397 49.0244L169.503 49.1298C167.433 49.1572 163.279 49.203 161.21 49.2214L152.917 49.2534L153.146 49.0244L153.127 54.1504L152.917 53.9397L157.029 53.958C159.657 53.9855 166.782 54.1046 169.503 54.1458V54.1504Z" fill="#EBEBEB"/>
<path d="M160.253 60.614C157.491 60.6598 150.522 60.7743 147.852 60.8018L143.671 60.8201H143.461V60.6094L143.443 55.4834V55.2544H143.671L151.964 55.2864C154.03 55.3048 158.192 55.3506 160.257 55.378H160.367V55.4834L160.262 60.6094L160.253 60.614ZM160.253 60.614L160.147 55.488L160.253 55.5933C158.183 55.6208 154.03 55.6666 151.96 55.685L143.667 55.717L143.896 55.488L143.878 60.614L143.667 60.4033L147.779 60.4216C150.407 60.4491 157.533 60.5682 160.253 60.6094V60.614Z" fill="#EBEBEB"/>
<path d="M178.757 55.488H162.171V60.614H178.757V55.488Z" fill="#EBEBEB"/>
<path d="M108.883 97.7281C106.122 97.7739 99.1527 97.8884 96.483 97.9159L92.3023 97.9343H92.0962V97.7235L92.0779 92.5976V92.3685H92.3068L100.6 92.4006C102.665 92.4189 106.827 92.4647 108.893 92.4922H109.002V92.5976L108.897 97.7235L108.883 97.7281ZM108.883 97.7281L108.778 92.6021L108.883 92.7075C106.814 92.735 102.66 92.7808 100.591 92.7991L92.2977 92.8312L92.5266 92.6021L92.5083 97.7281L92.2977 97.5174L96.4098 97.5357C99.0382 97.5632 106.163 97.6823 108.883 97.7235V97.7281Z" fill="#EBEBEB"/>
<path d="M281.266 12.3454C278.505 12.3912 271.536 12.5057 268.866 12.5332L264.685 12.5516H264.475V12.3408L264.456 7.21485V6.98581H264.685L272.978 7.01788C275.043 7.0362 279.206 7.08201 281.271 7.10949H281.381V7.21485L281.276 12.3408L281.266 12.3454ZM281.266 12.3454L281.161 7.21943L281.266 7.32479C279.197 7.35228 275.043 7.39809 272.974 7.41641L264.681 7.44848L264.91 7.21943L264.891 12.3454L264.681 12.1347L268.793 12.153C271.421 12.1805 278.546 12.2996 281.266 12.3408V12.3454Z" fill="#EBEBEB"/>
<path d="M290.521 13.683H273.935V18.809H290.521V13.683Z" fill="#EBEBEB"/>
<path d="M18.0648 12.35C15.3035 12.3958 8.33404 12.5103 5.66438 12.5378L1.4836 12.5561H1.27296V12.3454L1.25464 7.21943V6.99039H1.4836L9.77648 7.02245C11.8417 7.04078 16.0041 7.08658 18.0694 7.11407H18.1793V7.21943L18.0694 12.3454L18.0648 12.35ZM18.0648 12.35L17.9595 7.22401L18.0648 7.32937C15.995 7.35686 11.8417 7.40266 9.7719 7.42099L1.47902 7.45305L1.70798 7.22401L1.68966 12.35L1.47902 12.1393L5.59111 12.1576C8.21956 12.1851 15.3447 12.3042 18.0648 12.3454V12.35Z" fill="#EBEBEB"/>
<path d="M10.7335 166.043C13.4902 165.997 20.5512 165.882 23.2072 165.855L27.3193 165.836L27.1086 166.047L27.0903 160.921L27.3193 161.15L19.0264 161.118C16.9612 161.1 12.7987 161.054 10.7335 161.026L10.8388 160.921L10.7335 166.047V166.043ZM10.7335 166.043L10.6282 160.917V160.811H10.7335C12.8033 160.784 16.9566 160.738 19.0264 160.72L27.3193 160.688H27.5482V160.917L27.5299 166.043V166.253H27.3193L23.1385 166.235C20.4963 166.207 13.4627 166.088 10.7381 166.047L10.7335 166.043Z" fill="#EBEBEB"/>
<path d="M1.47906 172.502H18.0648V167.376H1.47906V172.502Z" fill="#EBEBEB"/>
<path d="M273.935 166.047C276.692 166.001 283.753 165.887 286.409 165.859L290.521 165.841L290.31 166.052L290.292 160.926L290.521 161.155L282.228 161.123C280.163 161.104 276 161.059 273.935 161.031L274.04 160.926L273.935 166.052V166.047ZM273.935 166.047L273.83 160.921V160.816H273.935C276.005 160.788 280.158 160.742 282.228 160.724L290.521 160.692H290.75V160.921L290.732 166.047V166.258H290.521L286.34 166.239C283.698 166.212 276.664 166.093 273.94 166.052L273.935 166.047Z" fill="#EBEBEB"/>
<path d="M280.946 172.657H229.6V196.739H280.946V172.657Z" fill="#EBEBEB"/>
<path opacity="0.1" d="M280.95 172.657H263.948V196.739H280.95V172.657Z" fill="#020100"/>
<path opacity="0.1" d="M280.95 172.657H229.6V177.948L280.95 175.305V172.657Z" fill="#020100"/>
<path d="M283.176 168.09H227.374V174.128H283.176V168.09Z" fill="#EBEBEB"/>
<path opacity="0.1" d="M283.176 168.09H264.699V174.128H283.176V168.09Z" fill="#020100"/>
<path d="M252.724 177.385H240.823V181.077H252.724V177.385Z" fill="#A6A6A6"/>
<path d="M258.073 140.596H225.053V164.54H258.073V140.596Z" fill="#EBEBEB"/>
<path d="M236.716 138.113H225.053V140.596H237.389L236.716 138.113Z" fill="#EBEBEB"/>
<g opacity="0.3">
<path d="M258.073 140.596H225.053V164.54H258.073V140.596Z" fill="#1F1E21"/>
<path d="M236.716 138.113H225.053V140.596H237.389L236.716 138.113Z" fill="#1F1E21"/>
</g>
<path d="M235.74 139.084H226.197V140.527H235.74V139.084Z" fill="white"/>
<path d="M258.068 164.54H225.048L224.81 142.08H257.83L258.068 164.54Z" fill="#EBEBEB"/>
<path d="M236.455 139.803H224.787L224.81 142.08H237.146L236.455 139.803Z" fill="#EBEBEB"/>
<g opacity="0.1">
<path d="M258.068 164.54H225.048L224.81 142.08H257.83L258.068 164.54Z" fill="#1F1E21"/>
<path d="M236.455 139.803H224.787L224.81 142.08H237.146L236.455 139.803Z" fill="#1F1E21"/>
</g>
<path d="M253.814 142.401H220.794V166.345H253.814V142.401Z" fill="#EBEBEB"/>
<path d="M232.462 139.918H220.794V142.401H233.13L232.462 139.918Z" fill="#EBEBEB"/>
<g opacity="0.2">
<path d="M253.814 142.401H220.794V166.345H253.814V142.401Z" fill="white"/>
<path d="M232.462 139.918H220.794V142.401H233.13L232.462 139.918Z" fill="white"/>
</g>
<path d="M231.482 140.889H221.939V142.332H231.482V140.889Z" fill="white"/>
<path d="M253.814 166.345H220.794L220.556 143.885H253.576L253.814 166.345Z" fill="#EBEBEB"/>
<path d="M232.196 141.608H220.528L220.556 143.885H232.892L232.196 141.608Z" fill="#EBEBEB"/>
<g opacity="0.4">
<path d="M253.814 166.345H220.794L220.556 143.885H253.576L253.814 166.345Z" fill="white"/>
<path d="M232.196 141.608H220.528L220.556 143.885H232.892L232.196 141.608Z" fill="white"/>
</g>
<path d="M270.757 144.013H219.411V168.095H270.757V144.013Z" fill="#DBDBDB"/>
<path d="M270.757 144.013H253.755V168.095H270.757V144.013Z" fill="#C7C7C7"/>
<path opacity="0.1" d="M270.757 144.013H219.411V149.304L270.757 146.656V144.013Z" fill="#020100"/>
<path d="M242.536 148.736H230.635V152.428H242.536V148.736Z" fill="#A6A6A6"/>
<path d="M281.73 141.592L226.908 131.18L225.782 137.111L280.604 147.523L281.73 141.592Z" fill="#DBDBDB"/>
<path d="M281.732 141.594L263.58 138.146L262.454 144.078L280.607 147.525L281.732 141.594Z" fill="#C7C7C7"/>
<path d="M154.231 21.0903L139.701 49.4871L135.617 43.1563L87.1646 74.494L78.0245 60.3529L126.468 29.0198L122.383 22.6936L154.231 21.0903Z" fill="#EBEBEB"/>
<path d="M59.7445 72.1761L68.8845 86.3172L67.6527 87.1097L58.5127 72.9731L59.7445 72.1761Z" fill="#EBEBEB"/>
<path d="M66.1462 68.035L75.2863 82.1715L71.1009 84.8834L61.9655 70.7423L66.1462 68.035Z" fill="#EBEBEB"/>
<path d="M75.1671 62.2035L84.3071 76.3447L77.8413 80.5224L68.7013 66.3767L75.1671 62.2035Z" fill="#EBEBEB"/>
<path d="M74.9611 103.156L66.572 119.547L64.2092 115.896L36.2579 133.976L30.9781 125.818L58.9386 107.733L56.5803 104.082L74.9611 103.156Z" fill="#DBDBDB"/>
<path d="M29.3297 126.885L34.6049 135.044L30.8774 137.458L25.5977 129.295L29.3297 126.885Z" fill="#DBDBDB"/>
<path d="M24.1293 130.245L21.714 131.806L26.9877 139.971L29.4031 138.409L24.1293 130.245Z" fill="#DBDBDB"/>
<path d="M20.4277 132.639L25.7075 140.802L24.9932 141.26L19.7225 133.097L20.4277 132.639Z" fill="#DBDBDB"/>
<path d="M60.7245 159.442C57.4504 154.558 52.9582 147.843 49.8077 142.964C50.0779 142.79 51.3463 141.961 51.6165 141.787C54.7166 146.624 59.2271 153.656 62.1898 158.493L62.2127 158.53L62.1761 158.553L60.7245 159.442ZM60.7245 159.442L62.1303 158.48L62.1165 158.539C58.9936 153.954 54.419 146.94 51.3509 142.227L51.6669 142.295L50.2336 143.216L50.2977 142.909C53.3474 147.627 57.6977 154.595 60.7199 159.442H60.7245Z" fill="#EBEBEB"/>
<path d="M161.21 82.8174C160.972 83.1152 144.551 115.758 144.354 116.015L144.239 115.836L139.486 108.498C140.393 108.383 83.2586 144.952 83.4829 144.975L83.2998 145.094L83.1807 144.911L72.5754 128.498L72.4563 128.315L72.6395 128.195C72.6807 128.347 129.247 91.3745 128.872 92.0891L124.137 84.7414L124.022 84.5627C124.201 84.5398 161.008 82.8357 161.205 82.8174H161.21ZM161.21 82.8174C161.21 82.7029 123.711 85.1216 124.343 84.6131L129.101 91.9517C129.417 92.1853 72.9325 128.392 72.8822 128.566L72.9463 128.264L83.5516 144.677L83.254 144.613C83.4417 144.65 139.619 107.957 139.711 108.356L144.45 115.703C143.704 116.148 161.379 82.7762 161.214 82.8128L161.21 82.8174Z" fill="#EBEBEB"/>
<path d="M58.9798 137.298C60.784 140.005 65.3449 146.849 67.0758 149.474L69.7638 153.596L69.8783 153.77L69.6997 153.885L64.8503 157.037L64.658 157.16L64.5344 156.968C62.7805 154.238 58.3067 147.275 56.6399 144.622L54.0343 140.49L53.9794 140.403L54.0664 140.348L58.9798 137.293V137.298ZM58.9798 137.298L54.1763 140.527L54.2083 140.385L56.9055 144.458C58.6226 147.041 63.1743 154.036 64.9236 156.725L64.6076 156.656L69.4753 153.537L69.4112 153.825L66.7965 149.744C65.1388 147.124 60.6833 140.014 58.9798 137.298Z" fill="#EBEBEB"/>
<path d="M69.4432 130.527C72.6349 135.355 77.1225 142.03 80.2226 146.83L80.3325 147L80.1631 147.11L72.6761 151.984L72.4838 152.108L72.3602 151.915L67.0804 143.692C65.2899 140.921 63.5407 138.122 61.7686 135.337C63.7101 134.118 67.5017 131.736 69.4432 130.527ZM69.4432 130.527C67.5978 131.769 63.8658 134.251 62.0158 135.484L62.0525 135.305C63.8383 138.031 65.6471 140.738 67.4147 143.473L72.7403 151.663L72.4243 151.594L79.9387 146.766L79.8792 147.046C76.8386 142.318 72.4792 135.36 69.4387 130.523L69.4432 130.527Z" fill="#EBEBEB"/>
<path d="M1.43323 196.739C94.0515 196.459 197.948 196.455 290.571 196.739C197.953 197.023 94.0561 197.018 1.43323 196.739Z" fill="#263238"/>
<path d="M24.2375 99.7712C24.2375 99.7712 11.9149 98.0442 14.7952 83.1656C14.7952 83.1656 28.5602 86.2576 24.2375 99.7712Z" fill="#1061FF"/>
<path opacity="0.1" d="M24.2375 99.7712C24.2375 99.7712 11.9149 98.0442 14.7952 83.1656C14.7952 83.1656 28.5602 86.2576 24.2375 99.7712Z" fill="#1F1E21"/>
<path d="M23.6147 96.6654C23.372 95.9141 23.0881 95.172 22.7767 94.4482C22.7676 94.352 22.7538 94.2604 22.7447 94.1688C22.7263 93.9627 22.708 93.7611 22.6943 93.555C22.6577 93.1106 22.6302 92.6663 22.6073 92.2219C22.5569 91.3333 22.4974 90.4446 22.4836 89.5559C22.4836 89.5055 22.4104 89.5101 22.4104 89.5559C22.4012 90.4446 22.3875 91.3378 22.4241 92.2265C22.4424 92.6709 22.4653 93.1152 22.4974 93.5595C22.502 93.6603 22.5111 93.7565 22.5203 93.8573C21.8334 92.3731 21 90.9576 20.0521 89.6337C19.6308 89.0428 19.1821 88.4748 18.7058 87.9251C18.2159 87.3616 17.6938 86.8257 17.1993 86.2714C17.1672 86.2347 17.1123 86.2897 17.1489 86.3264C18.0556 87.27 18.802 88.3923 19.5255 89.4826C19.901 90.0506 20.2536 90.6324 20.5879 91.2233C20.5512 91.2096 20.51 91.1958 20.4734 91.1775C20.3269 91.1179 20.1803 91.0584 20.0338 90.9988C19.6995 90.8706 19.3652 90.7423 19.0264 90.6186C18.367 90.3713 17.703 90.1331 17.0436 89.8811C17.0024 89.8674 16.9749 89.9361 17.0161 89.9498C17.6709 90.2109 18.3212 90.4858 18.9668 90.7652C19.2828 90.9026 19.6033 91.0401 19.9193 91.1775C20.0796 91.2462 20.2399 91.3103 20.4001 91.3745C20.51 91.4203 20.6153 91.4707 20.7252 91.489C20.9725 91.9333 21.2198 92.3823 21.4442 92.8403C22.012 93.9901 22.5203 95.1812 22.9507 96.3905C22.9828 96.4776 23.0102 96.56 23.0377 96.647C22.7355 96.4409 22.3463 96.3081 22.0303 96.1615C21.6044 95.9645 21.1786 95.7767 20.7573 95.5797C19.8918 95.1812 19.0355 94.7781 18.2067 94.3108C18.1655 94.2879 18.1289 94.352 18.1701 94.3749C19.0172 94.8376 19.846 95.3278 20.6932 95.7904C21.1191 96.0195 21.5449 96.2439 21.9754 96.4546C22.3325 96.6287 22.7309 96.8669 23.1339 96.9173C23.5185 98.0534 23.8437 99.2077 23.9398 100.413C24.0772 102.094 24.0635 103.793 24.1001 105.479C24.1001 105.506 24.1413 105.506 24.1459 105.479C24.2695 103.949 24.3382 102.405 24.3428 100.871C24.3474 99.4093 24.0589 98.0534 23.6147 96.67V96.6654Z" fill="#263238"/>
<path d="M21.7189 87.9159C21.6228 88.7817 21.5358 89.6704 21.5953 90.5408C21.5953 90.5637 21.6319 90.5637 21.6319 90.5408C21.6823 89.6704 21.6869 88.8046 21.7922 87.9342C21.7968 87.8884 21.7235 87.8701 21.7189 87.9159Z" fill="#263238"/>
<path d="M18.1976 88.6626C17.6526 88.429 17.1077 88.2137 16.6132 87.8839C16.572 87.8564 16.5353 87.9251 16.5765 87.948C17.0757 88.2595 17.6069 88.5618 18.1747 88.713C18.2067 88.7221 18.225 88.6718 18.193 88.6626H18.1976Z" fill="#263238"/>
<path d="M24.6314 123.395C24.6222 122.034 24.5947 120.669 24.581 119.309C24.5535 114.787 24.5169 110.261 24.439 105.74C24.3749 102.149 24.2879 98.5619 24.1872 94.9705C24.1872 94.9476 24.1734 94.9338 24.1551 94.9246C24.1505 93.9443 24.146 92.964 24.1414 91.9837C24.1414 91.9608 24.1139 91.9471 24.0819 91.9471C24.0544 91.9471 24.0223 91.9608 24.0223 91.9837C24.0178 92.964 24.0086 93.9489 24.004 94.9292C23.9903 94.9384 23.9765 94.9521 23.9765 94.9705C23.7934 101.361 23.6331 107.751 23.5965 114.146C23.5873 115.447 23.5873 116.743 23.5827 118.044C23.5415 122.213 23.5186 126.377 23.5369 130.545C23.5369 131.21 23.5232 131.874 23.5232 132.534C23.5095 136.345 23.5644 140.161 23.5644 143.972C23.5644 144.178 23.7934 144.279 24.0361 144.288C24.3108 144.297 24.6085 144.187 24.6085 143.954C24.6085 139.748 24.6359 135.543 24.6359 131.342C24.6497 128.69 24.6588 126.042 24.6359 123.39L24.6314 123.395Z" fill="#263238"/>
<path d="M19.4889 119.254C19.4889 119.254 13.5635 114.861 7.94023 117.829C2.31701 120.797 1.43323 132.236 1.43323 132.236C1.43323 132.236 9.69405 133.418 14.8914 128.466C19.901 123.692 19.4889 119.254 19.4889 119.254Z" fill="#1061FF"/>
<path d="M21.1007 119.524C20.0292 119.075 18.834 118.96 17.6663 119.075C17.4282 119.02 17.1809 119.02 16.9382 119.006C16.6589 118.988 16.3796 118.965 16.1048 118.942C15.5279 118.896 14.9509 118.864 14.3785 118.818C13.2108 118.731 12.0385 118.658 10.8708 118.544C10.8296 118.544 10.8205 118.612 10.8617 118.617C12.0156 118.763 13.165 118.928 14.3235 119.047C14.9188 119.107 15.5141 119.171 16.114 119.212C16.2559 119.222 16.3979 119.24 16.549 119.254C16.3704 119.295 16.1964 119.336 16.0224 119.382C15.0928 119.643 14.1953 120.023 13.339 120.472C12.8719 120.555 12.4094 120.687 11.9515 120.793C11.2189 120.967 10.4862 121.155 9.7581 121.347C8.32024 121.723 6.89612 122.149 5.46742 122.566C5.42163 122.579 5.44452 122.648 5.49031 122.639C6.91901 122.291 8.3523 121.97 9.781 121.626C10.477 121.462 11.1731 121.297 11.8645 121.127C12.0431 121.081 12.2263 121.04 12.4094 121.003C10.8113 121.988 9.37803 123.248 8.1966 124.668C7.01976 126.084 6.07645 127.637 5.27051 129.286C5.24762 129.327 5.30715 129.368 5.33462 129.327C6.29167 127.65 7.49599 126.065 8.8789 124.677C8.85142 124.755 8.82853 124.833 8.80105 124.916C8.69115 125.264 8.58125 125.612 8.47135 125.965C8.25155 126.661 8.03175 127.362 7.82111 128.063C7.80737 128.108 7.87606 128.127 7.89438 128.081C8.14623 127.403 8.37977 126.725 8.61789 126.042C8.73695 125.708 8.85142 125.374 8.97048 125.039C9.03001 124.865 9.08954 124.691 9.14907 124.517C9.16739 124.462 9.19028 124.412 9.20402 124.357C9.868 123.711 10.5686 123.111 11.3059 122.566C12.2766 121.846 13.339 121.242 14.4518 120.761C14.4334 120.861 14.4105 120.967 14.3922 121.063C14.3327 121.333 14.2732 121.604 14.2182 121.874C14.1037 122.433 13.9938 122.996 13.8839 123.56C13.6596 124.705 13.5222 125.868 13.307 127.018C13.2978 127.064 13.3711 127.082 13.3802 127.036C13.6458 125.882 13.9893 124.746 14.2457 123.592C14.3739 123.014 14.5067 122.437 14.6258 121.856C14.6807 121.585 14.7357 121.315 14.7906 121.04C14.8227 120.889 14.8547 120.738 14.873 120.587C14.9829 120.545 15.0883 120.495 15.1936 120.454C16.7459 119.877 18.4677 119.46 20.1253 119.776C21.7097 120.078 23.0698 121.145 23.6925 122.634C23.7475 122.763 23.949 122.685 23.9215 122.552C23.6009 121.127 22.4104 120.069 21.1099 119.524H21.1007Z" fill="#263238"/>
<path d="M12.0294 124.412C11.86 125.163 11.6951 125.914 11.5303 126.665C11.37 127.385 11.1777 128.122 11.1182 128.855C11.1182 128.883 11.1594 128.883 11.1685 128.86C11.4112 128.154 11.5257 127.385 11.6722 126.652C11.8188 125.91 11.9653 125.167 12.1073 124.425C12.1164 124.38 12.0432 124.361 12.034 124.407L12.0294 124.412Z" fill="#263238"/>
<path d="M6.30083 126.322C5.54527 126.707 4.8126 127.142 4.02498 127.453C3.97461 127.472 4.00667 127.545 4.05704 127.522C4.81718 127.142 5.60022 126.807 6.31915 126.349C6.33747 126.336 6.31915 126.313 6.30083 126.322Z" fill="#263238"/>
<path d="M20.8215 111.191C20.8215 111.191 13.5772 111.654 10.2115 106.876C6.84126 102.098 7.59682 95.2774 7.59682 95.2774C7.59682 95.2774 15.2028 96.2027 18.2251 99.6338C21.2473 103.065 20.8215 111.196 20.8215 111.196V111.191Z" fill="#1061FF"/>
<path d="M24.2192 118.337C23.9674 117.563 23.656 116.798 23.3629 116.033C23.0836 115.3 22.7814 114.577 22.4608 113.862C21.8106 112.401 21.0917 110.976 20.2903 109.593C19.7774 108.713 19.2325 107.856 18.6693 107.014C18.6555 106.885 18.6326 106.757 18.6143 106.629C18.5823 106.404 18.5502 106.18 18.5136 105.955C18.4403 105.497 18.3625 105.039 18.2846 104.581C18.1198 103.582 17.9137 102.588 17.7534 101.585C17.7443 101.539 17.671 101.539 17.6802 101.585C17.8267 102.575 17.9274 103.569 18.0648 104.558C18.1335 105.044 18.1976 105.529 18.2709 106.015C18.2984 106.189 18.3258 106.368 18.3533 106.542C17.2451 104.929 16.0546 103.376 14.7724 101.892C14.5984 101.691 14.4198 101.498 14.2458 101.301C14.2275 101.246 14.2 101.191 14.1771 101.136C14.1222 100.999 14.0718 100.861 14.0214 100.719C13.9161 100.431 13.8108 100.142 13.7054 99.8536C13.504 99.2856 13.3208 98.713 13.1651 98.1312C13.1514 98.0854 13.0827 98.1083 13.0918 98.1541C13.2384 98.7497 13.3941 99.3406 13.5681 99.9315C13.6505 100.216 13.7467 100.495 13.8428 100.774C13.8611 100.82 13.8795 100.866 13.8932 100.916C12.9682 99.9086 12.002 98.9329 11.0266 97.9709C10.99 97.9388 10.9396 97.9892 10.9763 98.0259C12.8675 99.9636 14.5434 102.103 16.1095 104.315C15.9309 104.26 15.7523 104.215 15.5737 104.178C15.0151 104.068 14.4519 103.99 13.8886 103.917C12.7072 103.766 11.5303 103.619 10.3581 103.431C10.3123 103.422 10.294 103.495 10.3398 103.505C11.4617 103.724 12.5744 103.981 13.6871 104.233C14.2137 104.352 14.7403 104.457 15.2715 104.563C15.7111 104.65 16.1233 104.783 16.5445 104.925C16.659 105.094 16.7827 105.259 16.8971 105.424C17.4283 106.198 17.9366 106.986 18.4357 107.783C18.1885 107.733 17.9412 107.687 17.6985 107.637C17.1398 107.527 16.5766 107.426 16.0134 107.334C14.9098 107.151 13.8016 106.959 12.7118 106.711C12.666 106.702 12.6477 106.775 12.6935 106.784C13.8016 107.046 14.9006 107.348 15.9996 107.641C16.5308 107.783 17.0666 107.911 17.6023 108.03C17.8725 108.09 18.1381 108.15 18.4083 108.205C18.5227 108.227 18.6326 108.26 18.7334 108.26C19.7912 109.977 20.7848 111.732 21.7053 113.523C22.1082 114.311 22.4975 115.108 22.8729 115.91C23.2622 116.734 23.5919 117.572 23.9491 118.406C24.0223 118.571 24.2833 118.502 24.2284 118.324L24.2192 118.337Z" fill="#263238"/>
<path d="M16.8056 101.686C16.6682 100.994 16.5217 100.307 16.3706 99.6154C16.3614 99.5696 16.2881 99.588 16.2973 99.6383C16.4347 100.316 16.5675 100.999 16.6865 101.677C16.8102 102.355 16.9063 103.047 17.0987 103.706C17.0987 103.72 17.1215 103.715 17.1215 103.706C17.0849 103.028 16.9384 102.35 16.8056 101.686Z" fill="#263238"/>
<path d="M12.5835 101.484C12.2492 101.315 11.8921 101.182 11.5441 101.045C11.3609 100.971 11.1777 100.903 10.9946 100.829C10.903 100.793 10.8068 100.756 10.7152 100.719C10.6145 100.678 10.4954 100.651 10.4084 100.587C10.3535 100.545 10.3168 100.642 10.3718 100.651C10.4771 100.669 10.5824 100.733 10.6832 100.779C10.7748 100.82 10.8663 100.861 10.9579 100.903C11.1319 100.981 11.3105 101.058 11.4845 101.136C11.8325 101.292 12.1897 101.448 12.5561 101.562C12.5973 101.576 12.6247 101.507 12.5835 101.489V101.484Z" fill="#263238"/>
<path d="M28.2351 105.493C28.2351 105.493 32.6174 97.3021 39.2892 96.0332C45.9565 94.7643 50.0365 101.626 50.0365 101.626C50.0365 101.626 45.1735 107.838 39.0511 108.924C32.9333 110.009 28.2351 105.488 28.2351 105.488V105.493Z" fill="#1061FF"/>
<path d="M43.7539 99.7025C42.0275 99.4643 40.2554 99.4918 38.5245 99.7666C38.6252 99.7116 38.726 99.6567 38.8221 99.6063C39.3167 99.3543 39.8112 99.0978 40.3012 98.8459C41.3269 98.3145 42.3618 97.7465 43.4334 97.3159C43.4837 97.2975 43.4517 97.2242 43.4013 97.2471C42.3572 97.7327 41.2766 98.1404 40.2325 98.6214C39.7105 98.8642 39.193 99.1115 38.6848 99.3818C38.3551 99.5559 37.9933 99.7208 37.6682 99.9315C36.2028 100.234 34.7741 100.697 33.4279 101.338C33.7072 101.036 33.9865 100.733 34.2613 100.431C34.884 99.7483 35.4931 99.0337 36.1754 98.4153C36.212 98.3832 36.157 98.3328 36.1204 98.3649C35.4244 98.997 34.6871 99.588 34.0094 100.243C33.6797 100.564 33.3683 100.894 33.0615 101.237C32.9104 101.407 32.7547 101.581 32.6128 101.764C29.7142 103.34 27.246 105.722 25.6204 108.599C24.6954 110.234 24.0497 112.002 23.6742 113.839C23.6651 113.885 23.7292 113.912 23.7475 113.862C24.6633 110.77 26.3897 107.866 28.6472 105.561C31.0971 103.065 34.1926 101.26 37.5812 100.39C39.596 99.872 41.675 99.6933 43.7447 99.8307C43.8317 99.8353 43.8363 99.7116 43.7539 99.6979V99.7025Z" fill="#263238"/>
<path opacity="0.1" d="M50.0365 101.631C50.0365 101.631 45.1734 107.847 39.0511 108.928C34.3849 109.757 30.543 107.32 28.9861 106.12L28.6472 105.566C28.6472 105.566 31.8023 102.905 37.7735 101.37C43.7447 99.8353 50.0365 101.631 50.0365 101.631Z" fill="#1F1E21"/>
<path d="M39.8799 96.7845C39.3717 97.0914 38.8725 97.4029 38.4009 97.7602C37.9384 98.1175 37.5079 98.5023 37.1141 98.9375C37.0775 98.9741 37.1324 99.0245 37.1691 98.9924C37.6133 98.6077 38.0574 98.2229 38.5154 97.8564C38.9687 97.4991 39.4266 97.1464 39.9166 96.844C39.9578 96.8211 39.9166 96.757 39.8754 96.7799L39.8799 96.7845Z" fill="#263238"/>
<path d="M43.5387 98.1679C43.2914 98.2733 43.0396 98.3603 42.7923 98.4611C42.545 98.5618 42.2977 98.6672 42.0505 98.768C41.9955 98.7909 42.023 98.8779 42.0779 98.855C42.3252 98.7542 42.5725 98.6535 42.8243 98.5527C43.0716 98.4519 43.3143 98.3374 43.5662 98.2366C43.612 98.2183 43.5891 98.145 43.5433 98.1633L43.5387 98.1679Z" fill="#263238"/>
<path d="M27.3605 115.8C27.3605 115.8 28.5327 123.926 34.6368 126.766C40.7454 129.606 48.1911 126.766 48.1911 126.766C48.1911 126.766 45.265 109.189 27.3605 115.8Z" fill="#1061FF"/>
<path d="M43.9828 121.48C43.4196 121.416 42.8609 121.32 42.3023 121.219C42.0275 121.168 41.7528 121.118 41.4826 121.063C41.3452 121.036 41.1987 121.003 41.0522 120.976C40.8873 120.825 40.727 120.665 40.5576 120.518C39.4037 119.496 38.149 118.594 36.821 117.811C36.0975 117.385 35.3511 117 34.5818 116.661C34.6184 116.661 34.6596 116.661 34.6963 116.665C35.3648 116.693 36.038 116.72 36.7065 116.752C38.0482 116.817 39.3854 116.844 40.727 116.931C40.7774 116.931 40.7728 116.858 40.727 116.858C39.3808 116.766 38.0437 116.62 36.702 116.505C36.0517 116.45 35.4015 116.391 34.7466 116.331C34.4124 116.299 34.0781 116.271 33.7392 116.244C33.6522 116.235 33.5652 116.226 33.4828 116.216C33.1348 116.088 32.7822 115.965 32.4296 115.855C30.7582 115.337 28.9677 115.131 27.2551 115.571C25.7165 115.965 24.1871 116.972 23.7887 118.594C23.775 118.649 23.862 118.69 23.8849 118.631C24.4573 117.275 25.9592 116.597 27.3147 116.313C28.2259 116.125 29.1601 116.134 30.0805 116.258C30.1171 116.675 30.2774 117.101 30.3873 117.485C30.5567 118.058 30.7216 118.631 30.8956 119.199C31.2436 120.339 31.6237 121.471 31.9625 122.611C31.9763 122.657 32.0449 122.634 32.0358 122.588C31.7519 121.448 31.5138 120.298 31.239 119.153C31.1062 118.594 30.9643 118.031 30.8223 117.472C30.7353 117.114 30.6574 116.688 30.5155 116.317C31.0513 116.413 31.5824 116.537 32.0999 116.693C33.0386 116.968 33.9636 117.311 34.8657 117.705C34.9573 118.282 35.0855 118.86 35.2183 119.428C35.3832 120.147 35.5709 120.857 35.7999 121.558C35.8136 121.604 35.8777 121.581 35.8685 121.535C35.8594 121.489 35.8502 121.448 35.8411 121.402C35.7037 120.738 35.5572 120.074 35.4198 119.409C35.3053 118.873 35.2046 118.337 35.0855 117.801C35.8457 118.14 36.5921 118.516 37.311 118.928C37.3247 119.093 37.3659 119.263 37.3888 119.414C37.4346 119.693 37.485 119.968 37.5354 120.248C37.6498 120.875 37.7735 121.498 37.9246 122.117C38.2131 123.308 38.5382 124.503 38.9732 125.648C38.9641 125.662 38.9595 125.681 38.9732 125.694C38.987 125.708 38.9961 125.722 39.0099 125.736C39.0373 125.768 39.0785 125.731 39.074 125.699C38.7901 124.494 38.4695 123.303 38.2039 122.094C38.0711 121.489 37.9383 120.889 37.8193 120.28C37.7597 119.977 37.7048 119.675 37.6453 119.368C37.6315 119.281 37.6178 119.189 37.6041 119.098C38.4283 119.588 39.2251 120.115 39.9806 120.683C41.2857 121.668 42.5312 122.79 43.6211 124.009C43.6669 124.059 43.7493 123.99 43.7127 123.935C43.2456 123.321 42.7831 122.726 42.2565 122.158C41.9497 121.828 41.6291 121.512 41.304 121.2C41.3361 121.205 41.3727 121.214 41.4048 121.219C41.6887 121.269 41.9772 121.31 42.2656 121.347C42.8289 121.42 43.3967 121.48 43.9645 121.544C44.0103 121.549 44.0286 121.475 43.9828 121.471V121.48Z" fill="#263238"/>
<path d="M39.6922 124.238C39.683 124.169 39.6693 124.096 39.6555 124.027C39.6372 123.935 39.596 123.853 39.5823 123.761C39.4541 123.216 39.3487 122.671 39.2526 122.121C39.248 122.085 39.1839 122.094 39.1885 122.13C39.2159 122.854 39.3945 123.578 39.651 124.251C39.6601 124.274 39.6968 124.27 39.6922 124.242C39.6922 124.242 39.6922 124.242 39.6922 124.238Z" fill="#263238"/>
<path d="M34.5772 124.105C34.5772 124.105 34.5589 124.073 34.5406 124.068C34.3711 123.349 34.2063 122.63 34.0552 121.906C33.9773 121.526 33.8995 121.146 33.8262 120.765C33.785 120.559 33.7484 120.353 33.7117 120.147C33.6797 119.968 33.6659 119.78 33.5789 119.62C33.5652 119.593 33.5148 119.597 33.5103 119.629C33.4599 119.968 33.6018 120.385 33.6614 120.719C33.7346 121.118 33.8125 121.512 33.8995 121.906C34.0781 122.708 34.2796 123.505 34.5039 124.297C34.5177 124.343 34.5864 124.329 34.5864 124.283C34.5864 124.224 34.5772 124.164 34.5726 124.105H34.5772Z" fill="#263238"/>
<path d="M43.4242 119.144C42.3069 118.992 41.1941 118.828 40.0768 118.695C40.031 118.69 40.0127 118.759 40.0585 118.768C41.1712 118.933 42.2886 119.07 43.4059 119.217C43.4517 119.222 43.47 119.153 43.4242 119.144Z" fill="#263238"/>
<path d="M24.2284 96.7432C24.2284 96.7432 20.4918 80.3392 38.1078 73.7061C38.1078 73.7061 42.9892 95.2957 24.2284 96.7432Z" fill="#1061FF"/>
<path d="M28.0336 87.4441C28.0977 87.4029 28.1618 87.3616 28.2214 87.3296C28.5556 87.1463 28.8853 86.9585 29.215 86.7707L31.2573 85.6255C32.6036 84.8742 33.927 84.0909 35.2824 83.3534C35.3237 83.3305 35.2824 83.2663 35.2412 83.2893C33.8858 84.0268 32.5075 84.7185 31.1429 85.4377L29.1235 86.505C28.8487 86.6516 28.574 86.7936 28.2992 86.9402C28.8853 85.827 29.5127 84.7322 30.2041 83.6786C31.1245 82.2723 32.132 80.9347 33.1852 79.6246C33.231 79.565 33.1531 79.4871 33.0982 79.5421C31.5458 81.0309 30.1996 82.7304 29.0273 84.5398C29.0273 84.4803 29.0273 84.4253 29.0319 84.3703C29.0502 83.9626 29.0639 83.5549 29.0685 83.1472C29.0822 82.3456 29.041 81.5439 29.0685 80.7469C29.0685 80.6965 28.9952 80.7011 28.9952 80.7469C28.9632 81.5348 28.867 82.3181 28.8212 83.106C28.7983 83.5 28.78 83.8939 28.7709 84.2833C28.7663 84.494 28.7434 84.7368 28.7525 84.9704C28.3908 85.5476 28.0428 86.134 27.7131 86.7295C27.1269 87.7877 26.6003 88.8962 26.1378 90.0323C26.1195 89.6246 26.0966 89.2169 26.0737 88.8092C26.0188 87.9113 25.9135 87.0181 25.8722 86.1202C25.8722 86.0698 25.7944 86.0744 25.799 86.1202C25.8173 87.0181 25.7761 87.9159 25.8036 88.8138C25.8173 89.2627 25.831 89.7116 25.8585 90.1605C25.8677 90.3255 25.8768 90.495 25.8906 90.6599C25.3273 92.1303 24.8786 93.6466 24.558 95.1674C24.2146 96.812 24.0772 98.4565 23.9032 100.119C23.9032 100.133 23.9215 100.129 23.9215 100.119C24.0772 98.6351 24.4527 97.1372 24.8557 95.7034C25.0755 94.9292 25.3044 94.1596 25.5517 93.3946C26.2844 93.0511 26.985 92.6205 27.6948 92.2265C28.4274 91.8188 29.1692 91.4203 29.9065 91.0172C31.3764 90.2109 32.8417 89.391 34.3574 88.6763C34.4032 88.6534 34.3574 88.5939 34.3162 88.6122C32.7776 89.3085 31.2345 89.9681 29.7233 90.7286C28.9723 91.1042 28.2351 91.5073 27.5024 91.9196C26.8888 92.2632 26.2615 92.6113 25.6799 93.0053C25.8493 92.4968 26.0279 91.9883 26.2248 91.4844C26.7606 90.1056 27.3651 88.7542 28.0336 87.4349V87.4441Z" fill="#263238"/>
<path d="M26.5454 83.6924C26.5454 83.6466 26.4675 83.6466 26.4721 83.6924C26.5362 84.6269 26.5683 85.5614 26.6644 86.4959C26.669 86.5462 26.7469 86.5462 26.7469 86.4959C26.7148 85.5568 26.6141 84.6269 26.5454 83.6924Z" fill="#263238"/>
<path d="M34.994 86.8257C33.8904 87.27 32.7777 87.6915 31.6833 88.1495C31.6512 88.1633 31.665 88.2137 31.697 88.1999C32.8098 87.7831 33.9088 87.3296 35.0169 86.8944C35.0627 86.8761 35.0398 86.8028 34.994 86.8211V86.8257Z" fill="#263238"/>
<path d="M36.6653 79.2581C35.5892 79.7574 34.5406 80.3117 33.5332 80.9393C33.4828 80.9713 33.5332 81.0492 33.5836 81.0171C34.6047 80.4216 35.6442 79.8444 36.7066 79.3222C36.7524 79.2993 36.7066 79.2398 36.6653 79.2581Z" fill="#263238"/>
<path d="M36.3997 132.213H10.9945V159.002H36.3997V132.213Z" fill="#455A64"/>
<path d="M10.5504 141.691H9.24988V196.739H10.5504V141.691Z" fill="#263238"/>
<path d="M38.0117 141.691H36.7112V196.739H38.0117V141.691Z" fill="#263238"/>
<path d="M24.9748 141.691H23.6743V196.739H24.9748V141.691Z" fill="#263238"/>
<path d="M37.366 157.284H9.90015V160.994H37.366V157.284Z" fill="#263238"/>
<path d="M33.5928 196.546C48.8597 194 88.6161 185.69 99.9038 180.152C162.501 149.973 192.398 45.4513 192.774 44.4527H243.172C242.797 45.4513 236.862 62.5563 211.718 110.307C196.172 138.681 173.683 157.595 147.133 173.134C101.575 199.799 33.5928 196.546 33.5928 196.546Z" fill="#1061FF"/>
<g opacity="0.1">
<path d="M33.5928 196.546C48.8597 194 88.6161 185.69 99.9038 180.152C162.501 149.973 192.398 45.4513 192.774 44.4527H243.172C242.797 45.4513 236.862 62.5563 211.718 110.307C196.172 138.681 173.683 157.595 147.133 173.134C101.575 199.799 33.5928 196.546 33.5928 196.546Z" fill="#1F1E21"/>
</g>
<path d="M181.06 39.2168L192.769 44.4573C192.449 45.3047 176.848 125.722 129.11 164.32C95.6176 191.398 74.1963 197.756 1.43323 196.656V182.529C42.4947 182.529 71.7876 181.201 98.5117 167.252C158.819 135.777 180.973 39.4504 181.06 39.2168Z" fill="#1061FF"/>
<path d="M181.06 39.2168H235.378L243.168 44.4527H192.769L181.06 39.2168Z" fill="#1061FF"/>
<path d="M222.433 5.54742L257.752 50.2246L174.512 50.0001L222.433 5.54742Z" fill="#1061FF"/>
<g opacity="0.1">
<path d="M222.433 5.54742L257.752 50.2246L174.512 50.0001L222.433 5.54742Z" fill="#1F1E21"/>
</g>
<path d="M174.512 50.0001L162.409 44.4527L210.326 0L222.433 5.54742L174.512 50.0001Z" fill="#1061FF"/>
<path d="M263.838 39.1709C263.206 45.2314 257.775 49.6336 251.717 48.9969C249.267 48.7404 247.092 47.7005 245.407 46.1476L239.889 46.9584L242.65 42.1852C241.982 40.5544 241.698 38.7403 241.895 36.8714C242.527 30.8109 247.957 26.4087 254.016 27.0454C260.074 27.6776 264.474 33.1105 263.838 39.1709Z" fill="white"/>
<path d="M263.838 39.171C263.609 41.1865 262.872 43.1609 261.613 44.7642C261.324 45.1856 260.949 45.5338 260.614 45.914C260.23 46.2484 259.872 46.6149 259.451 46.8989C258.645 47.5219 257.739 48.0074 256.791 48.3831C255.847 48.7816 254.831 48.9694 253.819 49.0931C253.311 49.1206 252.798 49.1664 252.285 49.1206C251.772 49.1068 251.264 49.0565 250.76 48.9603C248.741 48.5938 246.831 47.6501 245.302 46.2667L245.43 46.3079L239.916 47.1554L239.518 47.2149L239.72 46.8622L242.462 42.0798L242.449 42.2676C241.112 39.116 241.414 35.3688 243.126 32.4325C243.983 30.962 245.173 29.6977 246.579 28.7541C247.985 27.8058 249.615 27.2149 251.287 26.9859C252.958 26.766 254.68 26.9171 256.273 27.4485C257.867 27.9845 259.328 28.8869 260.527 30.0596C262.963 32.3775 264.186 35.8498 263.829 39.171H263.838ZM263.838 39.171C264.172 35.8452 262.927 32.3913 260.491 30.1054C259.282 28.9648 257.816 28.099 256.237 27.5951C254.652 27.1004 252.963 26.9813 251.332 27.2286C249.702 27.4806 248.127 28.0853 246.776 29.0289C245.43 29.9726 244.294 31.2094 243.474 32.6295C242.636 34.045 242.206 35.6712 242.073 37.2974C241.968 38.9327 242.238 40.5864 242.852 42.1027L242.893 42.2035L242.843 42.2951L240.063 47.0592L239.866 46.766L245.389 45.9919L245.466 45.9827L245.521 46.0331C246.982 47.4028 248.828 48.3602 250.801 48.7541C251.296 48.8549 251.795 48.9144 252.299 48.9374C252.802 48.9923 253.306 48.9511 253.81 48.9374C254.808 48.8366 255.815 48.6671 256.754 48.2869C257.697 47.9341 258.609 47.4715 259.415 46.8531C259.836 46.5736 260.193 46.2117 260.578 45.8819C260.917 45.5063 261.292 45.1581 261.581 44.7413C262.844 43.1517 263.595 41.1865 263.838 39.171Z" fill="#263238"/>
<path d="M251.305 44.3244L246.593 39.5557L248.177 37.9891L250.929 40.7788L256.644 31.8095L258.522 33.0097L251.305 44.3244Z" fill="#1061FF"/>
<path d="M188.923 196.876C189.958 197.211 219.443 196.826 220.556 196.098C220.982 195.827 221.179 191.526 221.266 186.322C221.266 186.267 221.266 186.212 221.266 186.157C221.284 185.085 218.541 167.096 218.541 167.096L198.819 167.293L202.239 186.189L202.248 186.51C202.248 186.51 191.029 191.705 189.889 192.634C188.758 193.56 187.888 196.537 188.923 196.867V196.876Z" fill="#EB9481"/>
<path d="M221.261 186.162V186.327C221.174 191.53 220.977 195.832 220.551 196.102C219.438 196.826 189.953 197.211 188.923 196.876C187.888 196.551 188.758 193.574 189.889 192.648C191.029 191.718 202.248 186.524 202.248 186.524L202.239 186.198L201.722 183.349H220.931C221.142 184.861 221.27 185.933 221.266 186.166L221.261 186.162Z" fill="#EBEBEB"/>
<path d="M188.918 196.876C189.449 197.046 197.463 197.027 205.289 196.876C206.864 196.844 208.43 196.808 209.923 196.766C215.505 196.615 220.121 196.382 220.551 196.102C220.977 195.836 221.169 191.654 221.256 186.546C221.256 186.473 221.256 186.4 221.256 186.331C221.256 186.276 221.256 186.217 221.256 186.166H221.234L202.23 186.203L202.239 186.528C202.239 186.528 191.016 191.723 189.88 192.653C188.749 193.583 187.879 196.556 188.909 196.885L188.918 196.876Z" fill="#1061FF"/>
<path d="M189.239 195.731C194.207 195.543 214.264 195.259 219.191 195.456C219.232 195.456 219.232 195.484 219.191 195.488C214.269 195.782 194.212 195.901 189.239 195.814C189.134 195.814 189.134 195.736 189.239 195.731Z" fill="#263238"/>
<path d="M200.124 186.281C202.074 185.891 204.469 186.162 205.985 187.536C206.044 187.591 205.967 187.673 205.902 187.65C203.965 187.069 202.157 186.698 200.137 186.528C199.995 186.514 199.986 186.308 200.128 186.281H200.124Z" fill="#263238"/>
<path d="M198.722 187.147C200.673 186.757 203.068 187.027 204.584 188.402C204.643 188.457 204.565 188.539 204.501 188.516C202.564 187.934 200.756 187.563 198.736 187.394C198.594 187.38 198.585 187.174 198.727 187.147H198.722Z" fill="#263238"/>
<path d="M197.321 188.017C199.272 187.628 201.667 187.898 203.183 189.272C203.242 189.327 203.164 189.41 203.1 189.387C201.163 188.805 199.354 188.434 197.335 188.264C197.193 188.251 197.184 188.044 197.326 188.017H197.321Z" fill="#263238"/>
<path d="M200.124 186.162H221.888C221.888 186.162 215.18 142.185 215.345 141.32C215.432 140.871 245.833 95.1766 245.833 95.1766H223.175C223.175 95.1766 197.628 127.861 194.748 136.093C192.655 142.075 200.119 186.162 200.119 186.162H200.124Z" fill="#263238"/>
<path d="M212.625 139.62C212.941 138.347 213.669 137.22 214.337 136.107C215.848 133.601 241.973 97.3892 242.339 96.7936C242.366 96.7478 242.44 96.7707 242.417 96.8165C241.382 98.9925 215.574 134.283 213.971 137.641C213.357 138.924 212.831 140.11 212.863 141.549C212.895 142.987 213.147 144.435 213.33 145.864C213.518 147.307 213.705 148.75 213.902 150.188C214.291 153.07 214.694 155.951 215.116 158.828C215.963 164.613 216.837 170.394 217.749 176.166C217.863 176.885 217.982 177.605 218.101 178.319C218.111 178.388 218.01 178.415 217.996 178.347C216.961 172.57 215.958 166.794 215.084 160.99C214.209 155.186 213.412 149.373 212.643 143.55C212.469 142.25 212.304 140.912 212.629 139.62H212.625Z" fill="#455A64"/>
<path d="M219.315 180.981C216.137 180.972 217.048 180.926 213.87 180.958C212.313 180.976 202.097 181.095 200.65 181.407C200.618 181.416 200.618 181.475 200.65 181.48C202.111 181.727 212.322 181.398 213.879 181.347C217.057 181.242 216.141 181.233 219.315 181.086C219.374 181.086 219.374 180.981 219.315 180.976V180.981Z" fill="#37474F"/>
<path d="M290.164 196.592C289.138 196.945 259.648 197.101 258.522 196.395C258.091 196.134 257.817 191.837 257.633 186.634C257.633 186.579 257.633 186.524 257.633 186.469C257.592 185.397 250.243 167.605 250.243 167.605L269.516 167.449L276.66 186.157V186.482C276.66 186.482 287.966 191.471 289.124 192.382C290.269 193.29 291.199 196.249 290.168 196.597L290.164 196.592Z" fill="#EB9481"/>
<path d="M290.164 196.592C289.138 196.945 259.648 197.101 258.522 196.395C258.091 196.134 257.816 191.837 257.633 186.634C257.633 186.579 257.633 186.524 257.633 186.469C257.633 186.469 256.214 182.896 256.205 182.744L275.231 182.538L276.655 186.157V186.482C276.655 186.482 287.961 191.471 289.12 192.382C290.264 193.29 291.194 196.249 290.164 196.597V196.592Z" fill="#EBEBEB"/>
<path d="M290.164 196.592C289.138 196.945 259.648 197.101 258.522 196.395C258.091 196.134 257.816 191.837 257.633 186.634C257.633 186.579 257.633 186.524 257.633 186.469L276.655 186.157V186.482C276.655 186.482 287.961 191.471 289.12 192.382C290.264 193.29 291.194 196.249 290.164 196.597V196.592Z" fill="#1061FF"/>
<path d="M289.825 195.452C284.852 195.355 264.795 195.438 259.872 195.722C259.831 195.722 259.831 195.749 259.872 195.754C264.8 195.956 284.856 195.708 289.825 195.534C289.93 195.534 289.93 195.456 289.825 195.452Z" fill="#263238"/>
<path d="M278.775 186.198C276.815 185.846 274.425 186.157 272.941 187.559C272.882 187.614 272.96 187.696 273.024 187.673C274.952 187.055 276.751 186.656 278.771 186.446C278.913 186.432 278.917 186.226 278.775 186.198Z" fill="#263238"/>
<path d="M280.19 187.046C278.23 186.693 275.84 187.005 274.356 188.406C274.297 188.461 274.375 188.544 274.439 188.521C276.367 187.902 278.166 187.504 280.186 187.293C280.328 187.279 280.332 187.073 280.19 187.046Z" fill="#263238"/>
<path d="M281.605 187.889C279.645 187.536 277.255 187.847 275.771 189.249C275.712 189.304 275.79 189.387 275.854 189.364C277.782 188.745 279.581 188.347 281.601 188.136C281.743 188.122 281.747 187.916 281.605 187.889Z" fill="#263238"/>
<path d="M225.556 95.1766C225.556 95.1766 228.272 111.732 228.455 112.263C228.455 112.263 229.462 112.74 231.285 113.582L253.274 186.084L277.617 186.171L248.727 95.1766H225.556Z" fill="#263238"/>
<path d="M227.576 111.75C229.691 112.588 231.715 113.738 233.643 114.929C233.721 114.975 233.661 115.094 233.579 115.053C231.532 114.059 229.439 113.097 227.448 111.993C227.292 111.906 227.411 111.686 227.571 111.75H227.576Z" fill="#455A64"/>
<path d="M228.354 102.268C228.689 104.251 228.872 106.262 229.096 108.26C229.151 108.741 229.206 109.217 229.256 109.698C229.302 110.138 229.357 110.577 229.6 110.958C230.03 111.626 230.804 111.938 231.5 112.245C231.583 112.282 231.55 112.41 231.459 112.378C230.749 112.158 229.962 111.865 229.439 111.31C228.803 110.637 228.821 109.615 228.725 108.75C228.482 106.61 228.249 104.439 228.258 102.282C228.258 102.231 228.341 102.222 228.35 102.272L228.354 102.268Z" fill="#455A64"/>
<path d="M230.763 102.877C230.832 104.302 230.992 105.731 231.111 107.156C231.17 107.856 231.221 108.562 231.262 109.267C231.308 109.982 231.39 110.715 231.367 111.434C231.367 111.484 231.289 111.494 231.28 111.443C231.161 110.765 231.147 110.06 231.093 109.377C231.033 108.658 230.983 107.934 230.946 107.211C230.864 105.768 230.827 104.32 230.699 102.882C230.699 102.836 230.767 102.836 230.767 102.882L230.763 102.877Z" fill="#455A64"/>
<path d="M233.872 116.624C235.557 120.733 253.572 179.657 253.764 180.17C253.778 180.211 253.714 180.234 253.695 180.197C251.287 175.488 235.919 122.327 234.385 118.186C234.197 117.673 234.005 117.16 233.812 116.647C233.799 116.61 233.863 116.583 233.877 116.62L233.872 116.624Z" fill="#455A64"/>
<path d="M253.095 182.002C253.801 181.906 254.529 181.906 255.234 181.856C255.948 181.805 256.663 181.792 257.377 181.773C258.806 181.741 260.234 181.723 261.663 181.709C264.498 181.677 267.337 181.663 270.171 181.663C271.792 181.663 273.409 181.75 275.025 181.782C275.075 181.782 275.08 181.86 275.025 181.865C273.596 181.924 272.172 182.011 270.744 182.066C269.315 182.121 267.886 182.126 266.457 182.149C263.582 182.19 260.701 182.236 257.826 182.231C257.029 182.231 256.228 182.231 255.431 182.199C254.657 182.172 253.856 182.181 253.086 182.089C253.036 182.085 253.054 182.011 253.095 182.007V182.002Z" fill="#455A64"/>
<path d="M234.71 71.7867C230.172 67.9617 223.587 59.029 222.419 55.6254C220.922 51.2461 218.871 36.3904 220.478 34.81C221.362 33.935 231.77 36.2026 232.274 37.4256C232.782 38.6487 232.004 51.521 232.086 52.5104C232.173 53.4999 236.216 63.1151 238.547 67.7281C241.276 73.1335 237.663 74.2741 234.705 71.7867H234.71Z" fill="#EB9481"/>
<path d="M220.07 39.2076C220.089 39.1206 219.425 37.9479 219.823 36.5141C220.221 35.0757 221.348 33.6052 221.142 32.6982C220.817 31.2598 219.649 28.8961 220.221 28.4288C221.398 27.4669 222.708 28.3052 224.063 31.017C224.416 31.7225 224.883 33.4678 225.382 33.596C226.257 33.8205 226.751 32.3042 226.971 30.8933C227.397 28.1677 227.461 24.1228 229.32 23.7564C230.021 23.6189 230.268 24.6405 230.309 25.8819C230.525 24.0999 230.941 22.35 231.715 22.1668C232.159 22.0569 232.462 22.2859 232.672 22.7119C232.851 22.2538 233.135 21.9469 233.551 21.9148C234.266 21.8553 234.705 22.5241 234.971 23.4357C235.095 23.312 235.259 23.2479 235.484 23.2708C237.38 23.4632 237.636 30.4123 236.83 32.0889C234.458 37.0225 230.534 41.1316 230.534 41.1316C227.919 41.7042 220.07 39.2168 220.07 39.2122V39.2076Z" fill="#EB9481"/>
<path d="M229.357 33.8251C229.993 32.7257 230.433 31.4751 230.534 30.2062C230.653 28.7037 230.373 27.2012 230.346 25.7032C230.346 25.662 230.282 25.6666 230.282 25.7032C230.328 26.4362 230.3 27.1783 230.319 27.9158C230.337 28.635 230.378 29.3588 230.341 30.0734C230.282 31.3881 229.961 32.6524 229.334 33.8113C229.329 33.8251 229.348 33.8343 229.352 33.8205L229.357 33.8251Z" fill="#263238"/>
<path d="M231.733 34.4756C232.32 33.1471 232.919 31.7912 233.226 30.3665C233.56 28.8045 233.345 27.1966 233.148 25.6345C233.034 24.6954 232.897 23.7564 232.736 22.8219C232.732 22.7806 232.668 22.7852 232.672 22.8219C232.883 24.4252 233.048 26.033 233.162 27.6455C233.267 29.1618 233.107 30.6231 232.631 32.0706C232.365 32.886 232.036 33.6785 231.706 34.4664C231.701 34.4802 231.72 34.4939 231.729 34.4756H231.733Z" fill="#263238"/>
<path d="M234.211 34.5626C234.852 33.3304 235.411 32.2584 235.607 30.8659C235.864 29.0198 235.571 26.8026 235.461 26.0193C235.342 25.1535 235.195 24.2969 235.035 23.4403C235.03 23.4036 234.966 23.4174 234.975 23.4494C235.291 25.3688 235.488 27.3157 235.552 29.258C235.585 30.1879 235.516 31.1132 235.264 32.0111C235.012 32.8998 234.605 33.7335 234.206 34.5626C234.206 34.5672 234.211 34.5718 234.215 34.5626H234.211Z" fill="#263238"/>
<path d="M232.887 41.7637L219.324 43.4861C219.324 43.4861 221.284 54.1687 222.236 56.6836C223.189 59.2031 231.537 70.5132 234.98 72.6983C238.424 74.888 240.956 73.1426 239.106 68.1358C237.256 63.1289 233.098 53.5182 232.878 52.46C232.659 51.4019 232.887 41.7592 232.887 41.7592V41.7637Z" fill="#455A64"/>
<path d="M232.008 45.3093C230.154 45.6254 222.502 46.6332 220.835 46.7431C220.721 46.7523 220.684 46.679 220.803 46.6561C226.344 45.5842 230.154 45.4513 231.99 45.236C232.036 45.2314 232.054 45.3002 232.004 45.3093H232.008Z" fill="#263238"/>
<path d="M234.98 72.7029C232.517 71.1362 227.539 64.8971 224.558 60.5499L237.357 63.674C238.025 65.3185 238.634 66.876 239.106 68.1403C240.951 73.1472 238.419 74.8925 234.98 72.7029Z" fill="#263238"/>
<path d="M250.568 101.507C250.568 101.507 219.022 101.049 218.962 100.985C218.564 100.55 222.571 72.909 226.875 65.1124C228.491 62.1806 234.119 62.4005 236.23 64.0405C241.51 68.1541 250.655 99.6338 250.568 101.507Z" fill="#455A64"/>
<path d="M228.084 67.5448C229.494 68.0075 233.657 65.7216 234.664 63.5091C234.733 63.3579 234.399 61.8371 234.078 59.9727C233.89 58.8412 233.703 57.5723 233.62 56.4042L226.426 58.7175C226.426 58.7175 227.324 61.1133 227.461 63.1518C227.47 63.3213 227.461 63.4816 227.447 63.6328C227.447 63.6557 227.443 63.6832 227.443 63.7152C227.36 64.636 226.463 67.018 228.089 67.5494L228.084 67.5448Z" fill="#EB9481"/>
<path d="M233.254 56.5187C233.116 58.1174 232.356 63.2984 228.198 63.6969C227.919 63.7244 227.672 63.729 227.438 63.7152C227.438 63.6831 227.443 63.6557 227.443 63.6328C227.461 63.4816 227.466 63.3213 227.457 63.1518C227.324 61.1133 226.426 58.7175 226.426 58.7175L233.249 56.5233L233.254 56.5187Z" fill="#263238"/>
<path d="M236.464 50.3299C236.546 53.051 233.245 59.9498 231.019 61.0812C227.791 62.7212 223.491 61.7913 222.346 58.1357C221.238 54.5901 225.698 45.6804 228.093 44.7505C231.624 43.3854 236.345 46.3125 236.468 50.3299H236.464Z" fill="#EB9481"/>
<path opacity="0.3" d="M234.279 56.9401C233.249 58.8824 232.027 60.5727 231.024 61.0812C227.795 62.7212 223.491 61.7913 222.351 58.1357C221.952 56.8622 222.268 54.8971 222.955 52.854C223.344 54.2832 225.318 53.8022 225.318 53.8022L226.151 54.1275C226.545 55.827 229.146 56.3996 230.731 56.001C231.88 55.7124 233.318 53.7335 233.318 53.7335L234.289 56.9355L234.279 56.9401Z" fill="#263238"/>
<path d="M234.577 56.3034C233.432 56.2393 233.199 55.1398 233.103 54.4023C232.901 52.854 234.678 50.3895 234.453 48.5984C234.312 47.4394 233.368 46.5324 232.42 46.4958C231.472 46.4591 229.975 47.215 229.357 46.9401C228.739 46.6653 229.055 45.236 228.61 45.0849C227.635 44.755 225.79 46.8851 225.254 47.8929C225.254 47.8929 227.008 43.0464 231.82 44.2099C236.514 45.346 236.844 48.8641 236.78 50.3712C236.651 53.2617 234.577 56.2988 234.577 56.2988V56.3034Z" fill="#263238"/>
<path d="M228.015 52.7349C228.015 52.7349 228.038 52.7761 228.029 52.7945C227.786 53.248 227.585 53.8114 227.924 54.1687C227.933 54.1779 227.924 54.2008 227.905 54.1916C227.434 53.8664 227.708 53.1243 228.011 52.7349H228.015Z" fill="#263238"/>
<path d="M228.665 52.4555C229.435 52.767 228.757 54.2832 228.043 53.9946C227.342 53.7106 228.02 52.1944 228.665 52.4555Z" fill="#263238"/>
<path d="M225.423 51.466C225.423 51.466 225.378 51.4706 225.369 51.4935C225.172 51.9699 224.869 52.483 224.375 52.4509C224.361 52.4509 224.352 52.4738 224.366 52.4784C224.915 52.6387 225.314 51.9516 225.423 51.4706V51.466Z" fill="#263238"/>
<path d="M225.222 50.788C224.494 50.3941 223.752 51.8829 224.43 52.2493C225.094 52.6112 225.836 51.1224 225.222 50.788Z" fill="#263238"/>
<path d="M230.012 51.4385C229.778 51.411 229.572 51.3469 229.343 51.2965C229.087 51.2415 228.876 51.2232 228.688 51.0216C228.588 50.9163 228.597 50.701 228.688 50.5911C228.908 50.3391 229.238 50.3299 229.549 50.3849C229.888 50.4445 230.131 50.5773 230.355 50.8384C230.57 51.0904 230.319 51.4706 230.016 51.4339L230.012 51.4385Z" fill="#263238"/>
<path d="M224.933 49.7848C225.14 49.8902 225.35 49.9543 225.565 50.0368C225.808 50.133 225.996 50.2337 226.261 50.1742C226.403 50.1421 226.518 49.9589 226.5 49.8169C226.458 49.4871 226.188 49.2947 225.9 49.171C225.584 49.0336 225.309 49.0107 224.979 49.1023C224.659 49.1893 224.659 49.6474 224.933 49.7848Z" fill="#263238"/>
<path d="M226.925 56.9218C226.765 56.9814 226.582 57.0821 226.408 57.0226C226.238 56.963 226.078 56.8027 225.955 56.679C225.941 56.6653 225.922 56.679 225.922 56.6928C225.964 56.9264 226.17 57.1554 226.403 57.215C226.632 57.2745 226.82 57.1371 226.957 56.963C226.976 56.9401 226.944 56.9126 226.921 56.9218H226.925Z" fill="#263238"/>
<path d="M227.058 55.2956C226.614 55.5842 226.124 55.6346 225.671 55.5292C225.469 55.4834 225.268 55.401 225.085 55.2956C225.048 55.2773 225.011 55.259 224.979 55.2361C224.947 55.2177 224.92 55.1994 224.883 55.1719C224.833 55.1399 224.824 55.0803 224.837 55.0253C224.837 55.0253 224.851 54.9933 224.865 54.9749L224.883 54.9291C225.034 54.5627 225.318 54.0267 225.318 54.0267C225.158 54.0359 224.347 54.0359 224.443 53.8526C225.236 52.3272 226.119 50.6369 227.232 49.2855C227.269 49.2397 227.342 49.2855 227.315 49.3359C226.609 50.8293 225.648 52.1898 224.915 53.6786C225.167 53.6923 225.584 53.6969 225.771 53.7885C225.817 53.8251 225.208 54.81 225.153 54.9841C225.153 54.9841 225.153 54.9933 225.153 55.0024C225.726 55.3506 226.266 55.3735 227.04 55.2315C227.086 55.2223 227.109 55.2681 227.063 55.2956H227.058Z" fill="#263238"/>
<path d="M225.382 55.2086C225.382 55.2086 225.51 55.7857 225.877 56.1385C226.014 56.2713 226.174 56.3721 226.38 56.4042C226.802 56.4729 226.962 56.1339 227.026 55.8087C227.081 55.543 227.058 55.2819 227.058 55.2819C227.058 55.2819 226.28 55.5475 225.378 55.2086H225.382Z" fill="#263238"/>
<path d="M225.877 56.1385C226.014 56.2713 226.174 56.3721 226.38 56.4042C226.802 56.4729 226.962 56.1339 227.026 55.8086C226.605 55.6712 226.083 55.7628 225.877 56.1385Z" fill="#FF9CBD"/>
<path d="M227.347 55.2819C226.376 54.613 226.129 53.28 226.797 52.3043C227.466 51.3331 228.798 51.0858 229.774 51.7546C230.744 52.4234 230.992 53.7564 230.323 54.7322C229.76 55.5567 228.716 55.859 227.818 55.5292C227.653 55.4697 227.498 55.3872 227.347 55.2864V55.2819ZM227.031 52.4646C226.454 53.3075 226.664 54.4619 227.507 55.0436C228.349 55.6254 229.503 55.4101 230.085 54.5672C230.662 53.7244 230.451 52.5654 229.609 51.9882C229.481 51.8966 229.343 51.8279 229.201 51.7775C228.423 51.4935 227.521 51.7546 227.031 52.4692V52.4646Z" fill="#263238"/>
<path d="M223.322 53.2205C222.539 52.8219 222.337 51.6446 222.868 50.5911C223.125 50.0872 223.505 49.6886 223.949 49.4596C224.407 49.226 224.869 49.203 225.259 49.4C225.648 49.597 225.904 49.9864 225.982 50.4903C226.06 50.9804 225.964 51.5255 225.707 52.0294C225.204 53.0235 224.215 53.5549 223.445 53.2709C223.399 53.2525 223.358 53.2342 223.317 53.2159L223.322 53.2205ZM224.082 49.7161C223.692 49.9131 223.354 50.2704 223.125 50.7193C222.662 51.6309 222.809 52.6387 223.45 52.9639C224.095 53.2938 224.993 52.8128 225.455 51.9012C225.684 51.4523 225.771 50.9667 225.703 50.5361C225.639 50.1238 225.433 49.8077 225.13 49.6566C225.098 49.6382 225.066 49.6245 225.03 49.6153C224.746 49.51 224.411 49.5466 224.082 49.7161Z" fill="#263238"/>
<path d="M226.747 52.5562L227.008 52.4417C226.843 52.0523 226.339 51.3835 225.62 51.6492L225.717 51.9195C226.362 51.6859 226.729 52.5242 226.742 52.5562H226.747Z" fill="#263238"/>
<path d="M234.998 57.3662H235.282C235.282 57.2287 235.259 56.0514 234.733 55.6667C234.243 55.3093 230.662 53.8939 230.511 53.8343L230.406 54.1C231.431 54.5031 234.188 55.6208 234.563 55.8957C234.907 56.1476 234.989 57.0409 234.994 57.3616L234.998 57.3662Z" fill="#263238"/>
<path d="M232.823 54.8833C232.823 54.8833 235.14 53.0281 236.029 53.9213C236.917 54.8146 234.696 57.838 233.318 57.9342C231.94 58.0304 231.825 56.7569 231.825 56.7569L232.828 54.8833H232.823Z" fill="#EB9481"/>
<path d="M235.369 54.7734C235.369 54.7734 235.388 54.8055 235.369 54.81C234.394 54.9062 233.698 55.5796 233.13 56.3263C233.483 56.0789 233.89 56.0056 234.229 56.4408C234.247 56.4637 234.215 56.4912 234.193 56.4821C233.858 56.2988 233.583 56.2851 233.258 56.5004C233.029 56.6515 232.837 56.876 232.645 57.073C232.581 57.1371 232.452 57.0547 232.507 56.9768C232.507 56.9722 232.517 56.963 232.521 56.9585C232.823 55.8407 234.147 54.5398 235.374 54.778L235.369 54.7734Z" fill="#263238"/>
<path d="M229.247 72.877C222.983 71.6859 210.775 66.3538 208.87 64.9612C204.877 62.0478 196.717 47.7143 197.403 45.4147C197.784 44.1458 208.659 43.6831 209.772 44.5581C210.885 45.433 215.748 56.1751 216.343 57.0501C216.938 57.925 229.261 66.1523 231.962 68.5068C236.853 72.7579 233.322 73.6557 229.247 72.8815V72.877Z" fill="#EB9481"/>
<path d="M209.035 48.5159C209.035 48.5159 211.31 44.3977 212.675 41.6355C213.435 40.0917 214.502 37.334 214.543 35.946C214.603 33.8709 213.531 25.1489 211.411 25.3597C209.492 25.5521 211.365 32.9318 211.365 32.9318C211.365 32.9318 210.134 25.323 207.867 25.9781C205.6 26.6377 208.824 34.6909 208.824 34.6909C208.824 34.6909 207.386 26.8988 205.151 27.9479C203.466 28.7403 205.971 36.198 205.971 36.198C205.971 36.198 204.689 29.5099 202.917 30.252C200.962 31.072 202.844 38.099 202.844 38.099C198.663 40.7376 196.987 42.5837 197.358 45.8957C197.417 46.4316 209.03 48.5159 209.03 48.5159H209.035Z" fill="#EB9481"/>
<path d="M212.167 36.1705C212.057 35.2727 211.947 34.3611 211.755 33.4724C211.562 32.5883 211.338 31.7042 211.068 30.843C210.399 28.722 209.648 27.4989 209.685 27.5814C210.587 29.487 211.324 32.6478 211.517 33.5365C211.709 34.4206 211.942 35.2956 212.135 36.1797C212.139 36.2026 212.171 36.1934 212.167 36.1705Z" fill="#263238"/>
<path d="M208.984 36.9218C208.792 35.7811 208.641 34.6405 208.398 33.5044C208.155 32.3776 207.762 30.8063 207.446 29.6978C207.423 29.6107 207.29 29.6107 207.308 29.6978C207.583 30.8201 207.913 32.4371 208.174 33.5594C208.435 34.6772 208.742 35.7995 208.961 36.9264C208.961 36.9447 208.989 36.9355 208.989 36.9218H208.984Z" fill="#263238"/>
<path d="M206.365 38.0578C206.159 36.2988 205.628 34.5764 205.069 32.8998C205.042 32.8173 205 32.8769 205.023 32.9639C205.486 34.668 205.861 36.0056 206.305 38.067C206.31 38.0991 206.37 38.0945 206.365 38.0578Z" fill="#263238"/>
<path d="M198.681 50.5453L212.876 49.0152C212.876 49.0152 215.862 55.8499 216.457 56.6607C217.048 57.4715 230.41 66.1935 233.071 68.3831C235.731 70.5728 235.296 74.6727 229.577 73.5778C224.64 72.6342 211.283 67.1692 208.755 65.4926C206.228 63.816 198.681 50.5453 198.681 50.5453Z" fill="#455A64"/>
<path d="M201.648 53.8755C203.595 53.7198 211.544 52.7899 213.247 52.4738C213.366 52.4509 213.38 52.373 213.257 52.3776C207.409 52.7028 203.549 53.5457 201.648 53.7977C201.603 53.8023 201.603 53.8801 201.648 53.8755Z" fill="#263238"/>
<path d="M222.287 71.3378C224.54 71.8417 226.738 72.57 228.84 73.5183C226.587 73.019 224.389 72.2814 222.287 71.3378Z" fill="#263238"/>
<path d="M226.495 72.767C226.994 73.0419 227.681 73.3809 228.153 73.7015C227.507 73.642 226.852 73.3167 226.495 72.767Z" fill="#263238"/>
<path d="M233.071 68.3831C231.779 67.7327 230.625 66.8944 229.609 65.8637C230.9 66.5096 232.054 67.3524 233.071 68.3831Z" fill="#263238"/>
</g>
<defs>
<clipPath id="clip0_320_14677">
<rect width="292" height="197" fill="white"/>
</clipPath>
</defs>
</svg>
