<svg width="375" height="812" viewBox="0 0 375 812" fill="none" xmlns="http://www.w3.org/2000/svg">
<g clip-path="url(#clip0_320_13756)">
<rect width="375" height="812" fill="#1061FF"/>
<g opacity="0.6">
<circle opacity="0.6" cx="79.1583" cy="617.158" r="214.051" transform="rotate(105 79.1583 617.158)" fill="url(#paint0_linear_320_13756)"/>
<circle opacity="0.6" cx="45.201" cy="206.201" r="277.855" transform="rotate(-52.9163 45.201 206.201)" fill="url(#paint1_linear_320_13756)"/>
<circle opacity="0.6" cx="340.891" cy="594.891" r="291.251" transform="rotate(135 340.891 594.891)" fill="url(#paint2_linear_320_13756)"/>
<g opacity="0.8" filter="url(#filter0_f_320_13756)">
<circle cx="341.314" cy="426.063" r="171.202" transform="rotate(-15 341.314 426.063)" fill="url(#paint3_linear_320_13756)"/>
</g>
</g>
<path d="M114.268 387C106.002 387 99.8838 385.033 95.9131 381.098C91.9785 377.127 90.0112 371.009 90.0112 362.743V337.836C90.0112 329.497 91.9785 323.361 95.9131 319.426C99.8477 315.456 105.93 313.506 114.16 313.579H127.263C134.05 313.579 139.23 314.986 142.803 317.802C146.377 320.581 148.452 324.985 149.03 331.013C149.247 332.529 148.958 333.685 148.164 334.479C147.369 335.273 146.214 335.67 144.698 335.67C141.955 335.67 140.367 334.154 139.933 331.122C139.573 327.801 138.417 325.563 136.468 324.408C134.555 323.253 131.487 322.675 127.263 322.675H114.16C110.334 322.639 107.32 323.072 105.118 323.974C102.952 324.877 101.4 326.447 100.461 328.685C99.5589 330.887 99.1077 333.937 99.1077 337.836V362.743C99.1077 366.605 99.5589 369.637 100.461 371.839C101.4 374.041 102.97 375.611 105.172 376.55C107.374 377.452 110.406 377.904 114.268 377.904H127.263C131.487 377.904 134.555 377.326 136.468 376.171C138.417 374.98 139.573 372.742 139.933 369.457C140.367 366.425 141.955 364.909 144.698 364.909C146.214 364.909 147.369 365.306 148.164 366.1C148.958 366.894 149.247 368.049 149.03 369.565C148.452 375.629 146.377 380.051 142.803 382.831C139.23 385.61 134.05 387 127.263 387H114.268ZM172.56 387C169.528 387 168.012 385.484 168.012 382.452V318.127C168.012 315.095 169.528 313.579 172.56 313.579H212.412C213.819 313.579 214.92 313.994 215.715 314.824C216.545 315.618 216.96 316.719 216.96 318.127C216.96 321.159 215.444 322.675 212.412 322.675H177.109V345.416H198.875C201.907 345.416 203.423 346.932 203.423 349.964C203.423 352.997 201.907 354.513 198.875 354.513H177.109V382.452C177.109 385.484 175.593 387 172.56 387ZM248.787 387C240.52 387 234.402 385.033 230.431 381.098C226.497 377.127 224.529 371.009 224.529 362.743V337.727C224.529 329.389 226.515 323.271 230.485 319.372C234.456 315.438 240.556 313.506 248.787 313.579H261.781C270.084 313.579 276.202 315.546 280.137 319.48C284.071 323.415 286.039 329.533 286.039 337.836V362.743C286.039 371.009 284.071 377.127 280.137 381.098C276.202 385.033 270.084 387 261.781 387H248.787ZM248.787 377.904H261.781C265.644 377.904 268.676 377.452 270.878 376.55C273.08 375.611 274.632 374.041 275.534 371.839C276.473 369.637 276.942 366.605 276.942 362.743V337.836C276.942 334.009 276.473 330.995 275.534 328.793C274.632 326.592 273.08 325.021 270.878 324.083C268.676 323.144 265.644 322.675 261.781 322.675H248.787C244.96 322.639 241.946 323.072 239.744 323.974C237.542 324.877 235.972 326.429 235.034 328.631C234.095 330.833 233.626 333.865 233.626 337.727V362.743C233.626 366.605 234.077 369.637 234.979 371.839C235.918 374.041 237.488 375.611 239.69 376.55C241.892 377.452 244.924 377.904 248.787 377.904Z" fill="white"/>
<path d="M78.4371 417C78.0171 417 77.8071 416.79 77.8071 416.37V407.46C77.8071 407.04 78.0171 406.83 78.4371 406.83H83.9571C84.1521 406.83 84.3046 406.887 84.4146 407.002C84.5296 407.112 84.5871 407.265 84.5871 407.46C84.5871 407.88 84.3771 408.09 83.9571 408.09H79.0671V411.24H82.0821C82.5021 411.24 82.7121 411.45 82.7121 411.87C82.7121 412.29 82.5021 412.5 82.0821 412.5H79.0671V416.37C79.0671 416.79 78.8571 417 78.4371 417ZM86.772 417C86.557 417 86.397 416.95 86.292 416.85C86.192 416.745 86.142 416.585 86.142 416.37V407.475C86.142 407.255 86.192 407.095 86.292 406.995C86.397 406.895 86.557 406.845 86.772 406.845C86.992 406.845 87.152 406.895 87.252 406.995C87.352 407.095 87.402 407.255 87.402 407.475V416.37C87.402 416.585 87.352 416.745 87.252 416.85C87.152 416.95 86.992 417 86.772 417ZM91.1519 417C90.7319 417 90.5219 416.79 90.5219 416.37V407.46C90.5219 407.04 90.7319 406.83 91.1519 406.83C91.3669 406.83 91.5769 406.955 91.7819 407.205L97.8119 414.975H97.4969V407.46C97.4969 407.04 97.7069 406.83 98.1269 406.83C98.5469 406.83 98.7569 407.04 98.7569 407.46V416.37C98.7569 416.79 98.5469 417 98.1269 417C97.9019 417 97.6919 416.875 97.4969 416.625L91.4669 408.855H91.7819V416.37C91.7819 416.79 91.5719 417 91.1519 417ZM101.394 416.94C100.994 416.785 100.874 416.51 101.034 416.115L104.604 407.325C104.754 406.995 104.989 406.83 105.309 406.83H105.339C105.664 406.845 105.884 407.01 105.999 407.325L109.629 416.115C109.789 416.51 109.674 416.785 109.284 416.94C108.889 417.095 108.614 416.98 108.459 416.595L107.649 414.63H102.977L102.204 416.595C102.049 416.985 101.779 417.1 101.394 416.94ZM103.472 413.37H107.132L105.264 408.825L103.472 413.37ZM112.495 417C112.075 417 111.865 416.79 111.865 416.37V407.46C111.865 407.04 112.075 406.83 112.495 406.83C112.71 406.83 112.92 406.955 113.125 407.205L119.155 414.975H118.84V407.46C118.84 407.04 119.05 406.83 119.47 406.83C119.89 406.83 120.1 407.04 120.1 407.46V416.37C120.1 416.79 119.89 417 119.47 417C119.245 417 119.035 416.875 118.84 416.625L112.81 408.855H113.125V416.37C113.125 416.79 112.915 417 112.495 417ZM126.217 417C125.072 417 124.225 416.727 123.675 416.182C123.13 415.632 122.857 414.785 122.857 413.64V410.19C122.857 409.035 123.13 408.185 123.675 407.64C124.22 407.09 125.062 406.82 126.202 406.83H128.017C128.957 406.83 129.675 407.025 130.17 407.415C130.665 407.8 130.952 408.41 131.032 409.245C131.062 409.455 131.022 409.615 130.912 409.725C130.802 409.835 130.642 409.89 130.432 409.89C130.052 409.89 129.832 409.68 129.772 409.26C129.722 408.8 129.562 408.49 129.292 408.33C129.027 408.17 128.602 408.09 128.017 408.09H126.202C125.672 408.085 125.255 408.145 124.95 408.27C124.65 408.395 124.435 408.612 124.305 408.922C124.18 409.227 124.117 409.65 124.117 410.19V413.64C124.117 414.175 124.18 414.595 124.305 414.9C124.435 415.205 124.652 415.422 124.957 415.552C125.262 415.677 125.682 415.74 126.217 415.74H128.017C128.602 415.74 129.027 415.66 129.292 415.5C129.562 415.335 129.722 415.025 129.772 414.57C129.832 414.15 130.052 413.94 130.432 413.94C130.642 413.94 130.802 413.995 130.912 414.105C131.022 414.215 131.062 414.375 131.032 414.585C130.952 415.425 130.665 416.037 130.17 416.422C129.675 416.807 128.957 417 128.017 417H126.217ZM134.292 417C133.872 417 133.662 416.79 133.662 416.37V407.46C133.662 407.04 133.872 406.83 134.292 406.83H139.677C140.097 406.83 140.307 407.04 140.307 407.46C140.307 407.88 140.097 408.09 139.677 408.09H134.922V411.24H137.907C138.327 411.24 138.537 411.45 138.537 411.87C138.537 412.29 138.327 412.5 137.907 412.5H134.922V415.74H139.677C140.097 415.74 140.307 415.95 140.307 416.37C140.307 416.79 140.097 417 139.677 417H134.292ZM146.936 416.94C146.536 416.785 146.416 416.51 146.576 416.115L150.146 407.325C150.296 406.995 150.531 406.83 150.851 406.83H150.881C151.206 406.845 151.426 407.01 151.541 407.325L155.171 416.115C155.331 416.51 155.216 416.785 154.826 416.94C154.431 417.095 154.156 416.98 154.001 416.595L153.191 414.63H148.519L147.746 416.595C147.591 416.985 147.321 417.1 146.936 416.94ZM149.014 413.37H152.674L150.806 408.825L149.014 413.37ZM159.251 417C159.041 417 158.883 416.947 158.778 416.842C158.673 416.737 158.621 416.58 158.621 416.37V408.105H155.711C155.501 408.105 155.343 408.052 155.238 407.947C155.133 407.842 155.081 407.685 155.081 407.475C155.081 407.265 155.133 407.107 155.238 407.002C155.343 406.897 155.501 406.845 155.711 406.845H162.791C163.001 406.845 163.158 406.897 163.263 407.002C163.368 407.107 163.421 407.265 163.421 407.475C163.421 407.685 163.368 407.842 163.263 407.947C163.158 408.052 163.001 408.105 162.791 408.105H159.881V416.37C159.881 416.57 159.826 416.725 159.716 416.835C159.611 416.945 159.456 417 159.251 417ZM173.114 417C172.694 417 172.484 416.79 172.484 416.37V413.31L169.049 407.835C168.839 407.475 168.904 407.18 169.244 406.95C169.604 406.73 169.894 406.795 170.114 407.145L173.114 411.96L176.264 407.145C176.369 406.98 176.496 406.882 176.646 406.852C176.796 406.817 176.954 406.86 177.119 406.98C177.484 407.205 177.549 407.49 177.314 407.835L173.744 413.31V416.37C173.744 416.79 173.534 417 173.114 417ZM181.984 417C180.839 417 179.991 416.727 179.441 416.182C178.896 415.632 178.624 414.785 178.624 413.64V410.175C178.624 409.02 178.899 408.172 179.449 407.632C179.999 407.087 180.844 406.82 181.984 406.83H183.784C184.934 406.83 185.781 407.102 186.326 407.647C186.871 408.192 187.144 409.04 187.144 410.19V413.64C187.144 414.785 186.871 415.632 186.326 416.182C185.781 416.727 184.934 417 183.784 417H181.984ZM181.984 415.74H183.784C184.319 415.74 184.739 415.677 185.044 415.552C185.349 415.422 185.564 415.205 185.689 414.9C185.819 414.595 185.884 414.175 185.884 413.64V410.19C185.884 409.66 185.819 409.242 185.689 408.937C185.564 408.632 185.349 408.415 185.044 408.285C184.739 408.155 184.319 408.09 183.784 408.09H181.984C181.454 408.085 181.036 408.145 180.731 408.27C180.426 408.395 180.209 408.61 180.079 408.915C179.949 409.22 179.884 409.64 179.884 410.175V413.64C179.884 414.175 179.946 414.595 180.071 414.9C180.201 415.205 180.419 415.422 180.724 415.552C181.029 415.677 181.449 415.74 181.984 415.74ZM193.182 417C192.037 417 191.189 416.727 190.639 416.182C190.094 415.632 189.822 414.785 189.822 413.64V407.46C189.822 407.25 189.874 407.092 189.979 406.987C190.084 406.882 190.242 406.83 190.452 406.83C190.662 406.83 190.819 406.882 190.924 406.987C191.029 407.092 191.082 407.25 191.082 407.46V413.64C191.082 414.175 191.144 414.595 191.269 414.9C191.399 415.205 191.617 415.422 191.922 415.552C192.227 415.677 192.647 415.74 193.182 415.74H194.982C195.517 415.74 195.937 415.677 196.242 415.552C196.547 415.422 196.762 415.205 196.887 414.9C197.017 414.595 197.082 414.175 197.082 413.64V407.46C197.082 407.25 197.134 407.092 197.239 406.987C197.344 406.882 197.502 406.83 197.712 406.83C197.922 406.83 198.079 406.882 198.184 406.987C198.289 407.092 198.342 407.25 198.342 407.46V413.64C198.342 414.785 198.069 415.632 197.524 416.182C196.979 416.727 196.132 417 194.982 417H193.182ZM207.921 417.03C207.756 417.135 207.599 417.168 207.449 417.128C207.299 417.088 207.171 416.985 207.066 416.82L204.741 412.95H202.641V416.37C202.641 416.79 202.431 417 202.011 417C201.591 417 201.381 416.79 201.381 416.37V407.46C201.381 407.04 201.591 406.83 202.011 406.83H205.521C206.436 406.83 207.136 407.075 207.621 407.565C208.111 408.05 208.356 408.75 208.356 409.665V410.115C208.356 410.91 208.171 411.545 207.801 412.02C207.431 412.49 206.896 412.782 206.196 412.897L208.161 416.175C208.351 416.525 208.271 416.81 207.921 417.03ZM202.641 411.69H205.521C206.091 411.69 206.496 411.57 206.736 411.33C206.976 411.09 207.096 410.685 207.096 410.115V409.665C207.096 409.1 206.976 408.697 206.736 408.457C206.496 408.212 206.091 408.09 205.521 408.09H202.641V411.69ZM216.103 417C215.683 417 215.473 416.79 215.473 416.37V407.46C215.473 407.04 215.683 406.83 216.103 406.83H221.623C221.818 406.83 221.971 406.887 222.081 407.002C222.196 407.112 222.253 407.265 222.253 407.46C222.253 407.88 222.043 408.09 221.623 408.09H216.733V411.24H219.748C220.168 411.24 220.378 411.45 220.378 411.87C220.378 412.29 220.168 412.5 219.748 412.5H216.733V416.37C216.733 416.79 216.523 417 216.103 417ZM224.438 417C224.223 417 224.063 416.95 223.958 416.85C223.858 416.745 223.808 416.585 223.808 416.37V407.475C223.808 407.255 223.858 407.095 223.958 406.995C224.063 406.895 224.223 406.845 224.438 406.845C224.658 406.845 224.818 406.895 224.918 406.995C225.018 407.095 225.068 407.255 225.068 407.475V416.37C225.068 416.585 225.018 416.745 224.918 416.85C224.818 416.95 224.658 417 224.438 417ZM228.818 417C228.398 417 228.188 416.79 228.188 416.37V407.46C228.188 407.04 228.398 406.83 228.818 406.83C229.033 406.83 229.243 406.955 229.448 407.205L235.478 414.975H235.163V407.46C235.163 407.04 235.373 406.83 235.793 406.83C236.213 406.83 236.423 407.04 236.423 407.46V416.37C236.423 416.79 236.213 417 235.793 417C235.568 417 235.358 416.875 235.163 416.625L229.133 408.855H229.448V416.37C229.448 416.79 229.238 417 228.818 417ZM242.54 417C241.395 417 240.548 416.727 239.998 416.182C239.453 415.632 239.18 414.785 239.18 413.64V410.19C239.18 409.035 239.453 408.185 239.998 407.64C240.543 407.09 241.385 406.82 242.525 406.83H244.34C245.28 406.83 245.998 407.025 246.493 407.415C246.988 407.8 247.275 408.41 247.355 409.245C247.385 409.455 247.345 409.615 247.235 409.725C247.125 409.835 246.965 409.89 246.755 409.89C246.375 409.89 246.155 409.68 246.095 409.26C246.045 408.8 245.885 408.49 245.615 408.33C245.35 408.17 244.925 408.09 244.34 408.09H242.525C241.995 408.085 241.578 408.145 241.273 408.27C240.973 408.395 240.758 408.612 240.628 408.922C240.503 409.227 240.44 409.65 240.44 410.19V413.64C240.44 414.175 240.503 414.595 240.628 414.9C240.758 415.205 240.975 415.422 241.28 415.552C241.585 415.677 242.005 415.74 242.54 415.74H244.34C244.805 415.74 245.168 415.69 245.428 415.59C245.693 415.485 245.878 415.302 245.983 415.042C246.088 414.782 246.14 414.415 246.14 413.94V413.235L244.97 413.22C244.55 413.22 244.34 413.01 244.34 412.59C244.34 412.17 244.55 411.96 244.97 411.96L246.77 411.975C247.19 411.975 247.4 412.185 247.4 412.605V413.94C247.4 415.005 247.153 415.782 246.658 416.272C246.163 416.757 245.39 417 244.34 417H242.54ZM250.644 417C250.224 417 250.014 416.79 250.014 416.37V407.46C250.014 407.04 250.224 406.83 250.644 406.83H256.029C256.449 406.83 256.659 407.04 256.659 407.46C256.659 407.88 256.449 408.09 256.029 408.09H251.274V411.24H254.259C254.679 411.24 254.889 411.45 254.889 411.87C254.889 412.29 254.679 412.5 254.259 412.5H251.274V415.74H256.029C256.449 415.74 256.659 415.95 256.659 416.37C256.659 416.79 256.449 417 256.029 417H250.644ZM265.592 417.03C265.427 417.135 265.27 417.168 265.12 417.128C264.97 417.088 264.842 416.985 264.737 416.82L262.412 412.95H260.312V416.37C260.312 416.79 260.102 417 259.682 417C259.262 417 259.052 416.79 259.052 416.37V407.46C259.052 407.04 259.262 406.83 259.682 406.83H263.192C264.107 406.83 264.807 407.075 265.292 407.565C265.782 408.05 266.027 408.75 266.027 409.665V410.115C266.027 410.91 265.842 411.545 265.472 412.02C265.102 412.49 264.567 412.782 263.867 412.897L265.832 416.175C266.022 416.525 265.942 416.81 265.592 417.03ZM260.312 411.69H263.192C263.762 411.69 264.167 411.57 264.407 411.33C264.647 411.09 264.767 410.685 264.767 410.115V409.665C264.767 409.1 264.647 408.697 264.407 408.457C264.167 408.212 263.762 408.09 263.192 408.09H260.312V411.69ZM271.179 417C270.969 417 270.812 416.947 270.707 416.842C270.602 416.737 270.549 416.58 270.549 416.37V408.105H267.639C267.429 408.105 267.272 408.052 267.167 407.947C267.062 407.842 267.009 407.685 267.009 407.475C267.009 407.265 267.062 407.107 267.167 407.002C267.272 406.897 267.429 406.845 267.639 406.845H274.719C274.929 406.845 275.087 406.897 275.192 407.002C275.297 407.107 275.349 407.265 275.349 407.475C275.349 407.685 275.297 407.842 275.192 407.947C275.087 408.052 274.929 408.105 274.719 408.105H271.809V416.37C271.809 416.57 271.754 416.725 271.644 416.835C271.539 416.945 271.384 417 271.179 417ZM277.978 417C277.763 417 277.603 416.95 277.498 416.85C277.398 416.745 277.348 416.585 277.348 416.37V407.475C277.348 407.255 277.398 407.095 277.498 406.995C277.603 406.895 277.763 406.845 277.978 406.845C278.198 406.845 278.358 406.895 278.458 406.995C278.558 407.095 278.608 407.255 278.608 407.475V416.37C278.608 416.585 278.558 416.745 278.458 416.85C278.358 416.95 278.198 417 277.978 417ZM282.358 417C281.938 417 281.728 416.79 281.728 416.37V407.46C281.728 407.04 281.938 406.83 282.358 406.83H285.868C286.783 406.83 287.483 407.075 287.968 407.565C288.458 408.05 288.703 408.75 288.703 409.665V410.115C288.703 411.03 288.458 411.732 287.968 412.222C287.483 412.707 286.783 412.95 285.868 412.95H282.988V416.37C282.988 416.79 282.778 417 282.358 417ZM282.988 411.69H285.868C286.438 411.69 286.843 411.57 287.083 411.33C287.323 411.09 287.443 410.685 287.443 410.115V409.665C287.443 409.1 287.323 408.697 287.083 408.457C286.843 408.212 286.438 408.09 285.868 408.09H282.988V411.69ZM293.47 417C292.615 417 291.947 416.827 291.467 416.482C290.992 416.137 290.695 415.605 290.575 414.885C290.555 414.665 290.6 414.5 290.71 414.39C290.82 414.28 290.98 414.225 291.19 414.225C291.4 414.225 291.552 414.275 291.647 414.375C291.747 414.475 291.815 414.63 291.85 414.84C291.925 415.185 292.085 415.422 292.33 415.552C292.58 415.677 292.96 415.74 293.47 415.74H295.63C296.275 415.74 296.712 415.625 296.942 415.395C297.177 415.16 297.295 414.725 297.295 414.09C297.295 413.445 297.175 413.005 296.935 412.77C296.695 412.53 296.26 412.41 295.63 412.41H293.77C292.825 412.41 292.122 412.18 291.662 411.72C291.207 411.255 290.98 410.55 290.98 409.605C290.98 408.665 291.205 407.967 291.655 407.512C292.11 407.057 292.81 406.83 293.755 406.83H295.54C296.335 406.83 296.957 406.992 297.407 407.317C297.862 407.642 298.15 408.14 298.27 408.81C298.3 409.025 298.26 409.19 298.15 409.305C298.04 409.415 297.875 409.47 297.655 409.47C297.455 409.47 297.305 409.417 297.205 409.312C297.105 409.207 297.04 409.055 297.01 408.855C296.93 408.56 296.777 408.36 296.552 408.255C296.327 408.145 295.99 408.09 295.54 408.09H293.755C293.155 408.09 292.752 408.197 292.547 408.412C292.342 408.622 292.24 409.02 292.24 409.605C292.24 410.195 292.345 410.6 292.555 410.82C292.765 411.04 293.17 411.15 293.77 411.15H295.63C296.615 411.15 297.347 411.39 297.827 411.87C298.312 412.35 298.555 413.09 298.555 414.09C298.555 415.085 298.315 415.82 297.835 416.295C297.355 416.765 296.62 417 295.63 417H293.47Z" fill="white"/>
</g>
<defs>
<filter id="filter0_f_320_13756" x="20.069" y="104.819" width="642.489" height="642.489" filterUnits="userSpaceOnUse" color-interpolation-filters="sRGB">
<feFlood flood-opacity="0" result="BackgroundImageFix"/>
<feBlend mode="normal" in="SourceGraphic" in2="BackgroundImageFix" result="shape"/>
<feGaussianBlur stdDeviation="75" result="effect1_foregroundBlur_320_13756"/>
</filter>
<linearGradient id="paint0_linear_320_13756" x1="79.1583" y1="403.107" x2="79.1583" y2="831.21" gradientUnits="userSpaceOnUse">
<stop stop-color="white"/>
<stop offset="1" stop-color="white" stop-opacity="0"/>
</linearGradient>
<linearGradient id="paint1_linear_320_13756" x1="45.201" y1="-71.6535" x2="45.201" y2="484.056" gradientUnits="userSpaceOnUse">
<stop stop-color="white"/>
<stop offset="1" stop-color="white" stop-opacity="0"/>
</linearGradient>
<linearGradient id="paint2_linear_320_13756" x1="340.891" y1="303.64" x2="340.891" y2="886.143" gradientUnits="userSpaceOnUse">
<stop stop-color="white"/>
<stop offset="1" stop-color="white" stop-opacity="0"/>
</linearGradient>
<linearGradient id="paint3_linear_320_13756" x1="341.314" y1="254.861" x2="319.365" y2="499.014" gradientUnits="userSpaceOnUse">
<stop stop-color="#257CFF"/>
</linearGradient>
<clipPath id="clip0_320_13756">
<rect width="375" height="812" fill="white"/>
</clipPath>
</defs>
</svg>
