<?xml version="1.0" encoding="UTF-8"?>
<svg version="1.1" xmlns="http://www.w3.org/2000/svg" width="512" height="512">
<path d="M0 0 C1.71219833 -0.010195 1.71219833 -0.010195 3.45898652 -0.02059597 C7.28657252 -0.03959709 11.11383932 -0.03712916 14.94146729 -0.03465271 C17.68472501 -0.04199824 20.4279603 -0.05375133 23.17120361 -0.06518555 C29.85136156 -0.09008463 36.53144009 -0.09834916 43.21164057 -0.10002268 C48.64334569 -0.10144926 54.07502465 -0.10761898 59.5067215 -0.11712456 C74.91513721 -0.14353973 90.32349028 -0.15738354 105.7319288 -0.15513314 C106.97743746 -0.15495333 106.97743746 -0.15495333 108.24810791 -0.1547699 C109.49514194 -0.15458593 109.49514194 -0.15458593 110.76736858 -0.15439826 C124.2365808 -0.15317925 137.70554127 -0.18187914 151.17468068 -0.224185 C165.01306871 -0.26730674 178.85133405 -0.28799385 192.68979096 -0.28540367 C200.45567345 -0.28440873 208.22129208 -0.29260634 215.98711395 -0.32493782 C222.60002249 -0.3522934 229.21254759 -0.35874615 235.8254883 -0.33840955 C239.19724801 -0.32863262 242.56767428 -0.33164827 245.93946075 -0.3544693 C249.60157053 -0.37764716 253.2617593 -0.36368773 256.92382812 -0.34057617 C258.50819471 -0.36372221 258.50819471 -0.36372221 260.1245687 -0.38733584 C267.57833039 -0.28362565 272.90082837 1.66027128 278.71588135 6.40113831 C283.18902143 11.90347707 284.84175541 16.71599026 284.83892918 23.78156662 C284.84092022 24.87983363 284.84291127 25.97810064 284.84496266 27.10964847 C284.84204982 28.31586392 284.83913697 29.52207937 284.83613586 30.7648468 C284.8374175 32.68720118 284.8374175 32.68720118 284.83872503 34.64839101 C284.8409639 38.20805748 284.83695699 41.76769393 284.83194697 45.32735658 C284.82763396 49.16508627 284.8290895 53.00281422 284.82984924 56.84054565 C284.83037394 63.49049532 284.82723282 70.14043518 284.8216114 76.79038239 C284.81348904 86.40512408 284.81088043 96.01986104 284.80962341 105.6346058 C284.80743406 121.23338104 284.80077711 136.83215106 284.7913208 152.43092346 C284.78214369 167.58489455 284.77506431 182.73886422 284.77081299 197.89283752 C284.7704189 199.29365561 284.7704189 199.29365561 284.77001686 200.72277305 C284.76871183 205.4077048 284.76744812 210.09263657 284.76620495 214.77756834 C284.75583596 253.65209532 284.73822079 292.52661647 284.71588135 331.40113831 C285.38514145 331.3921199 286.05440155 331.3831015 286.74394226 331.37380981 C287.63114456 331.3667955 288.51834686 331.35978119 289.43243408 331.35255432 C290.30794418 331.34353592 291.18345428 331.33451752 292.085495 331.32522583 C296.13865654 331.44219934 299.87655151 332.28645013 303.77838135 333.33863831 C304.588396 333.55536194 305.39841064 333.77208557 306.23297119 333.99537659 C318.62568561 337.56060215 330.00834204 343.93200937 339.71588135 352.40113831 C340.36299072 352.90645081 341.0101001 353.41176331 341.67681885 353.93238831 C359.35969458 368.19051735 368.90389293 390.78404255 371.3994751 412.86207581 C373.57326062 437.17626942 366.85166866 460.3609558 351.3838501 479.24879456 C349.21800258 481.69505845 346.98961806 484.0554211 344.71588135 486.40113831 C343.90957275 487.31766174 343.90957275 487.31766174 343.0869751 488.25270081 C330.52683875 502.04051965 309.12774611 511.4935199 290.73101807 512.57691956 C261.44986897 513.77854959 238.71985012 506.83169772 216.4385376 487.41676331 C203.40805881 475.23360915 193.96641823 457.93692938 190.71588135 440.40113831 C190.69837886 438.73456354 190.69614247 437.06768808 190.71588135 435.40113831 C189.69343102 435.40482548 188.6709807 435.40851265 187.61754704 435.41231155 C162.72903461 435.5011443 137.84054277 435.56685773 112.95190525 435.60838699 C100.91589788 435.62900449 88.87999529 435.65710972 76.84405518 435.70289612 C66.35245901 435.74278856 55.86093874 435.76857702 45.36926883 435.77749228 C39.81496245 435.78270291 34.26087317 435.79493317 28.70663643 435.82405853 C23.47572336 435.85126548 18.24511628 435.85957255 13.01413918 435.85356903 C11.09734686 435.8546669 9.18054402 435.86258917 7.26381302 435.87796021 C-13.26515952 436.03447567 -13.26515952 436.03447567 -20.10221004 429.72273636 C-26.59317105 422.90996219 -28.40580346 414.92599058 -28.41554642 405.72305775 C-28.41759905 405.06181875 -28.41965168 404.40057976 -28.42176652 403.71930322 C-28.42742836 401.49993298 -28.42598028 399.28062496 -28.42456055 397.06124878 C-28.42714465 395.45538756 -28.43015794 393.84952699 -28.43356395 392.2436673 C-28.44163189 387.82765318 -28.44342341 383.4116553 -28.44416142 378.99563468 C-28.44601233 374.23406452 -28.45355985 369.47250279 -28.46029663 364.7109375 C-28.47387898 354.29767226 -28.47990451 343.88441087 -28.48430729 333.47113824 C-28.48706986 326.96914288 -28.49130723 320.467149 -28.49581146 313.96515465 C-28.50800396 295.96328608 -28.51830334 277.9614187 -28.52168655 259.95954609 C-28.52190612 258.80736893 -28.52212569 257.65519176 -28.52235191 256.46810014 C-28.52257018 255.31316552 -28.52278846 254.1582309 -28.52301335 252.96829826 C-28.52345682 250.62795913 -28.52390338 248.28762001 -28.52435303 245.94728088 C-28.52457446 244.78639173 -28.52479589 243.62550259 -28.52502403 242.42943498 C-28.52897204 223.61889862 -28.54642625 204.808401 -28.56971255 185.9978796 C-28.59342685 166.68575955 -28.60588844 147.37365894 -28.60705447 128.06152409 C-28.60797118 117.21833543 -28.61372255 106.37519724 -28.63187408 95.53202248 C-28.6472761 86.2987856 -28.65239492 77.0656148 -28.64413598 67.83236752 C-28.64022987 63.12229935 -28.64115726 58.41236425 -28.65519333 53.70231247 C-28.66793434 49.38734149 -28.66673296 45.07260354 -28.65460262 40.75763287 C-28.65264597 39.199739 -28.65572255 37.64182862 -28.66444698 36.08395795 C-28.77397232 15.1980839 -28.77397232 15.1980839 -21.47161865 7.46363831 C-20.50288818 6.39822815 -20.50288818 6.39822815 -19.5145874 5.31129456 C-13.35201224 0.03371267 -7.76289697 -0.03385845 0 0 Z M-13.9911499 12.83082581 C-18.15916787 18.28017791 -19.53356184 22.24225984 -19.53859425 29.0875988 C-19.54180072 29.74973658 -19.5450072 30.41187437 -19.54831085 31.09407693 C-19.55662333 33.3165444 -19.55068229 35.53874325 -19.54481506 37.76121521 C-19.54783518 39.36921559 -19.55172396 40.97721453 -19.55640763 42.58521092 C-19.56671442 47.00703835 -19.564499 51.42878494 -19.56022704 55.85061908 C-19.55776466 60.61827141 -19.5667679 65.38590403 -19.57426453 70.15354919 C-19.58702728 79.49518772 -19.58880325 88.83679752 -19.58646426 98.1784433 C-19.58468267 105.77027797 -19.58642734 113.36210391 -19.59068871 120.95393753 C-19.59128389 122.0336299 -19.59187908 123.11332228 -19.59249231 124.2257326 C-19.59370404 126.41899482 -19.59491817 128.61225703 -19.59613468 130.80551924 C-19.60701634 151.38369171 -19.6048448 171.9618478 -19.59874984 192.5400212 C-19.59358039 211.37198658 -19.60483575 230.20390024 -19.62384806 249.0358554 C-19.64321287 268.36491451 -19.65148483 287.69394913 -19.64772481 307.023018 C-19.64581067 317.87784408 -19.64832101 328.73262613 -19.66243935 339.58744431 C-19.67433685 348.82845734 -19.67577639 358.06939925 -19.66364918 367.31041323 C-19.65774896 372.02618193 -19.65669256 376.74182044 -19.66865158 381.45758057 C-19.67947139 385.77425082 -19.67645369 390.09068156 -19.6623899 394.40734042 C-19.65973217 395.96921622 -19.66214312 397.53111055 -19.67012576 399.09296821 C-19.68022652 401.21659956 -19.67181533 403.33939748 -19.65884876 405.46299553 C-19.65890378 406.64235455 -19.65895879 407.82171358 -19.65901548 409.03681076 C-18.98511822 415.08437089 -16.47831447 419.9527488 -12.28411865 424.40113831 C-8.56373362 426.96283592 -4.63132426 426.6750085 -0.28625488 426.64164734 C0.93168672 426.64421061 0.93168672 426.64421061 2.1742332 426.64682567 C4.8981663 426.65012301 7.62185371 426.63911286 10.34576416 426.62818909 C12.29706822 426.62762503 14.2483727 426.62794143 16.19967651 426.6290741 C21.50096053 426.62964881 26.80215437 426.6178753 32.1034174 426.60392618 C37.64210111 426.59143858 43.1807868 426.59024988 48.71948242 426.58787537 C59.2095787 426.5816548 69.69963338 426.56523617 80.18971133 426.54517639 C92.13152996 426.52283533 104.07335056 426.51182847 116.01518488 426.50178552 C140.58210678 426.48087046 165.14899174 426.44568327 189.71588135 426.40113831 C189.76994141 425.20110168 189.82400146 424.00106506 189.87969971 422.7646637 C189.95891173 421.1551927 190.03843698 419.5457371 190.1182251 417.93629456 C190.15282837 417.14952332 190.18743164 416.36275208 190.2230835 415.55213928 C191.4599209 391.34368852 202.37661687 370.73600124 219.71588135 353.99879456 C234.34932254 341.32791123 252.25695707 333.96243032 271.42706299 331.86940002 C272.23188614 331.78116974 273.03670929 331.69293945 273.86592102 331.60203552 C274.47640793 331.53573944 275.08689484 331.46944336 275.71588135 331.40113831 C275.80740797 291.75633644 275.87790537 252.11154833 275.92014267 212.46666195 C275.92514558 207.78775676 275.93032286 203.10885178 275.93560791 198.4299469 C275.93665715 197.49844895 275.93770639 196.56695101 275.93878743 195.60722585 C275.95619952 180.51837416 275.98774163 165.42958335 276.02449253 150.34076779 C276.06187959 134.86183275 276.08411247 119.38292962 276.09223533 103.90395129 C276.09772774 94.35017905 276.115084 84.79657885 276.14754722 75.24285956 C276.16866752 68.69427776 276.17508703 62.1457851 276.16988686 55.59717171 C276.16732119 51.81716296 276.17129391 48.03745514 276.19270325 44.25749969 C276.21573849 40.16059946 276.20784547 36.06434208 276.19689941 31.96739197 C276.20855078 30.77089315 276.22020215 29.57439433 276.23220658 28.34163797 C276.186612 22.05126294 275.99820207 18.15264831 271.71588135 13.40113831 C267.25830028 9.27787582 264.01327653 8.27888888 258.0577879 8.26971054 C257.12059058 8.2658694 256.18339326 8.26202825 255.21779603 8.25807071 C254.19144809 8.25893719 253.16510015 8.25980367 252.10765076 8.26069641 C251.01477999 8.25772529 249.92190921 8.25475417 248.79592115 8.25169301 C245.12104017 8.24299708 241.44619173 8.24149701 237.77130127 8.24000549 C235.14170766 8.23537799 232.51211473 8.23035342 229.88252258 8.22496033 C222.7296267 8.21138312 215.57673642 8.20535335 208.42382979 8.20094967 C203.95727339 8.19818643 199.49071914 8.19394894 195.0241642 8.1894455 C182.65659693 8.17725404 170.28903139 8.16695421 157.92145824 8.1635704 C156.73433065 8.16324105 156.73433065 8.16324105 155.52322068 8.16290505 C154.72991523 8.16268677 153.93660979 8.1624685 153.11926478 8.1622436 C151.51174048 8.16180014 149.90421619 8.16135358 148.29669189 8.16090393 C147.49930531 8.1606825 146.70191874 8.16046107 145.88036893 8.16023293 C132.95873974 8.15628458 120.03716694 8.13882889 107.11555954 8.11554441 C93.84792126 8.09182941 80.58031127 8.0793685 67.31265146 8.07820249 C59.86381574 8.07728585 52.4150535 8.07153641 44.96623802 8.05338287 C38.62374305 8.03797994 32.28134427 8.03286257 25.93883415 8.04112098 C22.70350517 8.04502673 19.46841034 8.04246829 16.23309708 8.03006363 C12.72358498 8.01739591 9.21457123 8.02319325 5.70506287 8.03364563 C4.1755792 8.02156102 4.1755792 8.02156102 2.61519688 8.00923228 C-3.72810716 8.05346559 -8.94379555 8.60352216 -13.9911499 12.83082581 Z M222.71588135 363.40113831 C222.1022876 363.94125549 221.48869385 364.48137268 220.85650635 365.03785706 C206.24138963 378.34565829 199.01200034 398.86173976 197.83892822 418.10914612 C196.94666282 439.43428926 204.37864826 460.60145522 218.71588135 476.40113831 C219.45451416 477.23258362 220.19314697 478.06402893 220.9541626 478.92066956 C232.87468967 491.6215912 249.35955798 500.84091436 266.71588135 503.40113831 C267.45064697 503.51070862 268.1854126 503.62027893 268.94244385 503.73316956 C290.45235104 506.50506481 312.34912019 501.04775709 329.59088135 487.77613831 C330.97147747 486.65801293 332.34642386 485.53287864 333.71588135 484.40113831 C334.53701416 483.77207581 335.35814697 483.14301331 336.2041626 482.49488831 C350.48023606 470.59446003 359.93189731 450.6833061 362.43463135 432.51441956 C364.58371374 408.7252714 358.43043815 387.28325891 343.47369385 368.60035706 C328.83651907 351.69512165 309.78905509 342.15429989 287.71588135 339.40113831 C262.89260904 337.93430858 240.54771322 346.09927346 222.71588135 363.40113831 Z " fill="#000000" transform="translate(84.28411865234375,-0.4011383056640625)"/>
<path d="M0 0 C0.75268661 -0.0066568 1.50537323 -0.0133136 2.28086853 -0.02017212 C3.87887122 -0.03031083 5.47691635 -0.03498876 7.07495117 -0.03466797 C9.4940636 -0.03900286 11.91129347 -0.07519794 14.33007812 -0.11328125 C23.43949061 -0.18157912 31.64941891 -0.20905588 38.62109375 6.37109375 C39.06453125 7.04011719 39.50796875 7.70914063 39.96484375 8.3984375 C40.42890625 9.07003906 40.89296875 9.74164063 41.37109375 10.43359375 C43.59861491 14.30788949 43.60625197 17.59039389 43.6418457 21.9753418 C43.6517025 22.98084831 43.6517025 22.98084831 43.66175842 24.00666809 C43.68146234 26.22449869 43.69314943 28.44226156 43.703125 30.66015625 C43.70720053 31.41969919 43.71127605 32.17924213 43.71547508 32.96180153 C43.73632663 36.98454134 43.75063048 41.00724716 43.76000977 45.0300293 C43.77105316 49.17150415 43.80543114 53.31243861 43.84518147 57.45372295 C43.87141588 60.64948986 43.87970776 63.84512954 43.88329124 67.04099464 C43.88814213 68.56672616 43.89971319 70.09245257 43.91832924 71.61807823 C44.11021352 88.39020259 44.11021352 88.39020259 38.0526886 94.83940125 C32.49982055 99.83234422 27.41492271 100.64038187 20.171875 100.6015625 C19.38463547 100.60347595 18.59739594 100.6053894 17.78630066 100.60736084 C16.1297473 100.6087171 14.47318311 100.60505985 12.81665039 100.59667969 C10.27531298 100.58592891 7.73467555 100.59661566 5.19335938 100.609375 C3.58202969 100.60805415 1.97070043 100.60549329 0.359375 100.6015625 C-0.40207321 100.60561096 -1.16352142 100.60965942 -1.94804382 100.61383057 C-7.30520542 100.56588833 -7.30520542 100.56588833 -9.53515625 98.3359375 C-9.73409102 95.30329375 -9.80778699 92.36193184 -9.79394531 89.328125 C-9.79744995 88.39470276 -9.80095459 87.46128052 -9.80456543 86.49957275 C-9.81339327 83.40328613 -9.80752986 80.30722659 -9.80078125 77.2109375 C-9.8021276 75.06624304 -9.80406787 72.92154888 -9.80657959 70.77685547 C-9.80953228 66.27763977 -9.80522853 61.77850337 -9.79589844 57.27929688 C-9.78450386 51.50183805 -9.79106255 45.72456503 -9.80304337 39.94711304 C-9.81025804 35.51715689 -9.80797584 31.08724505 -9.80278778 26.6572876 C-9.8014502 24.52655007 -9.80310278 22.39580857 -9.80774689 20.26507568 C-9.81280565 17.29119149 -9.80511101 14.31761145 -9.79394531 11.34375 C-9.80001801 10.01274261 -9.80001801 10.01274261 -9.80621338 8.65484619 C-9.74909513 0.47530864 -7.51835948 0.02301597 0 0 Z M-0.53515625 9.3359375 C-0.53515625 36.3959375 -0.53515625 63.4559375 -0.53515625 91.3359375 C24.88797668 94.25118106 24.88797668 94.25118106 32.46484375 87.3359375 C34.8153604 83.9827043 34.72334779 80.9294582 34.73950195 76.90258789 C34.74903397 75.59765884 34.75856598 74.2927298 34.76838684 72.94825745 C34.7681254 71.52670261 34.76718831 70.10514775 34.765625 68.68359375 C34.7695136 67.2215513 34.77384861 65.75950997 34.77861023 64.29747009 C34.78606593 61.23514135 34.78578592 58.17292792 34.78051758 55.1105957 C34.77472369 51.19199349 34.79165469 47.27386406 34.81486225 43.35534 C34.82961522 40.33639276 34.83046919 37.31755898 34.82735252 34.29858208 C34.82786495 32.85413107 34.83308798 31.40967359 34.84316444 29.96525764 C34.85554041 27.94310252 34.84678732 25.92085171 34.8371582 23.89868164 C34.83778763 22.74936661 34.83841705 21.60005157 34.83906555 20.41590881 C34.41138655 16.89596673 33.64951389 15.1165809 31.46484375 12.3359375 C23.5779509 7.0207066 23.5779509 7.0207066 -0.53515625 9.3359375 Z " fill="#000000" transform="translate(192.53515625,47.6640625)"/>
<path d="M0 0 C0.89867924 -0.00226556 1.79735847 -0.00453111 2.72327042 -0.00686532 C5.75270094 -0.01322589 8.78208696 -0.01237465 11.81152344 -0.0115509 C13.97603412 -0.01454108 16.14054427 -0.01794327 18.30505371 -0.02172852 C24.19744648 -0.03058627 30.08982473 -0.03290735 35.98222351 -0.0335443 C40.89314555 -0.0344918 45.80406417 -0.03816817 50.71498489 -0.0417164 C62.29534324 -0.0498674 73.8756938 -0.05230001 85.45605469 -0.05158997 C97.42234775 -0.05098872 109.3885958 -0.06154841 121.35487747 -0.07733363 C131.61219115 -0.09038486 141.86949006 -0.0957749 152.12681198 -0.09513456 C158.26037934 -0.09487889 164.3939067 -0.09776764 170.52746582 -0.10831261 C176.29265327 -0.11795325 182.05776215 -0.11810067 187.82295227 -0.11079597 C189.94424046 -0.10974515 192.06553343 -0.11214228 194.18681335 -0.11815643 C197.07190199 -0.12580921 199.9567147 -0.12127653 202.84179688 -0.11352539 C204.11502493 -0.12124074 204.11502493 -0.12124074 205.41397476 -0.12911195 C211.19262708 -0.09455859 211.19262708 -0.09455859 213.42089844 2.13371277 C213.67089844 4.63371277 213.67089844 4.63371277 213.42089844 7.13371277 C210.8025559 9.7520553 208.95308561 9.37713121 205.38780165 9.40119958 C204.535092 9.39673814 203.68238235 9.39227669 202.80383301 9.38768005 C201.90107022 9.39080003 200.99830743 9.39392002 200.06818819 9.39713454 C197.02488574 9.40515034 193.98178071 9.398777 190.93847656 9.39250183 C188.76411318 9.3952101 186.58975072 9.39877011 184.41539001 9.40312195 C178.49611871 9.4122677 172.57691684 9.40869271 166.65764427 9.40236378 C160.4752521 9.39731507 154.29286603 9.40199207 148.11047363 9.40513611 C137.72647021 9.40877906 127.3424952 9.40396804 116.95849609 9.39445496 C104.93766375 9.38356979 92.91691049 9.38709513 80.89607859 9.39810777 C70.59205242 9.40717129 60.28804672 9.40847051 49.98401785 9.40323043 C43.82250957 9.40010557 37.66103323 9.39971548 31.49952698 9.40630341 C25.70806755 9.41206266 19.91669594 9.4081061 14.12524605 9.39651489 C11.99428516 9.39386068 9.86331694 9.39464627 7.73235893 9.39904022 C4.834126 9.4044672 1.93617838 9.39769639 -0.96203613 9.38768005 C-1.81474578 9.3921415 -2.66745543 9.39660294 -3.54600477 9.40119958 C-9.35080153 9.3620128 -9.35080153 9.3620128 -11.57910156 7.13371277 C-11.32910156 4.07121277 -11.32910156 4.07121277 -10.57910156 1.13371277 C-7.28465253 -0.51351175 -3.62119528 -0.00660658 0 0 Z " fill="#000000" transform="translate(114.5791015625,316.8662872314453)"/>
<path d="M0 0 C1.28343374 0.00334608 1.28343374 0.00334608 2.59279543 0.00675976 C3.4947038 0.00519977 4.39661216 0.00363978 5.32585108 0.00203252 C8.37221062 -0.00198159 11.41852102 0.00121376 14.464881 0.00434887 C16.63909598 0.00299501 18.81331073 0.00121516 20.98752505 -0.00096118 C26.91097062 -0.00553751 32.83439886 -0.00374507 38.75784475 -0.0005821 C44.94291059 0.0019408 51.1279749 -0.00039587 57.31304079 -0.00196826 C68.36951339 -0.00390718 79.42597829 -0.00078932 90.48244966 0.00429107 C101.84412381 0.00935003 113.2057819 0.00674822 124.56745577 0.00154591 C134.87570358 -0.00298596 145.18394628 -0.00363537 155.49219477 -0.00101542 C161.65706291 0.00054713 167.82192308 0.00074173 173.98679072 -0.00255191 C179.78231643 -0.00543163 185.5778202 -0.00345305 191.37334353 0.00234234 C193.50591724 0.00366946 195.63849278 0.00327665 197.77106577 0.00107968 C200.67146579 -0.00163375 203.57179454 0.00175174 206.47218996 0.00675976 C207.32558173 0.00452904 208.1789735 0.00229832 209.05822563 0 C214.86768468 0.01959349 214.86768468 0.01959349 217.09598452 1.13374341 C217.28348452 4.00874341 217.28348452 4.00874341 217.09598452 7.13374341 C213.20365967 9.72862664 209.95578477 9.41471909 205.44132143 9.39443982 C204.54657689 9.39826536 203.65183234 9.40209091 202.72997433 9.40603238 C199.7197572 9.41638443 196.70973002 9.41236607 193.69950014 9.40840161 C191.54631536 9.41274683 189.39313212 9.41792933 187.23995119 9.42388928 C181.38265885 9.43731004 175.5254309 9.4378546 169.66812617 9.43532598 C164.78458308 9.43425849 159.90105314 9.43913386 155.01751286 9.4439314 C143.50085414 9.45503694 131.98422804 9.45545791 120.46756655 9.44941723 C108.57111379 9.4433735 96.67477919 9.45569626 84.7783466 9.4769873 C74.5770421 9.49457589 64.3757753 9.50060906 54.17445618 9.49734956 C48.0760668 9.49553239 41.97776172 9.49821605 35.87938601 9.5120641 C30.14697589 9.52459349 24.41475066 9.52274486 18.68234354 9.50965321 C16.57437555 9.50727729 14.46639473 9.51005816 12.35844141 9.51827633 C9.48895896 9.52865977 6.62010665 9.52071119 3.7506476 9.50796521 C2.90931481 9.51533949 2.06798202 9.52271378 1.20115429 9.53031152 C-4.46149139 9.47710578 -4.46149139 9.47710578 -6.65595096 7.77438527 C-7.90401548 6.13374341 -7.90401548 6.13374341 -7.65401548 3.50874341 C-6.27128437 -0.8699051 -4.28802766 0.01451112 0 0 Z " fill="#000000" transform="translate(110.90401548147202,258.8662565946579)"/>
<path d="M0 0 C1.18298172 -0.0049926 1.18298172 -0.0049926 2.38986206 -0.01008606 C4.05238259 -0.01513784 5.71491321 -0.01749493 7.37744141 -0.01733398 C9.92757637 -0.01952943 12.47728476 -0.03772765 15.02734375 -0.05664062 C16.64322769 -0.05957306 18.25911368 -0.06155886 19.875 -0.0625 C21.0218779 -0.07327827 21.0218779 -0.07327827 22.19192505 -0.08427429 C27.57585083 -0.06086792 27.57585083 -0.06086792 29.8046875 2.16796875 C30.0546875 4.66796875 30.0546875 4.66796875 29.8046875 7.16796875 C27.31052019 9.66213606 25.8249296 9.40949244 22.42134094 9.44442749 C21.68804062 9.44343048 20.9547403 9.44243347 20.19921875 9.44140625 C18.64257113 9.46171021 17.08593057 9.48256126 15.52929688 9.50390625 C13.07830878 9.52642606 10.62760016 9.54294375 8.17651367 9.54882812 C5.80856838 9.55841204 3.4418794 9.59227399 1.07421875 9.62890625 C0.35103958 9.62386078 -0.37213959 9.61881531 -1.11723328 9.61361694 C-6.53351474 9.71716761 -9.72248349 11.08612086 -14.1953125 14.16796875 C-18.30910169 19.47259165 -19.74556297 23.45491299 -19.1953125 30.16796875 C-17.36296165 35.50568645 -15.03082165 39.1029413 -10.1953125 42.16796875 C-6.92558845 43.10567746 -3.61506863 43.6398061 -0.2578125 44.16796875 C9.19453663 45.66153672 15.01478023 48.51625963 21.2578125 55.9609375 C25.24358457 61.64770826 26.75483077 68.30582288 25.8046875 75.16796875 C24.2315714 82.6140516 20.89450677 89.26109544 14.58984375 93.7421875 C6.36739449 98.51695421 -1.40552882 98.35432742 -10.70727539 98.35327148 C-12.886425 98.3554724 -15.06507946 98.373698 -17.24414062 98.39257812 C-18.62760244 98.39550976 -20.01106665 98.39749609 -21.39453125 98.3984375 C-22.65096436 98.40254639 -23.90739746 98.40665527 -25.2019043 98.41088867 C-28.1953125 98.16796875 -28.1953125 98.16796875 -30.1953125 96.16796875 C-30.3203125 93.04296875 -30.3203125 93.04296875 -30.1953125 90.16796875 C-27.29802708 88.71932604 -24.73389586 89.02145638 -21.5 88.9921875 C-20.13019334 88.9689671 -18.76040166 88.9448489 -17.390625 88.91992188 C-15.23818258 88.88499232 -13.0862834 88.85556912 -10.93359375 88.84204102 C0.53480482 88.8039233 0.53480482 88.8039233 10.8046875 84.16796875 C15.00128452 78.89532121 16.25170236 74.8731916 15.8046875 68.16796875 C14.03610651 62.46920778 11.71575541 59.53830948 6.8046875 56.16796875 C2.6707846 54.56514448 -1.17650481 53.83953231 -5.5703125 53.35546875 C-14.01084103 52.10715395 -19.63195433 48.79711445 -24.94140625 42.11328125 C-29.3370348 35.29389491 -30.25441343 27.74971689 -28.76171875 19.8828125 C-26.70824479 12.44694095 -22.12923936 6.68908524 -15.5078125 2.73046875 C-10.24013743 0.24571636 -5.78681901 0.00846732 0 0 Z " fill="#000000" transform="translate(282.1953125,51.83203125)"/>
<path d="M0 0 C0.86019556 0.00223072 1.72039112 0.00446144 2.60665321 0.00675976 C3.5133507 0.00519977 4.42004818 0.00363978 5.35422134 0.00203252 C8.41673431 -0.00198159 11.4791984 0.00121374 14.54171181 0.00434887 C16.7274014 0.00299502 18.91309075 0.00121517 21.09877968 -0.00096118 C27.05314882 -0.00553735 33.00750073 -0.00374521 38.96187019 -0.0005821 C45.17810044 0.00194056 51.39432916 -0.00039577 57.61055946 -0.00196826 C68.72159221 -0.00390711 79.83261813 -0.00078934 90.94364953 0.00429107 C101.02777315 0.00875911 111.11188527 0.00798318 121.19600868 0.00337231 C132.8928127 -0.0019734 144.58961 -0.00397432 156.2864151 -0.00101542 C162.48310943 0.00054778 168.67979582 0.00073992 174.87648964 -0.00255191 C180.70073935 -0.00542949 186.52496722 -0.00345703 192.34921455 0.00234234 C194.49349621 0.00367055 196.63777968 0.0032748 198.78206062 0.00107968 C201.69594749 -0.00162945 204.60976315 0.00174637 207.5236454 0.00675976 C208.38384096 0.00452904 209.24403652 0.00229832 210.13029861 0 C215.95099949 0.01959358 215.95099949 0.01959358 217.06514931 1.13374341 C217.19014931 4.13374341 217.19014931 4.13374341 217.06514931 7.13374341 C215.2162714 8.98262132 212.59592881 8.26189758 210.13496071 8.27214891 C209.27544727 8.27060031 208.41593383 8.2690517 207.53037453 8.26745617 C206.62438261 8.26972173 205.71839069 8.27198729 204.78494447 8.2743215 C201.72476896 8.28069215 198.66463739 8.27983018 195.60445595 8.27900708 C193.42038859 8.28199665 191.23632176 8.28539871 189.05225563 8.28918469 C183.10195428 8.29804923 177.1516673 8.30036382 171.20135999 8.30100048 C166.24326691 8.30194748 161.28517722 8.30562333 156.32708544 8.30917257 C145.30374491 8.31686005 134.28041112 8.31984035 123.25706811 8.31916722 C122.59504594 8.31912726 121.93302377 8.31908731 121.25094032 8.31904614 C120.58811397 8.31900526 119.92528761 8.31896438 119.2423756 8.31892226 C108.49640829 8.31851567 97.750476 8.32808732 87.00451881 8.34218451 C75.98233371 8.35653048 64.96016656 8.36327231 53.93797201 8.36259073 C47.7451451 8.36233504 41.55235779 8.36522494 35.35953903 8.37576878 C29.53773155 8.38540964 23.71600187 8.38555669 17.89419174 8.37825215 C15.75194117 8.3772013 13.60968585 8.37959856 11.46744347 8.38561261 C8.55383834 8.3932652 5.64050646 8.38873279 2.72690773 8.38098156 C1.86962501 8.38612513 1.01234229 8.39126869 0.12908131 8.39656812 C-5.70657951 8.36201458 -5.70657951 8.36201458 -7.93485069 6.13374341 C-7.18269633 -0.03392235 -6.0372944 0.02032268 0 0 Z " fill="#000000" transform="translate(110.93485069274902,200.8662565946579)"/>
<path d="M0 0 C1.07804649 -0.00503792 1.07804649 -0.00503792 2.1778717 -0.01017761 C4.56529445 -0.01971471 6.95264726 -0.0216321 9.34008789 -0.02270508 C10.992966 -0.02591576 12.64584382 -0.02927968 14.29872131 -0.03279114 C17.76816466 -0.03878933 21.23758308 -0.04063033 24.70703125 -0.04003906 C29.16061581 -0.0399374 33.61404107 -0.05359035 38.06758785 -0.07081127 C41.48271932 -0.08191029 44.89781201 -0.08395892 48.31295967 -0.08342934 C49.95526237 -0.0846126 51.59756596 -0.08905364 53.239851 -0.0967617 C55.53371321 -0.10651946 57.82722635 -0.10370046 60.12109375 -0.09765625 C61.42823837 -0.09908127 62.735383 -0.10050629 64.08213806 -0.10197449 C67.12524414 0.14526367 67.12524414 0.14526367 69.12524414 2.14526367 C69.37524414 4.64526367 69.37524414 4.64526367 69.12524414 7.14526367 C67.12524414 9.14526367 67.12524414 9.14526367 63.96069336 9.37231445 C62.61706451 9.37199756 61.27341004 9.36068548 59.92993164 9.34057617 C59.2224881 9.33774628 58.51504456 9.33491638 57.78616333 9.33200073 C55.52401904 9.32079504 53.26226899 9.29569046 51.00024414 9.27026367 C49.46769777 9.26023434 47.9351452 9.25110841 46.40258789 9.24291992 C42.64332113 9.22085454 38.8843495 9.18632263 35.12524414 9.14526367 C35.13190598 10.21601639 35.13856781 11.2867691 35.14543152 12.38996887 C35.20618639 22.46956112 35.2511897 32.54911633 35.28068066 42.62884998 C35.29635183 47.81123789 35.31761662 52.99347826 35.3515625 58.17578125 C35.38410414 63.17486208 35.40208621 68.1738008 35.40987587 73.17297935 C35.41542873 75.08241705 35.42627182 76.99184677 35.44243431 78.90122414 C35.4641396 81.57104059 35.46721398 84.24026609 35.46582031 86.91015625 C35.47660614 87.70353394 35.48739197 88.49691162 35.49850464 89.31433105 C35.46837044 94.63196877 35.46837044 94.63196877 33.76802063 97.17558289 C32.12524414 98.14526367 32.12524414 98.14526367 29.50024414 97.89526367 C27.12524414 97.14526367 27.12524414 97.14526367 26.12524414 96.14526367 C26.03009822 93.43688281 25.99969482 90.75407854 26.01171875 88.04541016 C26.01157272 87.19670349 26.0114267 86.34799683 26.01127625 85.47357178 C26.01197566 82.65447476 26.01976936 79.83544296 26.02758789 77.01635742 C26.02945197 75.06722551 26.03087592 73.11809312 26.03187561 71.16896057 C26.03570159 66.02819535 26.04553255 60.8874582 26.05657959 55.7467041 C26.066792 50.5052122 26.07137286 45.26371577 26.07641602 40.0222168 C26.08715475 29.72988673 26.10423213 19.43757753 26.12524414 9.14526367 C24.69474731 9.16882935 24.69474731 9.16882935 23.23535156 9.19287109 C19.69637501 9.24718046 16.15743528 9.28161701 12.61816406 9.31005859 C11.08652553 9.32514304 9.55493016 9.34561346 8.0234375 9.37158203 C5.8215876 9.40798214 3.62030881 9.4249928 1.41821289 9.43823242 C0.73373581 9.45371628 0.04925873 9.46920013 -0.65596008 9.4851532 C-3.53607683 9.48617221 -5.43466748 9.44757578 -7.84619141 7.79101562 C-8.87475586 6.14526367 -8.87475586 6.14526367 -8.62475586 3.52026367 C-7.15088135 -1.14700562 -4.57164524 0.01333961 0 0 Z " fill="#000000" transform="translate(98.874755859375,51.854736328125)"/>
<path d="M0 0 C6.21471811 3.6241888 11.15417523 9.41544401 13.3125 16.30859375 C15.26046117 26.0657921 13.10271448 33.91214253 8.0625 42.3125 C2.64925335 47.43313873 -2.2856304 49.81800772 -9.8125 50.0625 C-17.41665478 49.72571925 -22.35191275 47.80372348 -27.5625 42.25 C-33.40999141 34.69765415 -34.29903978 26.91830221 -33.25 17.5 C-32.30838422 14.21158796 -31.00792875 11.42578351 -29.25 8.5 C-28.71375 7.5925 -28.1775 6.685 -27.625 5.75 C-20.03148742 -1.44385403 -9.84129955 -4.23669845 0 0 Z M-20.25 11.5 C-24.10512972 16.47108832 -24.94472842 20.5042835 -24.703125 26.77734375 C-23.79538902 32.23158496 -21.06251818 35.88887273 -17 39.5 C-11.67724327 41.4355479 -7.09482726 41.33539348 -1.9375 39 C2.67970489 34.70492568 4.94138211 30.22056134 5.1875 23.875 C4.89927373 18.28341035 2.94500585 14.81159178 -0.8125 10.6875 C-4.57036327 7.31505861 -7.02624832 7.14779291 -11.93359375 7.2265625 C-15.60518887 7.6599717 -17.53908911 9.04126686 -20.25 11.5 Z " fill="#000000" transform="translate(406.25,428.5)"/>
<path d="M0 0 C6.16155093 6.08749382 8.28135332 11.46904554 8.4375 20.25 C8.32119821 27.22126642 7.32470019 32.43818605 3 38 C-2.21965769 43.04075813 -7.46229366 46.01622061 -14.75 46.375 C-22.18159502 46.1762352 -27.70702513 43.72715846 -32.875 38.375 C-37.47210337 32.63662039 -39.67053763 25.52223882 -39.35546875 18.140625 C-37.98703903 9.89997133 -34.80623021 3.09809436 -28.3125 -2.1875 C-18.83302191 -7.37438424 -8.48882277 -7.13832824 0 0 Z M-26 8 C-29.70127692 13.16150671 -30.68984557 18.32986071 -29.74609375 24.56640625 C-28.26690317 29.39120065 -25.36407882 33.58155271 -21.0078125 36.1953125 C-17.35142558 37.6607127 -13.85742232 37.64893206 -10.1328125 36.34765625 C-5.39132892 33.97691446 -2.91786391 30.90351151 -1 26 C0.63986633 20.09648123 -0.17513697 15.34879564 -3 10 C-5.95312168 6.26769054 -9.24441801 3.81948019 -13.9375 2.8125 C-18.90929242 2.57115085 -22.48305645 4.6072752 -26 8 Z " fill="#000000" transform="translate(348,370)"/>
<path d="M0 0 C2.375 0.75 2.375 0.75 3.375 1.75 C2.95460121 7.51520254 1.17765656 12.21361483 -1.10546875 17.484375 C-1.64692787 18.7615741 -1.64692787 18.7615741 -2.19932556 20.0645752 C-3.39552602 22.87995302 -4.60378139 25.68997638 -5.8125 28.5 C-6.65342603 30.47077529 -7.49374677 32.44180896 -8.33349609 34.41308594 C-10.60168089 39.72993019 -12.88166322 45.04163665 -15.16485596 50.35205078 C-16.66668925 53.84701642 -18.16549377 57.34326797 -19.66357422 60.83984375 C-22.68707082 67.89551705 -25.7170077 74.94840398 -28.75 82 C-29.4825148 83.70464417 -29.4825148 83.70464417 -30.22982788 85.44372559 C-31.61146389 88.65636083 -32.99652236 91.8674958 -34.3828125 95.078125 C-34.79861069 96.04576782 -35.21440887 97.01341064 -35.64280701 98.01037598 C-36.02252151 98.88770386 -36.40223602 99.76503174 -36.79345703 100.66894531 C-37.12475616 101.437005 -37.4560553 102.2050647 -37.7973938 102.99639893 C-38.625 104.75 -38.625 104.75 -39.625 105.75 C-41.62458364 105.79080783 -43.62545254 105.79254356 -45.625 105.75 C-47.52854288 98.78928348 -45.18112918 94.13786337 -42.32421875 87.73046875 C-41.8606044 86.65431305 -41.39699005 85.57815735 -40.91932678 84.46939087 C-39.39955746 80.95164683 -37.85640214 77.44471099 -36.3125 73.9375 C-35.25983371 71.5152442 -34.20873856 69.09230503 -33.15917969 66.66870117 C-31.55916133 62.97602406 -29.95711219 59.28427821 -28.34622192 55.59632874 C-24.91182015 47.73319681 -21.52865589 39.85016424 -18.19140625 31.9453125 C-17.36573392 29.99450831 -16.53997165 28.04374219 -15.71411133 26.09301758 C-14.55091763 23.34495109 -13.38921339 20.59631837 -12.23300171 17.8453064 C-11.17774346 15.33793939 -10.11346852 12.83459295 -9.046875 10.33203125 C-8.74161392 9.60021637 -8.43635284 8.86840149 -8.12184143 8.1144104 C-4.45835723 -0.42460545 -4.45835723 -0.42460545 0 0 Z " fill="#000000" transform="translate(385.625,368.25)"/>
</svg>
