<?xml version="1.0" encoding="UTF-8"?>
<svg version="1.1" xmlns="http://www.w3.org/2000/svg" width="512" height="512">
<path d="M0 0 C14.8968607 12.46957669 25.3613243 26.87806892 31.875 45.1875 C32.09945801 45.8175293 32.32391602 46.44755859 32.55517578 47.09667969 C40.41906477 70.52539576 37.27512859 97.43667975 26.7890625 119.46484375 C15.88790484 141.23920739 -3.35345761 158.59446514 -26.125 167.1875 C-52.735707 175.76785868 -80.30306739 174.51798557 -105.36035156 162.09326172 C-129.03814003 149.93988662 -144.89984654 128.32443963 -153.3828125 103.5078125 C-161.24465718 77.24421331 -156.1764607 49.79913996 -143.50390625 26.1640625 C-130.34268582 4.13401008 -108.12614947 -11.59740366 -83.5 -18.1875 C-54.38572751 -25.0855118 -23.51354125 -18.22299447 0 0 Z M-84.125 17.1875 C-98.45904358 22.23198072 -109.37773451 34.12394012 -116.99609375 46.828125 C-118.17397733 49.28986092 -118.71033227 51.49930919 -119.125 54.1875 C-114.13907125 50.00972235 -109.45795716 45.65622723 -104.87890625 41.0390625 C-104.22292953 40.38167084 -103.56695282 39.72427917 -102.89109802 39.04696655 C-100.82084732 36.97117138 -98.75412349 34.89190573 -96.6875 32.8125 C-95.27432138 31.3942992 -93.86091206 29.97632824 -92.44726562 28.55859375 C-89.00383935 25.10421223 -85.56356901 21.6467163 -82.125 18.1875 C-82.785 17.8575 -83.445 17.5275 -84.125 17.1875 Z M-37.77476788 19.46812439 C-38.37669869 20.07282059 -38.97862951 20.67751678 -39.59880066 21.30053711 C-40.29288528 21.99049774 -40.98696991 22.68045837 -41.7020874 23.3913269 C-42.45806213 24.15808746 -43.21403687 24.92484802 -43.99291992 25.71484375 C-44.79315079 26.51463654 -45.59338165 27.31442932 -46.41786194 28.13845825 C-49.07089988 30.79359238 -51.71314392 33.45920768 -54.35546875 36.125 C-56.18898781 37.96411204 -58.02316872 39.80256445 -59.85798645 41.64038086 C-64.19835622 45.99104914 -68.53197866 50.34833498 -72.86242992 54.7088728 C-77.79240459 59.67235484 -82.7308789 64.62734257 -87.6700958 69.58162498 C-97.83123484 79.77413972 -107.9816225 89.97731077 -118.125 100.1875 C-117.465 102.1675 -116.805 104.1475 -116.125 106.1875 C-113.16378921 106.4951146 -113.16378921 106.4951146 -111.44399738 104.87564087 C-110.82731788 104.25619598 -110.21063837 103.6367511 -109.57527161 102.99853516 C-108.86435867 102.29174622 -108.15344574 101.58495728 -107.42098999 100.85675049 C-106.25897568 99.67855743 -106.25897568 99.67855743 -105.07348633 98.4765625 C-104.25374832 97.65726257 -103.43401031 96.83796265 -102.58943176 95.99383545 C-99.87146413 93.2737715 -97.16428688 90.54322236 -94.45703125 87.8125 C-92.57866814 85.92854395 -90.69972662 84.0451834 -88.81999207 82.16259766 C-84.37289473 77.70616778 -79.9335013 73.24214423 -75.49680489 68.77536201 C-70.44591287 63.69096357 -65.3865221 58.61505867 -60.32638896 53.53985977 C-49.91642415 43.09851858 -39.51720642 32.64651686 -29.125 22.1875 C-30.93722534 20.1250006 -30.93722534 20.1250006 -33.125 18.1875 C-36.07811009 17.880907 -36.07811009 17.880907 -37.77476788 19.46812439 Z M-6.125 45.1875 C-34.175 73.2375 -62.225 101.2875 -91.125 130.1875 C-89.805 131.5075 -88.485 132.8275 -87.125 134.1875 C-83.67005892 134.10181072 -81.92937879 132.36363832 -79.56890869 129.99217224 C-78.88186356 129.3092511 -78.19481842 128.62632996 -77.48695374 127.92271423 C-76.74392502 127.16889969 -76.0008963 126.41508514 -75.23535156 125.63842773 C-74.44472824 124.84824249 -73.65410492 124.05805725 -72.83952332 123.243927 C-70.22438504 120.6266964 -67.62003685 117.99899491 -65.015625 115.37109375 C-63.20595612 113.55583053 -61.39562437 111.74122792 -59.58465576 109.92726135 C-55.30451967 105.63683575 -51.03113327 101.33979778 -46.76093364 97.03949076 C-41.89866304 92.14368523 -37.02786864 87.25639802 -32.15633821 82.36980903 C-22.13637636 72.31849156 -12.12717061 62.25651963 -2.125 52.1875 C-2.72683749 50.16704558 -3.39806096 48.16638961 -4.125 46.1875 C-5.115 45.6925 -5.115 45.6925 -6.125 45.1875 Z M-3.61195374 99.55419922 C-4.24926926 100.19373535 -4.88658478 100.83327148 -5.54321289 101.4921875 C-6.26388443 102.21293457 -6.98455597 102.93368164 -7.72706604 103.67626953 C-8.50936081 104.46372559 -9.29165558 105.25118164 -10.09765625 106.0625 C-10.89529892 106.86155762 -11.69294159 107.66061523 -12.51475525 108.48388672 C-15.0746807 111.0494326 -17.63111693 113.61842482 -20.1875 116.1875 C-21.91708986 117.92210222 -23.64690456 119.65648028 -25.37695312 121.390625 C-29.62891943 125.65364741 -33.87802219 129.91950817 -38.125 134.1875 C-37.465 134.5175 -36.805 134.8475 -36.125 135.1875 C-21.79095642 130.14301928 -10.87226549 118.25105988 -3.25390625 105.546875 C-2.07602267 103.08513908 -1.53966773 100.87569081 -1.125 98.1875 C-2.33889617 98.07471528 -2.33889617 98.07471528 -3.61195374 99.55419922 Z " fill="#000000" transform="translate(428.125,67.8125)"/>
<path d="M0 0 C19.41513413 15.83036047 34.05409201 37.67987498 37 63 C39.00706443 91.38316441 34.11130766 116.2402984 15.84375 138.64453125 C-0.57892148 157.46699451 -22.83614019 171.43272251 -48.21777344 173.22753906 C-76.8329536 174.49950262 -101.20094475 168.80835389 -123.1875 149.625 C-141.72962913 132.23989973 -154.23970686 110.00534464 -155.3828125 84.2890625 C-156.09445376 55.78869783 -149.21659255 31.57486407 -129.3359375 10.37109375 C-94.83017582 -24.65398542 -39.47352935 -30.18232772 0 0 Z M-104.75 32.1875 C-119.09163705 47.60207747 -122.87326731 64.89389156 -122.18359375 85.34960938 C-121.79597225 90.94537929 -120.23197745 95.85547493 -118 101 C-117.63777344 101.87527344 -117.27554688 102.75054687 -116.90234375 103.65234375 C-109.86685408 119.13042103 -96.51841767 130.83848774 -80.9375 137.25 C-63.91331734 142.96474679 -45.88616431 141.80499822 -29.75927734 133.93896484 C-14.2223386 125.6465604 -2.73777204 111.42377001 2.50854492 94.73461914 C6.17538282 81.22086192 5.57788951 65.85657811 0 53 C-0.54333984 51.68708984 -0.54333984 51.68708984 -1.09765625 50.34765625 C-8.13314592 34.86957897 -21.48158233 23.16151226 -37.0625 16.75 C-61.48382825 8.55214933 -85.96900596 15.09419897 -104.75 32.1875 Z " fill="#000000" transform="translate(427,291)"/>
<path d="M0 0 C19.41513413 15.83036047 34.05409201 37.67987498 37 63 C39.00706443 91.38316441 34.11130766 116.2402984 15.84375 138.64453125 C-0.57892148 157.46699451 -22.83614019 171.43272251 -48.21777344 173.22753906 C-76.8329536 174.49950262 -101.20094475 168.80835389 -123.1875 149.625 C-141.72962913 132.23989973 -154.23970686 110.00534464 -155.3828125 84.2890625 C-156.09445376 55.78869783 -149.21659255 31.57486407 -129.3359375 10.37109375 C-94.83017582 -24.65398542 -39.47352935 -30.18232772 0 0 Z M-104.75 32.1875 C-119.09163705 47.60207747 -122.87326731 64.89389156 -122.18359375 85.34960938 C-121.79597225 90.94537929 -120.23197745 95.85547493 -118 101 C-117.63777344 101.87527344 -117.27554688 102.75054687 -116.90234375 103.65234375 C-109.86685408 119.13042103 -96.51841767 130.83848774 -80.9375 137.25 C-63.91331734 142.96474679 -45.88616431 141.80499822 -29.75927734 133.93896484 C-14.2223386 125.6465604 -2.73777204 111.42377001 2.50854492 94.73461914 C6.17538282 81.22086192 5.57788951 65.85657811 0 53 C-0.54333984 51.68708984 -0.54333984 51.68708984 -1.09765625 50.34765625 C-8.13314592 34.86957897 -21.48158233 23.16151226 -37.0625 16.75 C-61.48382825 8.55214933 -85.96900596 15.09419897 -104.75 32.1875 Z " fill="#000000" transform="translate(203,291)"/>
<path d="M0 0 C19.41513413 15.83036047 34.05409201 37.67987498 37 63 C39.00706443 91.38316441 34.11130766 116.2402984 15.84375 138.64453125 C-0.57892148 157.46699451 -22.83614019 171.43272251 -48.21777344 173.22753906 C-76.8329536 174.49950262 -101.20094475 168.80835389 -123.1875 149.625 C-141.72962913 132.23989973 -154.23970686 110.00534464 -155.3828125 84.2890625 C-156.09445376 55.78869783 -149.21659255 31.57486407 -129.3359375 10.37109375 C-94.83017582 -24.65398542 -39.47352935 -30.18232772 0 0 Z M-104.75 32.1875 C-119.09163705 47.60207747 -122.87326731 64.89389156 -122.18359375 85.34960938 C-121.79597225 90.94537929 -120.23197745 95.85547493 -118 101 C-117.63777344 101.87527344 -117.27554688 102.75054687 -116.90234375 103.65234375 C-109.86685408 119.13042103 -96.51841767 130.83848774 -80.9375 137.25 C-63.91331734 142.96474679 -45.88616431 141.80499822 -29.75927734 133.93896484 C-14.2223386 125.6465604 -2.73777204 111.42377001 2.50854492 94.73461914 C6.17538282 81.22086192 5.57788951 65.85657811 0 53 C-0.54333984 51.68708984 -0.54333984 51.68708984 -1.09765625 50.34765625 C-8.13314592 34.86957897 -21.48158233 23.16151226 -37.0625 16.75 C-61.48382825 8.55214933 -85.96900596 15.09419897 -104.75 32.1875 Z " fill="#000000" transform="translate(203,67)"/>
</svg>
